<svg width="420" height="336" viewBox="0 0 420 336" fill="none" xmlns="http://www.w3.org/2000/svg">
<path fill-rule="evenodd" clip-rule="evenodd" d="M196.098 32.5C196.098 33.8807 194.979 35 193.598 35C192.217 35 191.098 33.8807 191.098 32.5C191.098 31.1193 192.217 30 193.598 30C194.979 30 196.098 31.1193 196.098 32.5ZM195.098 32.5C195.098 33.3284 194.426 34 193.598 34C192.77 34 192.098 33.3284 192.098 32.5C192.098 31.6716 192.77 31 193.598 31C194.426 31 195.098 31.6716 195.098 32.5Z" fill="#002033"/>
<path d="M311.098 47C311.098 49.2091 309.307 51 307.098 51C304.889 51 303.098 49.2091 303.098 47C303.098 44.7909 304.889 43 307.098 43C309.307 43 311.098 44.7909 311.098 47Z" fill="#002033"/>
<path fill-rule="evenodd" clip-rule="evenodd" d="M67.098 51H103.598L101.16 56H103.598L66.0487 133H92.098V103H127.098V131H143.098V165H127.098V186H91.098V165H28.098V129L67.098 51ZM94.098 135V105H125.098V133H141.098V158H125.098V179H93.098V158H30.098V129.472L68.3341 53H100.398L62.098 131.538V135H94.098Z" fill="#002033"/>
<path fill-rule="evenodd" clip-rule="evenodd" d="M324.598 51H361.098L358.66 56H361.098L323.549 133H349.598V103H384.598V131H400.598V165H384.598V186H348.598V165H285.598V129L324.598 51ZM319.598 135H351.598V105H382.598V133H398.598V158H382.598V179H350.598V158H287.598V129.472L325.834 53H357.898L319.598 131.538V135Z" fill="#002033"/>
<path d="M214.286 102.524C213.152 101.769 213.107 100.119 214.197 99.3009L215.398 98.4C215.619 98.2343 215.664 97.9209 215.498 97.7C215.332 97.4791 215.019 97.4343 214.798 97.6L213.597 98.5009C211.955 99.7326 212.024 102.218 213.732 103.357L213.821 103.416C214.951 104.17 214.951 105.83 213.821 106.584C212.097 107.733 212.097 110.267 213.821 111.416C214.951 112.17 214.951 113.83 213.821 114.584C212.097 115.733 212.097 118.267 213.821 119.416C214.951 120.17 214.951 121.83 213.821 122.584C212.097 123.733 212.097 126.267 213.821 127.416C214.951 128.17 214.951 129.83 213.821 130.584C212.097 131.733 212.097 134.267 213.821 135.416L213.91 135.475C215.044 136.231 215.09 137.881 213.999 138.699L212.798 139.6C212.577 139.766 212.532 140.079 212.698 140.3C212.864 140.521 213.177 140.566 213.398 140.4L214.599 139.499C216.242 138.267 216.173 135.782 214.465 134.643L214.375 134.584C213.245 133.83 213.245 132.17 214.375 131.416C216.099 130.267 216.099 127.733 214.375 126.584C213.245 125.83 213.245 124.17 214.375 123.416C216.099 122.267 216.099 119.733 214.375 118.584C213.245 117.83 213.245 116.17 214.375 115.416C216.099 114.267 216.099 111.733 214.375 110.584C213.245 109.83 213.245 108.17 214.375 107.416C216.099 106.267 216.099 103.733 214.375 102.584L214.286 102.524Z" fill="#002033"/>
<path fill-rule="evenodd" clip-rule="evenodd" d="M194.098 115.5C194.098 129.259 195.918 139.506 199.411 146.385C202.972 153.399 208.345 157 215.098 157C221.851 157 227.225 153.399 230.785 146.385C234.278 139.506 236.098 129.259 236.098 115.5C236.098 101.697 234.278 91.4489 230.784 84.5794C227.221 77.5727 221.846 74 215.098 74C208.35 74 202.975 77.5727 199.412 84.5794C195.918 91.4489 194.098 101.697 194.098 115.5ZM196.119 117.996C196.553 143.527 203.719 155 215.098 155C226.477 155 233.643 143.527 234.077 117.996C233.643 92.3884 226.477 81 215.098 81C203.719 81 196.553 92.3884 196.119 117.996Z" fill="#002033"/>
<path fill-rule="evenodd" clip-rule="evenodd" d="M157.123 118C157.106 117.173 157.098 116.34 157.098 115.5C157.098 72.1406 179.598 47 215.098 47C250.599 47 273.098 72.1406 273.098 115.5C273.098 116.34 273.09 117.173 273.073 118L273.073 117.998C273.09 118.825 273.098 119.659 273.098 120.5C273.098 163.498 250.87 190 215.098 190C179.327 190 157.098 163.588 157.098 120.5C157.098 119.66 157.106 118.827 157.123 118ZM271.098 115.5C271.098 136.674 265.625 153.548 255.978 165.092C246.366 176.594 232.451 183 215.098 183C197.743 183 183.829 176.615 174.218 165.125C164.572 153.593 159.098 136.72 159.098 115.5C159.098 94.1477 164.637 77.5362 174.302 66.294C183.935 55.0883 197.85 49 215.098 49C232.346 49 246.261 55.0883 255.894 66.294C265.559 77.5362 271.098 94.1477 271.098 115.5Z" fill="#002033"/>
<path d="M396.098 198C398.307 198 400.098 196.209 400.098 194C400.098 191.791 398.307 190 396.098 190C393.889 190 392.098 191.791 392.098 194C392.098 196.209 393.889 198 396.098 198Z" fill="#002033"/>
<path d="M160.098 184C160.098 186.209 158.307 188 156.098 188C153.889 188 152.098 186.209 152.098 184C152.098 181.791 153.889 180 156.098 180C158.307 180 160.098 181.791 160.098 184Z" fill="#002033"/>
<path d="M22.098 60C24.3072 60 26.098 58.2091 26.098 56C26.098 53.7909 24.3072 52 22.098 52C19.8889 52 18.098 53.7909 18.098 56C18.098 58.2091 19.8889 60 22.098 60Z" fill="#002033"/>
<path fill-rule="evenodd" clip-rule="evenodd" d="M111.598 88C112.979 88 114.098 86.8807 114.098 85.5C114.098 84.1193 112.979 83 111.598 83C110.217 83 109.098 84.1193 109.098 85.5C109.098 86.8807 110.217 88 111.598 88ZM111.598 87C112.426 87 113.098 86.3284 113.098 85.5C113.098 84.6716 112.426 84 111.598 84C110.77 84 110.098 84.6716 110.098 85.5C110.098 86.3284 110.77 87 111.598 87Z" fill="#002033"/>
<path fill-rule="evenodd" clip-rule="evenodd" d="M278.098 164.5C278.098 165.881 276.979 167 275.598 167C274.217 167 273.098 165.881 273.098 164.5C273.098 163.119 274.217 162 275.598 162C276.979 162 278.098 163.119 278.098 164.5ZM277.098 164.5C277.098 165.328 276.427 166 275.598 166C274.77 166 274.098 165.328 274.098 164.5C274.098 163.672 274.77 163 275.598 163C276.427 163 277.098 163.672 277.098 164.5Z" fill="#002033"/>
<path fill-rule="evenodd" clip-rule="evenodd" d="M407.598 75C408.979 75 410.098 73.8807 410.098 72.5C410.098 71.1193 408.979 70 407.598 70C406.217 70 405.098 71.1193 405.098 72.5C405.098 73.8807 406.217 75 407.598 75ZM407.598 74C408.427 74 409.098 73.3284 409.098 72.5C409.098 71.6716 408.427 71 407.598 71C406.77 71 406.098 71.6716 406.098 72.5C406.098 73.3284 406.77 74 407.598 74Z" fill="#002033"/>
<path fill-rule="evenodd" clip-rule="evenodd" d="M34.598 201C35.9787 201 37.098 199.881 37.098 198.5C37.098 197.119 35.9787 196 34.598 196C33.2173 196 32.098 197.119 32.098 198.5C32.098 199.881 33.2173 201 34.598 201ZM34.598 200C35.4265 200 36.098 199.328 36.098 198.5C36.098 197.672 35.4265 197 34.598 197C33.7696 197 33.098 197.672 33.098 198.5C33.098 199.328 33.7696 200 34.598 200Z" fill="#002033"/>
<path d="M102.574 34.1881C103.329 33.0543 104.979 33.0085 105.797 34.0987L106.698 35.3C106.864 35.5209 107.177 35.5657 107.398 35.4C107.619 35.2343 107.664 34.9209 107.498 34.7L106.597 33.4987C105.365 31.8565 102.88 31.9255 101.741 33.6334L101.682 33.7226C100.928 34.8529 99.2676 34.8529 98.5141 33.7226C97.3647 31.9986 94.8314 31.9986 93.682 33.7226C92.9285 34.8529 91.2676 34.8529 90.5141 33.7226C89.3647 31.9986 86.8314 31.9986 85.682 33.7226C84.9285 34.8529 83.2676 34.8529 82.5141 33.7226C81.3647 31.9986 78.8314 31.9986 77.682 33.7226C76.9285 34.8529 75.2676 34.8529 74.5141 33.7226C73.3647 31.9986 70.8314 31.9986 69.682 33.7226L69.6226 33.8118C68.8666 34.9457 67.2167 34.9915 66.399 33.9013L65.498 32.7C65.3323 32.4791 65.0189 32.4343 64.798 32.6C64.5771 32.7657 64.5323 33.0791 64.698 33.3L65.599 34.5013C66.8306 36.1434 69.316 36.0745 70.4546 34.3665L70.5141 34.2773C71.2676 33.147 72.9285 33.147 73.682 34.2773C74.8314 36.0013 77.3647 36.0013 78.5141 34.2773C79.2676 33.147 80.9285 33.147 81.682 34.2773C82.8314 36.0013 85.3647 36.0013 86.5141 34.2773C87.2676 33.147 88.9285 33.147 89.682 34.2773C90.8314 36.0013 93.3647 36.0013 94.5141 34.2773C95.2676 33.147 96.9285 33.147 97.682 34.2773C98.8314 36.0013 101.365 36.0013 102.514 34.2773L102.574 34.1881Z" fill="#002033"/>
<path d="M332.797 182.099C331.979 181.008 330.33 181.054 329.574 182.188L329.514 182.277C328.365 184.001 325.831 184.001 324.682 182.277C323.929 181.147 322.268 181.147 321.514 182.277C320.365 184.001 317.831 184.001 316.682 182.277C315.929 181.147 314.268 181.147 313.514 182.277C312.365 184.001 309.831 184.001 308.682 182.277C307.929 181.147 306.268 181.147 305.514 182.277C304.365 184.001 301.831 184.001 300.682 182.277C299.929 181.147 298.268 181.147 297.514 182.277L297.455 182.367C296.316 184.074 293.831 184.143 292.599 182.501L291.698 181.3C291.532 181.079 291.577 180.766 291.798 180.6C292.019 180.434 292.332 180.479 292.498 180.7L293.399 181.901C294.217 182.991 295.867 182.946 296.623 181.812L296.682 181.723C297.831 179.999 300.365 179.999 301.514 181.723C302.268 182.853 303.929 182.853 304.682 181.723C305.831 179.999 308.365 179.999 309.514 181.723C310.268 182.853 311.929 182.853 312.682 181.723C313.831 179.999 316.365 179.999 317.514 181.723C318.268 182.853 319.929 182.853 320.682 181.723C321.831 179.999 324.365 179.999 325.514 181.723C326.268 182.853 327.929 182.853 328.682 181.723L328.742 181.633C329.88 179.925 332.366 179.856 333.597 181.499L334.498 182.7C334.664 182.921 334.619 183.234 334.398 183.4C334.177 183.566 333.864 183.521 333.698 183.3L332.797 182.099Z" fill="#002033"/>
<path d="M23.4987 89.826C22.8947 88.6044 23.68 87.1525 25.033 86.9895L26.5238 86.8099C26.798 86.7769 26.9935 86.5279 26.9604 86.2537C26.9274 85.9795 26.6784 85.7841 26.4042 85.8171L24.9134 85.9967C22.8754 86.2423 21.6925 88.4291 22.6023 90.2692L22.6498 90.3652C23.2519 91.583 22.4215 93.0213 21.0658 93.1088C18.9981 93.2421 17.7314 95.4361 18.6498 97.2935C19.2519 98.5112 18.4215 99.9496 17.0658 100.037C14.9981 100.17 13.7314 102.364 14.6498 104.222C15.2519 105.439 14.4215 106.878 13.0658 106.965C10.9981 107.099 9.73143 109.292 10.6498 111.15C11.2519 112.368 10.4215 113.806 9.06583 113.893C6.99811 114.027 5.73143 116.221 6.6498 118.078L6.69731 118.174C7.30132 119.396 6.516 120.848 5.16302 121.011L3.67218 121.19C3.39802 121.223 3.20254 121.472 3.23557 121.746C3.2686 122.021 3.51763 122.216 3.79179 122.183L5.28263 122.003C7.32062 121.758 8.50354 119.571 7.59372 117.731L7.54621 117.635C6.94412 116.417 7.77457 114.979 9.13019 114.891C11.1979 114.758 12.4646 112.564 11.5462 110.707C10.9441 109.489 11.7746 108.051 13.1302 107.963C15.1979 107.83 16.4646 105.636 15.5462 103.778C14.9441 102.561 15.7746 101.122 17.1302 101.035C19.1979 100.902 20.4646 98.7076 19.5462 96.8502C18.9441 95.6325 19.7746 94.1941 21.1302 94.1067C23.1979 93.9734 24.4646 91.7794 23.5462 89.922L23.4987 89.826Z" fill="#002033"/>
<path d="M411.958 102.999C412.15 101.65 410.951 100.516 409.615 100.783L409.51 100.804C407.478 101.21 405.687 99.419 406.093 97.3872C406.359 96.0552 405.185 94.8807 403.853 95.1471C401.821 95.5535 400.03 93.7621 400.436 91.7304C400.703 90.3983 399.528 89.2239 398.196 89.4903C396.164 89.8966 394.373 88.1053 394.779 86.0735C395.046 84.7415 393.871 83.567 392.539 83.8334C390.507 84.2398 388.716 82.4484 389.122 80.4167C389.389 79.0846 388.214 77.9102 386.882 78.1766L386.777 78.1976C384.764 78.6002 382.958 76.8916 383.249 74.8595L383.461 73.3729C383.5 73.0996 383.753 72.9096 384.027 72.9487C384.3 72.9877 384.49 73.241 384.451 73.5144L384.238 75.0009C384.046 76.35 385.245 77.4843 386.581 77.217L386.686 77.196C388.718 76.7896 390.509 78.581 390.103 80.6128C389.837 81.9448 391.011 83.1193 392.343 82.8529C394.375 82.4465 396.166 84.2378 395.76 86.2696C395.493 87.6017 396.668 88.7761 398 88.5097C400.032 88.1033 401.823 89.8947 401.417 91.9265C401.15 93.2585 402.325 94.433 403.657 94.1666C405.689 93.7602 407.48 95.5516 407.074 97.5833C406.807 98.9154 407.982 100.09 409.314 99.8234L409.419 99.8024C411.432 99.3998 413.238 101.108 412.947 103.141L412.735 104.627C412.696 104.9 412.443 105.09 412.169 105.051C411.896 105.012 411.706 104.759 411.745 104.486L411.958 102.999Z" fill="#002033"/>
<path d="M278.598 41.3074V37C278.598 36.7239 278.822 36.5 279.098 36.5C279.374 36.5 279.598 36.7239 279.598 37V41.3074C279.598 43.1381 278.484 44.7843 276.784 45.4642C275.464 45.9923 274.598 47.2708 274.598 48.6926V53C274.598 53.2761 274.374 53.5 274.098 53.5C273.822 53.5 273.598 53.2761 273.598 53V48.6926C273.598 46.8619 274.713 45.2157 276.412 44.5358C277.732 44.0077 278.598 42.7292 278.598 41.3074Z" fill="#002033"/>
<path d="M60.598 191V195.307C60.598 196.729 59.7324 198.008 58.4123 198.536C56.7126 199.216 55.598 200.862 55.598 202.693V207C55.598 207.276 55.8219 207.5 56.098 207.5C56.3742 207.5 56.598 207.276 56.598 207V202.693C56.598 201.271 57.4636 199.992 58.7837 199.464C60.4835 198.784 61.598 197.138 61.598 195.307V191C61.598 190.724 61.3742 190.5 61.098 190.5C60.8219 190.5 60.598 190.724 60.598 191Z" fill="#002033"/>
<path d="M417.598 143.307V139C417.598 138.724 417.822 138.5 418.098 138.5C418.374 138.5 418.598 138.724 418.598 139V143.307C418.598 145.138 417.484 146.784 415.784 147.464C414.464 147.992 413.598 149.271 413.598 150.693V155C413.598 155.276 413.374 155.5 413.098 155.5C412.822 155.5 412.598 155.276 412.598 155V150.693C412.598 148.862 413.713 147.216 415.412 146.536C416.732 146.008 417.598 144.729 417.598 143.307Z" fill="#002033"/>
<path d="M183.405 199.5C184.827 199.5 186.106 200.366 186.634 201.686C187.314 203.385 188.96 204.5 190.791 204.5H195.098C195.374 204.5 195.598 204.276 195.598 204C195.598 203.724 195.374 203.5 195.098 203.5H190.791C189.369 203.5 188.09 202.634 187.562 201.314C186.882 199.615 185.236 198.5 183.405 198.5H179.098C178.822 198.5 178.598 198.724 178.598 199C178.598 199.276 178.822 199.5 179.098 199.5H183.405Z" fill="#002033"/>
<path d="M89.8647 269.196V266.545H103.791V269.196H98.396V284H95.2596V269.196H89.8647ZM108.325 284.264C107.495 284.264 106.748 284.116 106.083 283.821C105.424 283.52 104.902 283.077 104.515 282.491C104.135 281.906 103.944 281.185 103.944 280.327C103.944 279.588 104.081 278.977 104.353 278.494C104.626 278.011 104.998 277.625 105.47 277.335C105.941 277.045 106.473 276.827 107.064 276.679C107.66 276.526 108.277 276.415 108.913 276.347C109.68 276.267 110.302 276.196 110.779 276.134C111.257 276.065 111.603 275.963 111.819 275.827C112.041 275.685 112.152 275.466 112.152 275.17V275.119C112.152 274.477 111.961 273.98 111.581 273.628C111.2 273.276 110.652 273.099 109.936 273.099C109.18 273.099 108.581 273.264 108.137 273.594C107.7 273.923 107.404 274.312 107.251 274.761L104.37 274.352C104.598 273.557 104.973 272.892 105.495 272.358C106.018 271.818 106.657 271.415 107.413 271.148C108.169 270.875 109.004 270.739 109.919 270.739C110.549 270.739 111.177 270.812 111.802 270.96C112.427 271.108 112.998 271.352 113.515 271.693C114.032 272.028 114.447 272.486 114.76 273.065C115.078 273.645 115.237 274.369 115.237 275.239V284H112.271V282.202H112.169C111.981 282.565 111.717 282.906 111.376 283.224C111.041 283.537 110.618 283.79 110.106 283.983C109.6 284.17 109.007 284.264 108.325 284.264ZM109.126 281.997C109.745 281.997 110.282 281.875 110.737 281.631C111.191 281.381 111.541 281.051 111.785 280.642C112.035 280.233 112.16 279.787 112.16 279.304V277.761C112.064 277.841 111.899 277.915 111.666 277.983C111.439 278.051 111.183 278.111 110.899 278.162C110.615 278.213 110.333 278.259 110.055 278.298C109.777 278.338 109.535 278.372 109.331 278.401C108.87 278.463 108.458 278.565 108.095 278.707C107.731 278.849 107.444 279.048 107.234 279.304C107.024 279.554 106.919 279.878 106.919 280.276C106.919 280.844 107.126 281.273 107.541 281.562C107.956 281.852 108.484 281.997 109.126 281.997ZM118.339 284V270.909H121.424V276.193H122.549L126.487 270.909H130.203L125.353 277.335L130.254 284H126.521L122.933 279.065H121.424V284H118.339ZM137.174 284.256C135.896 284.256 134.788 283.974 133.85 283.412C132.913 282.849 132.186 282.062 131.669 281.051C131.157 280.04 130.902 278.858 130.902 277.506C130.902 276.153 131.157 274.969 131.669 273.952C132.186 272.935 132.913 272.145 133.85 271.582C134.788 271.02 135.896 270.739 137.174 270.739C138.453 270.739 139.561 271.02 140.498 271.582C141.436 272.145 142.16 272.935 142.672 273.952C143.189 274.969 143.447 276.153 143.447 277.506C143.447 278.858 143.189 280.04 142.672 281.051C142.16 282.062 141.436 282.849 140.498 283.412C139.561 283.974 138.453 284.256 137.174 284.256ZM137.191 281.784C137.885 281.784 138.464 281.594 138.93 281.213C139.396 280.827 139.743 280.31 139.97 279.662C140.203 279.014 140.319 278.293 140.319 277.497C140.319 276.696 140.203 275.972 139.97 275.324C139.743 274.67 139.396 274.151 138.93 273.764C138.464 273.378 137.885 273.185 137.191 273.185C136.481 273.185 135.89 273.378 135.419 273.764C134.953 274.151 134.603 274.67 134.37 275.324C134.143 275.972 134.029 276.696 134.029 277.497C134.029 278.293 134.143 279.014 134.37 279.662C134.603 280.31 134.953 280.827 135.419 281.213C135.89 281.594 136.481 281.784 137.191 281.784ZM149.04 279.824L154.282 270.909H157.452V284H154.469V275.077L149.245 284H146.066V270.909H149.04V279.824ZM153.438 266.409H155.748C155.748 267.403 155.387 268.21 154.665 268.83C153.949 269.443 152.978 269.75 151.75 269.75C150.534 269.75 149.566 269.443 148.844 268.83C148.128 268.21 147.773 267.403 147.779 266.409H150.071C150.071 266.818 150.196 267.185 150.446 267.509C150.702 267.827 151.137 267.986 151.75 267.986C152.353 267.986 152.782 267.827 153.037 267.509C153.299 267.19 153.432 266.824 153.438 266.409ZM172.284 284.256C170.977 284.256 169.855 283.969 168.917 283.395C167.985 282.821 167.267 282.028 166.761 281.017C166.261 280 166.011 278.83 166.011 277.506C166.011 276.176 166.267 275.003 166.778 273.986C167.289 272.963 168.011 272.168 168.943 271.599C169.88 271.026 170.988 270.739 172.267 270.739C173.329 270.739 174.27 270.935 175.088 271.327C175.912 271.713 176.568 272.261 177.056 272.972C177.545 273.676 177.824 274.5 177.892 275.443H174.943C174.824 274.812 174.539 274.287 174.091 273.866C173.647 273.44 173.054 273.227 172.309 273.227C171.679 273.227 171.125 273.398 170.647 273.739C170.17 274.074 169.798 274.557 169.531 275.188C169.27 275.818 169.139 276.574 169.139 277.455C169.139 278.347 169.27 279.114 169.531 279.756C169.792 280.392 170.159 280.884 170.63 281.23C171.108 281.571 171.667 281.741 172.309 281.741C172.764 281.741 173.17 281.656 173.528 281.486C173.892 281.31 174.196 281.057 174.44 280.727C174.684 280.398 174.852 279.997 174.943 279.526H177.892C177.818 280.452 177.545 281.273 177.074 281.989C176.602 282.699 175.96 283.256 175.147 283.659C174.335 284.057 173.38 284.256 172.284 284.256ZM179.475 273.44V270.909H190.929V273.44H186.694V284H183.711V273.44H179.475ZM193.386 288.909V270.909H196.42V273.074H196.599C196.758 272.756 196.983 272.418 197.272 272.06C197.562 271.696 197.954 271.386 198.449 271.131C198.943 270.869 199.574 270.739 200.341 270.739C201.352 270.739 202.264 270.997 203.076 271.514C203.895 272.026 204.542 272.784 205.02 273.79C205.502 274.79 205.744 276.017 205.744 277.472C205.744 278.909 205.508 280.131 205.037 281.136C204.565 282.142 203.923 282.909 203.11 283.438C202.298 283.966 201.377 284.23 200.349 284.23C199.599 284.23 198.977 284.105 198.483 283.855C197.988 283.605 197.591 283.304 197.289 282.952C196.994 282.594 196.764 282.256 196.599 281.938H196.471V288.909H193.386ZM196.412 277.455C196.412 278.301 196.531 279.043 196.77 279.679C197.014 280.315 197.363 280.812 197.818 281.17C198.278 281.523 198.835 281.699 199.488 281.699C200.17 281.699 200.741 281.517 201.201 281.153C201.662 280.784 202.008 280.281 202.241 279.645C202.48 279.003 202.599 278.273 202.599 277.455C202.599 276.642 202.483 275.92 202.25 275.29C202.017 274.659 201.67 274.165 201.21 273.807C200.75 273.449 200.176 273.27 199.488 273.27C198.829 273.27 198.27 273.443 197.809 273.79C197.349 274.136 197 274.622 196.761 275.247C196.528 275.872 196.412 276.608 196.412 277.455ZM212.153 284.264C211.324 284.264 210.576 284.116 209.912 283.821C209.252 283.52 208.73 283.077 208.343 282.491C207.963 281.906 207.772 281.185 207.772 280.327C207.772 279.588 207.909 278.977 208.181 278.494C208.454 278.011 208.826 277.625 209.298 277.335C209.77 277.045 210.301 276.827 210.892 276.679C211.488 276.526 212.105 276.415 212.741 276.347C213.508 276.267 214.13 276.196 214.608 276.134C215.085 276.065 215.431 275.963 215.647 275.827C215.869 275.685 215.98 275.466 215.98 275.17V275.119C215.98 274.477 215.789 273.98 215.409 273.628C215.028 273.276 214.48 273.099 213.764 273.099C213.008 273.099 212.409 273.264 211.966 273.594C211.528 273.923 211.233 274.312 211.079 274.761L208.199 274.352C208.426 273.557 208.801 272.892 209.324 272.358C209.846 271.818 210.485 271.415 211.241 271.148C211.997 270.875 212.832 270.739 213.747 270.739C214.377 270.739 215.005 270.812 215.63 270.96C216.255 271.108 216.826 271.352 217.343 271.693C217.86 272.028 218.275 272.486 218.588 273.065C218.906 273.645 219.065 274.369 219.065 275.239V284H216.099V282.202H215.997C215.809 282.565 215.545 282.906 215.204 283.224C214.869 283.537 214.446 283.79 213.934 283.983C213.429 284.17 212.835 284.264 212.153 284.264ZM212.954 281.997C213.574 281.997 214.11 281.875 214.565 281.631C215.02 281.381 215.369 281.051 215.613 280.642C215.863 280.233 215.988 279.787 215.988 279.304V277.761C215.892 277.841 215.727 277.915 215.494 277.983C215.267 278.051 215.011 278.111 214.727 278.162C214.443 278.213 214.162 278.259 213.883 278.298C213.605 278.338 213.363 278.372 213.159 278.401C212.699 278.463 212.287 278.565 211.923 278.707C211.559 278.849 211.272 279.048 211.062 279.304C210.852 279.554 210.747 279.878 210.747 280.276C210.747 280.844 210.954 281.273 211.369 281.562C211.784 281.852 212.312 281.997 212.954 281.997ZM231.159 276.176V278.707H224.187V276.176H231.159ZM225.142 270.909V284H222.167V270.909H225.142ZM233.179 270.909V284H230.213V270.909H233.179ZM239.275 279.824L244.516 270.909H247.686V284H244.703V275.077L239.479 284H236.3V270.909H239.275V279.824ZM261.909 270.909V281.699H263.912V288.21H260.895V284H250.855V270.909H253.829V281.469H258.96V270.909H261.909ZM268.529 275.17H272.39C274.06 275.17 275.353 275.577 276.267 276.389C277.182 277.202 277.642 278.267 277.648 279.585C277.642 280.443 277.432 281.205 277.017 281.869C276.608 282.534 276.012 283.057 275.228 283.438C274.449 283.812 273.503 284 272.39 284H266.441V270.909H269.415V281.469H272.39C273.06 281.469 273.611 281.298 274.043 280.957C274.475 280.611 274.691 280.168 274.691 279.628C274.691 279.06 274.475 278.597 274.043 278.239C273.611 277.881 273.06 277.702 272.39 277.702H268.529V275.17ZM279.276 284V270.909H282.361V284H279.276ZM300.487 276.176V278.707H293.515V276.176H300.487ZM294.47 270.909V284H291.495V270.909H294.47ZM302.507 270.909V284H299.541V270.909H302.507ZM311.424 284.256C310.111 284.256 308.978 283.983 308.023 283.438C307.074 282.886 306.344 282.108 305.833 281.102C305.321 280.091 305.066 278.901 305.066 277.531C305.066 276.185 305.321 275.003 305.833 273.986C306.35 272.963 307.071 272.168 307.998 271.599C308.924 271.026 310.012 270.739 311.262 270.739C312.069 270.739 312.83 270.869 313.546 271.131C314.267 271.386 314.904 271.784 315.455 272.324C316.012 272.864 316.449 273.551 316.767 274.386C317.086 275.216 317.245 276.205 317.245 277.352V278.298H306.515V276.219H314.287C314.282 275.628 314.154 275.102 313.904 274.642C313.654 274.176 313.304 273.81 312.855 273.543C312.412 273.276 311.895 273.142 311.304 273.142C310.674 273.142 310.12 273.295 309.642 273.602C309.165 273.903 308.793 274.301 308.526 274.795C308.265 275.284 308.131 275.821 308.125 276.406V278.222C308.125 278.983 308.265 279.636 308.543 280.182C308.821 280.722 309.211 281.136 309.711 281.426C310.211 281.71 310.796 281.852 311.466 281.852C311.915 281.852 312.321 281.79 312.685 281.665C313.049 281.534 313.364 281.344 313.631 281.094C313.898 280.844 314.1 280.534 314.236 280.165L317.117 280.489C316.935 281.25 316.588 281.915 316.077 282.483C315.571 283.045 314.924 283.483 314.134 283.795C313.344 284.102 312.441 284.256 311.424 284.256ZM318.764 273.44V270.909H330.218V273.44H325.983V284H323V273.44H318.764Z" fill="#002033"/>
<path d="M42.995 313V301.364H47.0632C47.8738 301.364 48.5424 301.504 49.0689 301.784C49.5954 302.061 49.9875 302.434 50.245 302.903C50.5026 303.369 50.6314 303.886 50.6314 304.455C50.6314 304.955 50.5424 305.367 50.3643 305.693C50.1901 306.019 49.959 306.277 49.6712 306.466C49.3871 306.655 49.0784 306.795 48.745 306.886V307C49.1011 307.023 49.459 307.148 49.8189 307.375C50.1787 307.602 50.4799 307.928 50.7223 308.352C50.9647 308.777 51.0859 309.295 51.0859 309.909C51.0859 310.492 50.9534 311.017 50.6882 311.483C50.4231 311.949 50.0045 312.318 49.4325 312.591C48.8606 312.864 48.1162 313 47.1996 313H42.995ZM44.4041 311.75H47.1996C48.12 311.75 48.7734 311.572 49.1598 311.216C49.55 310.856 49.745 310.42 49.745 309.909C49.745 309.515 49.6446 309.152 49.4439 308.818C49.2431 308.481 48.9571 308.212 48.5859 308.011C48.2147 307.807 47.7753 307.705 47.2678 307.705H44.4041V311.75ZM44.4041 306.477H47.0178C47.442 306.477 47.8246 306.394 48.1655 306.227C48.5102 306.061 48.7829 305.826 48.9837 305.523C49.1882 305.22 49.2905 304.864 49.2905 304.455C49.2905 303.943 49.1125 303.509 48.7564 303.153C48.4003 302.794 47.8359 302.614 47.0632 302.614H44.4041V306.477ZM56.7649 313.182C55.977 313.182 55.2857 312.994 54.6911 312.619C54.1001 312.244 53.638 311.72 53.3047 311.045C52.9751 310.371 52.8104 309.583 52.8104 308.682C52.8104 307.773 52.9751 306.979 53.3047 306.301C53.638 305.623 54.1001 305.097 54.6911 304.722C55.2857 304.347 55.977 304.159 56.7649 304.159C57.5528 304.159 58.2422 304.347 58.8331 304.722C59.4278 305.097 59.8899 305.623 60.2195 306.301C60.5528 306.979 60.7195 307.773 60.7195 308.682C60.7195 309.583 60.5528 310.371 60.2195 311.045C59.8899 311.72 59.4278 312.244 58.8331 312.619C58.2422 312.994 57.5528 313.182 56.7649 313.182ZM56.7649 311.977C57.3634 311.977 57.8558 311.824 58.2422 311.517C58.6286 311.21 58.9145 310.807 59.1001 310.307C59.2857 309.807 59.3786 309.265 59.3786 308.682C59.3786 308.098 59.2857 307.555 59.1001 307.051C58.9145 306.547 58.6286 306.14 58.2422 305.83C57.8558 305.519 57.3634 305.364 56.7649 305.364C56.1664 305.364 55.674 305.519 55.2876 305.83C54.9013 306.14 54.6153 306.547 54.4297 307.051C54.2441 307.555 54.1513 308.098 54.1513 308.682C54.1513 309.265 54.2441 309.807 54.4297 310.307C54.6153 310.807 54.9013 311.21 55.2876 311.517C55.674 311.824 56.1664 311.977 56.7649 311.977ZM62.2209 310.773H63.6527C63.683 311.167 63.861 311.466 64.1868 311.67C64.5163 311.875 64.9444 311.977 65.4709 311.977C66.0088 311.977 66.469 311.867 66.8516 311.648C67.2341 311.424 67.4254 311.064 67.4254 310.568C67.4254 310.277 67.3535 310.023 67.2095 309.807C67.0656 309.587 66.8629 309.417 66.6016 309.295C66.3402 309.174 66.0315 309.114 65.6754 309.114H64.1754V307.909H65.6754C66.2095 307.909 66.6035 307.788 66.8572 307.545C67.1148 307.303 67.2436 307 67.2436 306.636C67.2436 306.246 67.1054 305.934 66.8288 305.699C66.5523 305.46 66.1603 305.341 65.6527 305.341C65.1413 305.341 64.7152 305.456 64.3743 305.688C64.0334 305.915 63.8535 306.208 63.8345 306.568H62.4254C62.4406 306.098 62.5845 305.684 62.8572 305.324C63.13 304.96 63.5012 304.676 63.9709 304.472C64.4406 304.263 64.9785 304.159 65.5845 304.159C66.1982 304.159 66.7304 304.267 67.1811 304.483C67.6357 304.695 67.986 304.985 68.2322 305.352C68.4822 305.716 68.6072 306.129 68.6072 306.591C68.6072 307.083 68.469 307.481 68.1925 307.784C67.916 308.087 67.5694 308.303 67.1527 308.432V308.523C67.4822 308.545 67.7682 308.652 68.0107 308.841C68.2569 309.027 68.4482 309.271 68.5845 309.574C68.7209 309.873 68.7891 310.205 68.7891 310.568C68.7891 311.098 68.647 311.561 68.3629 311.955C68.0788 312.345 67.6887 312.648 67.1925 312.864C66.6963 313.076 66.13 313.182 65.4936 313.182C64.8762 313.182 64.3232 313.081 63.8345 312.881C63.3459 312.676 62.9576 312.394 62.6697 312.034C62.3857 311.67 62.236 311.25 62.2209 310.773ZM75.4453 311.182L78.4908 304.273H79.7635L75.9908 313H74.8999L71.1953 304.273H72.4453L75.4453 311.182ZM72.0135 304.273V313H70.6726V304.273H72.0135ZM78.8771 313V304.273H80.218V313H78.8771ZM86.218 313.182C85.4302 313.182 84.7389 312.994 84.1442 312.619C83.5533 312.244 83.0911 311.72 82.7578 311.045C82.4283 310.371 82.2635 309.583 82.2635 308.682C82.2635 307.773 82.4283 306.979 82.7578 306.301C83.0911 305.623 83.5533 305.097 84.1442 304.722C84.7389 304.347 85.4302 304.159 86.218 304.159C87.0059 304.159 87.6953 304.347 88.2862 304.722C88.8809 305.097 89.343 305.623 89.6726 306.301C90.0059 306.979 90.1726 307.773 90.1726 308.682C90.1726 309.583 90.0059 310.371 89.6726 311.045C89.343 311.72 88.8809 312.244 88.2862 312.619C87.6953 312.994 87.0059 313.182 86.218 313.182ZM86.218 311.977C86.8165 311.977 87.3089 311.824 87.6953 311.517C88.0817 311.21 88.3677 310.807 88.5533 310.307C88.7389 309.807 88.8317 309.265 88.8317 308.682C88.8317 308.098 88.7389 307.555 88.5533 307.051C88.3677 306.547 88.0817 306.14 87.6953 305.83C87.3089 305.519 86.8165 305.364 86.218 305.364C85.6196 305.364 85.1271 305.519 84.7408 305.83C84.3544 306.14 84.0684 306.547 83.8828 307.051C83.6972 307.555 83.6044 308.098 83.6044 308.682C83.6044 309.265 83.6972 309.807 83.8828 310.307C84.0684 310.807 84.3544 311.21 84.7408 311.517C85.1271 311.824 85.6196 311.977 86.218 311.977ZM91.3146 313L94.8601 308.568L91.3601 304.273H92.951L95.8601 308H96.5874V304.273H97.9283V308H98.6328L101.542 304.273H103.133L99.6555 308.568L103.178 313H101.565L98.6101 309.25H97.9283V313H96.5874V309.25H95.9055L92.9283 313H91.3146ZM110.935 308.023V309.273H106.117V308.023H110.935ZM106.435 304.273V313H105.094V304.273H106.435ZM111.958 304.273V313H110.617V304.273H111.958ZM117.952 313.182C117.165 313.182 116.473 312.994 115.879 312.619C115.288 312.244 114.826 311.72 114.492 311.045C114.163 310.371 113.998 309.583 113.998 308.682C113.998 307.773 114.163 306.979 114.492 306.301C114.826 305.623 115.288 305.097 115.879 304.722C116.473 304.347 117.165 304.159 117.952 304.159C118.74 304.159 119.43 304.347 120.021 304.722C120.615 305.097 121.077 305.623 121.407 306.301C121.74 306.979 121.907 307.773 121.907 308.682C121.907 309.583 121.74 310.371 121.407 311.045C121.077 311.72 120.615 312.244 120.021 312.619C119.43 312.994 118.74 313.182 117.952 313.182ZM117.952 311.977C118.551 311.977 119.043 311.824 119.43 311.517C119.816 311.21 120.102 310.807 120.288 310.307C120.473 309.807 120.566 309.265 120.566 308.682C120.566 308.098 120.473 307.555 120.288 307.051C120.102 306.547 119.816 306.14 119.43 305.83C119.043 305.519 118.551 305.364 117.952 305.364C117.354 305.364 116.862 305.519 116.475 305.83C116.089 306.14 115.803 306.547 115.617 307.051C115.432 307.555 115.339 308.098 115.339 308.682C115.339 309.265 115.432 309.807 115.617 310.307C115.803 310.807 116.089 311.21 116.475 311.517C116.862 311.824 117.354 311.977 117.952 311.977ZM125.954 311.409L125.863 312.023C125.799 312.455 125.7 312.917 125.567 313.409C125.439 313.902 125.304 314.366 125.164 314.801C125.024 315.237 124.908 315.583 124.817 315.841H123.795C123.844 315.598 123.908 315.278 123.988 314.881C124.067 314.483 124.147 314.038 124.227 313.545C124.31 313.057 124.378 312.557 124.431 312.045L124.499 311.409H125.954ZM135.825 305.409C135.522 305.413 135.217 305.491 134.91 305.642C134.607 305.794 134.353 305.994 134.148 306.244C133.948 306.491 133.847 306.765 133.847 307.068H132.529C132.529 306.689 132.62 306.326 132.802 305.977C132.984 305.629 133.228 305.318 133.535 305.045C133.845 304.773 134.198 304.557 134.592 304.398C134.989 304.239 135.4 304.159 135.825 304.159C136.62 304.159 137.294 304.36 137.847 304.761C138.404 305.163 138.826 305.693 139.114 306.352C139.406 307.011 139.552 307.727 139.552 308.5V308.818C139.552 309.587 139.406 310.303 139.114 310.966C138.826 311.625 138.404 312.155 137.847 312.557C137.294 312.958 136.62 313.159 135.825 313.159C135.188 313.159 134.622 313.019 134.126 312.739C133.629 312.455 133.239 312.076 132.955 311.602C132.671 311.129 132.529 310.602 132.529 310.023H133.847C133.847 310.352 133.94 310.661 134.126 310.949C134.315 311.233 134.559 311.464 134.859 311.642C135.162 311.816 135.484 311.905 135.825 311.909C136.332 311.905 136.764 311.746 137.12 311.432C137.476 311.117 137.747 310.723 137.933 310.25C138.118 309.777 138.211 309.299 138.211 308.818V308.5C138.211 308.008 138.118 307.527 137.933 307.057C137.751 306.583 137.482 306.191 137.126 305.881C136.773 305.57 136.34 305.413 135.825 305.409ZM138.756 307.977V309.227H134.938V307.977H138.756ZM140.454 305.523V304.273H147.545V305.523H144.681V313H143.34V305.523H140.454ZM150.364 316.273C150.137 316.273 149.934 316.254 149.756 316.216C149.578 316.182 149.455 316.148 149.387 316.114L149.728 314.932C150.054 315.015 150.342 315.045 150.592 315.023C150.842 315 151.063 314.888 151.256 314.688C151.453 314.491 151.633 314.17 151.796 313.727L152.046 313.045L148.819 304.273H150.273L152.683 311.227H152.773L155.183 304.273H156.637L152.933 314.273C152.766 314.723 152.559 315.097 152.313 315.392C152.067 315.691 151.781 315.913 151.455 316.057C151.133 316.201 150.77 316.273 150.364 316.273ZM166.452 313.182C165.634 313.182 164.93 312.989 164.339 312.602C163.748 312.216 163.293 311.684 162.975 311.006C162.657 310.328 162.498 309.553 162.498 308.682C162.498 307.795 162.661 307.013 162.987 306.335C163.316 305.653 163.774 305.121 164.362 304.739C164.952 304.352 165.642 304.159 166.43 304.159C167.043 304.159 167.596 304.273 168.089 304.5C168.581 304.727 168.985 305.045 169.299 305.455C169.613 305.864 169.808 306.341 169.884 306.886H168.543C168.441 306.489 168.214 306.136 167.862 305.83C167.513 305.519 167.043 305.364 166.452 305.364C165.93 305.364 165.471 305.5 165.077 305.773C164.687 306.042 164.382 306.422 164.163 306.915C163.947 307.403 163.839 307.977 163.839 308.636C163.839 309.311 163.945 309.898 164.157 310.398C164.373 310.898 164.676 311.286 165.066 311.562C165.46 311.839 165.922 311.977 166.452 311.977C166.801 311.977 167.117 311.917 167.401 311.795C167.685 311.674 167.926 311.5 168.123 311.273C168.32 311.045 168.46 310.773 168.543 310.455H169.884C169.808 310.97 169.621 311.434 169.322 311.847C169.026 312.256 168.634 312.581 168.146 312.824C167.661 313.062 167.096 313.182 166.452 313.182ZM171.157 305.523V304.273H178.248V305.523H175.384V313H174.043V305.523H171.157ZM180.204 316.273V304.273H181.499V305.659H181.658C181.757 305.508 181.893 305.314 182.067 305.08C182.246 304.841 182.499 304.629 182.829 304.443C183.162 304.254 183.613 304.159 184.181 304.159C184.916 304.159 185.564 304.343 186.124 304.71C186.685 305.078 187.122 305.598 187.437 306.273C187.751 306.947 187.908 307.742 187.908 308.659C187.908 309.583 187.751 310.384 187.437 311.062C187.122 311.737 186.687 312.259 186.13 312.631C185.573 312.998 184.931 313.182 184.204 313.182C183.643 313.182 183.194 313.089 182.857 312.903C182.52 312.714 182.261 312.5 182.079 312.261C181.897 312.019 181.757 311.818 181.658 311.659H181.545V316.273H180.204ZM181.522 308.636C181.522 309.295 181.619 309.877 181.812 310.381C182.005 310.881 182.287 311.273 182.658 311.557C183.03 311.837 183.484 311.977 184.022 311.977C184.583 311.977 185.05 311.83 185.425 311.534C185.804 311.235 186.088 310.833 186.278 310.33C186.471 309.822 186.567 309.258 186.567 308.636C186.567 308.023 186.473 307.47 186.283 306.977C186.098 306.481 185.816 306.089 185.437 305.801C185.062 305.509 184.59 305.364 184.022 305.364C183.477 305.364 183.018 305.502 182.647 305.778C182.276 306.051 181.996 306.434 181.806 306.926C181.617 307.415 181.522 307.985 181.522 308.636ZM192.522 313.205C191.969 313.205 191.467 313.1 191.016 312.892C190.566 312.68 190.208 312.375 189.942 311.977C189.677 311.576 189.545 311.091 189.545 310.523C189.545 310.023 189.643 309.617 189.84 309.307C190.037 308.992 190.3 308.746 190.63 308.568C190.96 308.39 191.323 308.258 191.721 308.17C192.122 308.08 192.526 308.008 192.931 307.955C193.461 307.886 193.891 307.835 194.221 307.801C194.554 307.763 194.797 307.701 194.948 307.614C195.103 307.527 195.181 307.375 195.181 307.159V307.114C195.181 306.553 195.028 306.117 194.721 305.807C194.418 305.496 193.958 305.341 193.34 305.341C192.7 305.341 192.198 305.481 191.835 305.761C191.471 306.042 191.215 306.341 191.067 306.659L189.795 306.205C190.022 305.674 190.325 305.261 190.704 304.966C191.086 304.667 191.503 304.458 191.954 304.341C192.408 304.22 192.855 304.159 193.295 304.159C193.575 304.159 193.897 304.193 194.261 304.261C194.628 304.326 194.982 304.46 195.323 304.665C195.668 304.869 195.954 305.178 196.181 305.591C196.408 306.004 196.522 306.557 196.522 307.25V313H195.181V311.818H195.113C195.022 312.008 194.871 312.21 194.658 312.426C194.446 312.642 194.164 312.826 193.812 312.977C193.46 313.129 193.03 313.205 192.522 313.205ZM192.727 312C193.257 312 193.704 311.896 194.067 311.688C194.435 311.479 194.711 311.21 194.897 310.881C195.086 310.551 195.181 310.205 195.181 309.841V308.614C195.124 308.682 194.999 308.744 194.806 308.801C194.617 308.854 194.397 308.902 194.147 308.943C193.901 308.981 193.66 309.015 193.425 309.045C193.194 309.072 193.007 309.095 192.863 309.114C192.514 309.159 192.189 309.233 191.886 309.335C191.586 309.434 191.344 309.583 191.158 309.784C190.977 309.981 190.886 310.25 190.886 310.591C190.886 311.057 191.058 311.409 191.403 311.648C191.751 311.883 192.192 312 192.727 312ZM204.81 308.023V309.273H199.992V308.023H204.81ZM200.31 304.273V313H198.969V304.273H200.31ZM205.833 304.273V313H204.492V304.273H205.833ZM209.623 311.023L213.827 304.273H215.373V313H214.032V306.25L209.85 313H208.282V304.273H209.623V311.023ZM224.692 304.273V311.75H225.92V315.818H224.579V313H217.829V304.273H219.17V311.75H223.352V304.273H224.692ZM228.849 316.273C228.621 316.273 228.419 316.254 228.241 316.216C228.063 316.182 227.94 316.148 227.871 316.114L228.212 314.932C228.538 315.015 228.826 315.045 229.076 315.023C229.326 315 229.548 314.888 229.741 314.688C229.938 314.491 230.118 314.17 230.281 313.727L230.531 313.045L227.303 304.273H228.758L231.167 311.227H231.258L233.667 304.273H235.121L231.417 314.273C231.25 314.723 231.044 315.097 230.798 315.392C230.551 315.691 230.265 315.913 229.94 316.057C229.618 316.201 229.254 316.273 228.849 316.273ZM242.255 316.273C242.028 316.273 241.825 316.254 241.647 316.216C241.469 316.182 241.346 316.148 241.278 316.114L241.619 314.932C241.944 315.015 242.232 315.045 242.482 315.023C242.732 315 242.954 314.888 243.147 314.688C243.344 314.491 243.524 314.17 243.687 313.727L243.937 313.045L240.71 304.273H242.164L244.573 311.227H244.664L247.073 304.273H248.528L244.823 314.273C244.656 314.723 244.45 315.097 244.204 315.392C243.958 315.691 243.672 315.913 243.346 316.057C243.024 316.201 242.66 316.273 242.255 316.273ZM249.752 313L253.298 308.568L249.798 304.273H251.388L254.298 308H255.025V304.273H256.366V308H257.07L259.979 304.273H261.57L258.093 308.568L261.616 313H260.002L257.048 309.25H256.366V313H255.025V309.25H254.343L251.366 313H249.752ZM266.832 313.182C265.991 313.182 265.265 312.996 264.656 312.625C264.049 312.25 263.582 311.727 263.252 311.057C262.926 310.383 262.763 309.598 262.763 308.705C262.763 307.811 262.926 307.023 263.252 306.341C263.582 305.655 264.04 305.121 264.627 304.739C265.218 304.352 265.907 304.159 266.695 304.159C267.15 304.159 267.599 304.235 268.042 304.386C268.485 304.538 268.888 304.784 269.252 305.125C269.616 305.462 269.906 305.909 270.121 306.466C270.337 307.023 270.445 307.708 270.445 308.523V309.091H263.718V307.932H269.082C269.082 307.439 268.983 307 268.786 306.614C268.593 306.227 268.317 305.922 267.957 305.699C267.601 305.475 267.18 305.364 266.695 305.364C266.161 305.364 265.699 305.496 265.309 305.761C264.923 306.023 264.625 306.364 264.417 306.784C264.209 307.205 264.104 307.655 264.104 308.136V308.909C264.104 309.568 264.218 310.127 264.445 310.585C264.676 311.04 264.996 311.386 265.406 311.625C265.815 311.86 266.29 311.977 266.832 311.977C267.184 311.977 267.502 311.928 267.786 311.83C268.074 311.727 268.322 311.576 268.531 311.375C268.739 311.17 268.9 310.917 269.013 310.614L270.309 310.977C270.173 311.417 269.943 311.803 269.621 312.136C269.299 312.466 268.902 312.723 268.428 312.909C267.955 313.091 267.423 313.182 266.832 313.182ZM277.849 316.273C277.621 316.273 277.419 316.254 277.241 316.216C277.063 316.182 276.94 316.148 276.871 316.114L277.212 314.932C277.538 315.015 277.826 315.045 278.076 315.023C278.326 315 278.548 314.888 278.741 314.688C278.938 314.491 279.118 314.17 279.281 313.727L279.531 313.045L276.303 304.273H277.758L280.167 311.227H280.258L282.667 304.273H284.121L280.417 314.273C280.25 314.723 280.044 315.097 279.798 315.392C279.551 315.691 279.265 315.913 278.94 316.057C278.618 316.201 278.254 316.273 277.849 316.273ZM284.225 315.5V311.75H284.952C285.13 311.564 285.284 311.364 285.413 311.148C285.541 310.932 285.653 310.676 285.748 310.381C285.846 310.081 285.93 309.718 285.998 309.29C286.066 308.858 286.127 308.337 286.18 307.727L286.475 304.273H292.021V311.75H293.362V315.5H292.021V313H285.566V315.5H284.225ZM286.475 311.75H290.68V305.523H287.725L287.498 307.727C287.403 308.64 287.286 309.437 287.146 310.119C287.005 310.801 286.782 311.345 286.475 311.75ZM297.71 313.205C297.156 313.205 296.655 313.1 296.204 312.892C295.753 312.68 295.395 312.375 295.13 311.977C294.865 311.576 294.732 311.091 294.732 310.523C294.732 310.023 294.831 309.617 295.028 309.307C295.225 308.992 295.488 308.746 295.817 308.568C296.147 308.39 296.511 308.258 296.908 308.17C297.31 308.08 297.713 308.008 298.119 307.955C298.649 307.886 299.079 307.835 299.408 307.801C299.742 307.763 299.984 307.701 300.136 307.614C300.291 307.527 300.369 307.375 300.369 307.159V307.114C300.369 306.553 300.215 306.117 299.908 305.807C299.605 305.496 299.145 305.341 298.528 305.341C297.888 305.341 297.386 305.481 297.022 305.761C296.658 306.042 296.403 306.341 296.255 306.659L294.982 306.205C295.21 305.674 295.513 305.261 295.891 304.966C296.274 304.667 296.691 304.458 297.141 304.341C297.596 304.22 298.043 304.159 298.482 304.159C298.763 304.159 299.085 304.193 299.448 304.261C299.816 304.326 300.17 304.46 300.511 304.665C300.855 304.869 301.141 305.178 301.369 305.591C301.596 306.004 301.71 306.557 301.71 307.25V313H300.369V311.818H300.3C300.21 312.008 300.058 312.21 299.846 312.426C299.634 312.642 299.352 312.826 298.999 312.977C298.647 313.129 298.217 313.205 297.71 313.205ZM297.914 312C298.444 312 298.891 311.896 299.255 311.688C299.622 311.479 299.899 311.21 300.085 310.881C300.274 310.551 300.369 310.205 300.369 309.841V308.614C300.312 308.682 300.187 308.744 299.994 308.801C299.804 308.854 299.585 308.902 299.335 308.943C299.088 308.981 298.848 309.015 298.613 309.045C298.382 309.072 298.194 309.095 298.05 309.114C297.702 309.159 297.376 309.233 297.073 309.335C296.774 309.434 296.531 309.583 296.346 309.784C296.164 309.981 296.073 310.25 296.073 310.591C296.073 311.057 296.246 311.409 296.59 311.648C296.939 311.883 297.38 312 297.914 312ZM303.384 313V311.75H303.702C303.964 311.75 304.182 311.699 304.356 311.597C304.53 311.491 304.67 311.307 304.776 311.045C304.886 310.78 304.969 310.413 305.026 309.943C305.087 309.47 305.13 308.867 305.157 308.136L305.316 304.273H311.134V313H309.793V305.523H306.589L306.452 308.636C306.422 309.352 306.358 309.983 306.259 310.528C306.165 311.07 306.019 311.525 305.822 311.892C305.629 312.259 305.371 312.536 305.049 312.722C304.727 312.907 304.324 313 303.839 313H303.384ZM314.935 311.023L319.14 304.273H320.685V313H319.344V306.25L315.163 313H313.594V304.273H314.935V311.023ZM322.369 313V311.75H322.687C322.948 311.75 323.166 311.699 323.34 311.597C323.514 311.491 323.655 311.307 323.761 311.045C323.871 310.78 323.954 310.413 324.011 309.943C324.071 309.47 324.115 308.867 324.141 308.136L324.3 304.273H330.119V313H328.778V305.523H325.573L325.437 308.636C325.406 309.352 325.342 309.983 325.244 310.528C325.149 311.07 325.003 311.525 324.806 311.892C324.613 312.259 324.355 312.536 324.033 312.722C323.711 312.907 323.308 313 322.823 313H322.369ZM333.92 311.023L338.124 304.273H339.67V313H338.329V306.25L334.147 313H332.579V304.273H333.92V311.023ZM344.126 311.409L344.035 312.023C343.97 312.455 343.872 312.917 343.739 313.409C343.611 313.902 343.476 314.366 343.336 314.801C343.196 315.237 343.08 315.583 342.989 315.841H341.967C342.016 315.598 342.08 315.278 342.16 314.881C342.239 314.483 342.319 314.038 342.398 313.545C342.482 313.057 342.55 312.557 342.603 312.045L342.671 311.409H344.126ZM352.451 311.023L356.656 304.273H358.201V313H356.86V306.25L352.678 313H351.11V304.273H352.451V311.023ZM359.884 313V311.75H360.202C360.464 311.75 360.682 311.699 360.856 311.597C361.03 311.491 361.17 311.307 361.276 311.045C361.386 310.78 361.469 310.413 361.526 309.943C361.587 309.47 361.63 308.867 361.657 308.136L361.816 304.273H367.634V313H366.293V305.523H363.089L362.952 308.636C362.922 309.352 362.858 309.983 362.759 310.528C362.665 311.07 362.519 311.525 362.322 311.892C362.129 312.259 361.871 312.536 361.549 312.722C361.227 312.907 360.824 313 360.339 313H359.884ZM371.435 311.023L375.64 304.273H377.185V313H375.844V306.25L371.663 313H370.094V304.273H371.435V311.023ZM116.993 332V323.273H120.561C121.5 323.273 122.247 323.485 122.8 323.909C123.353 324.333 123.629 324.894 123.629 325.591C123.629 326.121 123.472 326.532 123.158 326.824C122.843 327.112 122.44 327.307 121.947 327.409C122.269 327.455 122.582 327.568 122.885 327.75C123.192 327.932 123.446 328.182 123.646 328.5C123.847 328.814 123.947 329.201 123.947 329.659C123.947 330.106 123.834 330.506 123.607 330.858C123.379 331.21 123.054 331.489 122.629 331.693C122.205 331.898 121.697 332 121.107 332H116.993ZM118.266 330.773H121.107C121.569 330.773 121.93 330.663 122.192 330.443C122.453 330.223 122.584 329.924 122.584 329.545C122.584 329.095 122.453 328.741 122.192 328.483C121.93 328.222 121.569 328.091 121.107 328.091H118.266V330.773ZM118.266 326.932H120.561C120.921 326.932 121.23 326.883 121.487 326.784C121.745 326.682 121.942 326.538 122.078 326.352C122.218 326.163 122.288 325.939 122.288 325.682C122.288 325.314 122.135 325.027 121.828 324.818C121.521 324.606 121.099 324.5 120.561 324.5H118.266V326.932ZM130.477 332V323.273H134.045C134.985 323.273 135.731 323.485 136.284 323.909C136.837 324.333 137.114 324.894 137.114 325.591C137.114 326.121 136.956 326.532 136.642 326.824C136.328 327.112 135.924 327.307 135.432 327.409C135.754 327.455 136.066 327.568 136.369 327.75C136.676 327.932 136.93 328.182 137.131 328.5C137.331 328.814 137.432 329.201 137.432 329.659C137.432 330.106 137.318 330.506 137.091 330.858C136.864 331.21 136.538 331.489 136.114 331.693C135.689 331.898 135.182 332 134.591 332H130.477ZM131.75 330.773H134.591C135.053 330.773 135.415 330.663 135.676 330.443C135.938 330.223 136.068 329.924 136.068 329.545C136.068 329.095 135.938 328.741 135.676 328.483C135.415 328.222 135.053 328.091 134.591 328.091H131.75V330.773ZM131.75 326.932H134.045C134.405 326.932 134.714 326.883 134.972 326.784C135.229 326.682 135.426 326.538 135.562 326.352C135.703 326.163 135.773 325.939 135.773 325.682C135.773 325.314 135.619 325.027 135.312 324.818C135.006 324.606 134.583 324.5 134.045 324.5H131.75V326.932ZM142.03 332.205C141.477 332.205 140.975 332.1 140.524 331.892C140.073 331.68 139.715 331.375 139.45 330.977C139.185 330.576 139.053 330.091 139.053 329.523C139.053 329.023 139.151 328.617 139.348 328.307C139.545 327.992 139.808 327.746 140.138 327.568C140.467 327.39 140.831 327.258 141.229 327.17C141.63 327.08 142.034 327.008 142.439 326.955C142.969 326.886 143.399 326.835 143.729 326.801C144.062 326.763 144.304 326.701 144.456 326.614C144.611 326.527 144.689 326.375 144.689 326.159V326.114C144.689 325.553 144.536 325.117 144.229 324.807C143.926 324.496 143.465 324.341 142.848 324.341C142.208 324.341 141.706 324.481 141.342 324.761C140.979 325.042 140.723 325.341 140.575 325.659L139.303 325.205C139.53 324.674 139.833 324.261 140.212 323.966C140.594 323.667 141.011 323.458 141.462 323.341C141.916 323.22 142.363 323.159 142.803 323.159C143.083 323.159 143.405 323.193 143.768 323.261C144.136 323.326 144.49 323.46 144.831 323.665C145.176 323.869 145.462 324.178 145.689 324.591C145.916 325.004 146.03 325.557 146.03 326.25V332H144.689V330.818H144.621C144.53 331.008 144.378 331.21 144.166 331.426C143.954 331.642 143.672 331.826 143.32 331.977C142.967 332.129 142.537 332.205 142.03 332.205ZM142.234 331C142.765 331 143.212 330.896 143.575 330.688C143.943 330.479 144.219 330.21 144.405 329.881C144.594 329.551 144.689 329.205 144.689 328.841V327.614C144.632 327.682 144.507 327.744 144.314 327.801C144.125 327.854 143.905 327.902 143.655 327.943C143.409 327.981 143.168 328.015 142.933 328.045C142.702 328.072 142.515 328.095 142.371 328.114C142.022 328.159 141.696 328.233 141.393 328.335C141.094 328.434 140.852 328.583 140.666 328.784C140.484 328.981 140.393 329.25 140.393 329.591C140.393 330.057 140.566 330.409 140.911 330.648C141.259 330.883 141.7 331 142.234 331ZM148.477 323.273H149.818V330.75H153.114V323.273H154.455V330.75H157.75V323.273H159.091V332H148.477V323.273ZM165.199 332.182C164.358 332.182 163.633 331.996 163.023 331.625C162.417 331.25 161.949 330.727 161.619 330.057C161.294 329.383 161.131 328.598 161.131 327.705C161.131 326.811 161.294 326.023 161.619 325.341C161.949 324.655 162.407 324.121 162.994 323.739C163.585 323.352 164.275 323.159 165.062 323.159C165.517 323.159 165.966 323.235 166.409 323.386C166.852 323.538 167.256 323.784 167.619 324.125C167.983 324.462 168.273 324.909 168.489 325.466C168.705 326.023 168.812 326.708 168.812 327.523V328.091H162.085V326.932H167.449C167.449 326.439 167.35 326 167.153 325.614C166.96 325.227 166.684 324.922 166.324 324.699C165.968 324.475 165.547 324.364 165.062 324.364C164.528 324.364 164.066 324.496 163.676 324.761C163.29 325.023 162.992 325.364 162.784 325.784C162.576 326.205 162.472 326.655 162.472 327.136V327.909C162.472 328.568 162.585 329.127 162.812 329.585C163.044 330.04 163.364 330.386 163.773 330.625C164.182 330.86 164.657 330.977 165.199 330.977C165.551 330.977 165.869 330.928 166.153 330.83C166.441 330.727 166.689 330.576 166.898 330.375C167.106 330.17 167.267 329.917 167.381 329.614L168.676 329.977C168.54 330.417 168.311 330.803 167.989 331.136C167.667 331.466 167.269 331.723 166.795 331.909C166.322 332.091 165.79 332.182 165.199 332.182ZM172.193 330.023L176.398 323.273H177.943V332H176.602V325.25L172.42 332H170.852V323.273H172.193V330.023ZM175.511 320.364H176.761C176.761 320.977 176.549 321.479 176.125 321.869C175.701 322.259 175.125 322.455 174.398 322.455C173.682 322.455 173.112 322.259 172.688 321.869C172.267 321.479 172.057 320.977 172.057 320.364H173.307C173.307 320.659 173.388 320.919 173.551 321.142C173.718 321.366 174 321.477 174.398 321.477C174.795 321.477 175.08 321.366 175.25 321.142C175.424 320.919 175.511 320.659 175.511 320.364ZM188.445 332.182C187.626 332.182 186.922 331.989 186.331 331.602C185.74 331.216 185.286 330.684 184.967 330.006C184.649 329.328 184.49 328.553 184.49 327.682C184.49 326.795 184.653 326.013 184.979 325.335C185.308 324.653 185.767 324.121 186.354 323.739C186.945 323.352 187.634 323.159 188.422 323.159C189.036 323.159 189.589 323.273 190.081 323.5C190.573 323.727 190.977 324.045 191.291 324.455C191.606 324.864 191.801 325.341 191.876 325.886H190.536C190.433 325.489 190.206 325.136 189.854 324.83C189.505 324.519 189.036 324.364 188.445 324.364C187.922 324.364 187.464 324.5 187.07 324.773C186.679 325.042 186.375 325.422 186.155 325.915C185.939 326.403 185.831 326.977 185.831 327.636C185.831 328.311 185.937 328.898 186.149 329.398C186.365 329.898 186.668 330.286 187.058 330.562C187.452 330.839 187.914 330.977 188.445 330.977C188.793 330.977 189.109 330.917 189.393 330.795C189.678 330.674 189.918 330.5 190.115 330.273C190.312 330.045 190.452 329.773 190.536 329.455H191.876C191.801 329.97 191.613 330.434 191.314 330.847C191.018 331.256 190.626 331.581 190.138 331.824C189.653 332.062 189.089 332.182 188.445 332.182ZM197.382 332.182C196.564 332.182 195.859 331.989 195.268 331.602C194.678 331.216 194.223 330.684 193.905 330.006C193.587 329.328 193.428 328.553 193.428 327.682C193.428 326.795 193.59 326.013 193.916 325.335C194.246 324.653 194.704 324.121 195.291 323.739C195.882 323.352 196.571 323.159 197.359 323.159C197.973 323.159 198.526 323.273 199.018 323.5C199.511 323.727 199.914 324.045 200.229 324.455C200.543 324.864 200.738 325.341 200.814 325.886H199.473C199.371 325.489 199.143 325.136 198.791 324.83C198.443 324.519 197.973 324.364 197.382 324.364C196.859 324.364 196.401 324.5 196.007 324.773C195.617 325.042 195.312 325.422 195.092 325.915C194.876 326.403 194.768 326.977 194.768 327.636C194.768 328.311 194.875 328.898 195.087 329.398C195.303 329.898 195.606 330.286 195.996 330.562C196.39 330.839 196.852 330.977 197.382 330.977C197.731 330.977 198.047 330.917 198.331 330.795C198.615 330.674 198.856 330.5 199.053 330.273C199.25 330.045 199.39 329.773 199.473 329.455H200.814C200.738 329.97 200.551 330.434 200.251 330.847C199.956 331.256 199.564 331.581 199.075 331.824C198.59 332.062 198.026 332.182 197.382 332.182ZM203.933 326.432H206.433C207.456 326.432 208.238 326.691 208.78 327.21C209.321 327.729 209.592 328.386 209.592 329.182C209.592 329.705 209.471 330.18 209.229 330.608C208.986 331.032 208.63 331.371 208.161 331.625C207.691 331.875 207.115 332 206.433 332H202.774V323.273H204.115V330.75H206.433C206.964 330.75 207.399 330.61 207.74 330.33C208.081 330.049 208.251 329.689 208.251 329.25C208.251 328.788 208.081 328.411 207.74 328.119C207.399 327.828 206.964 327.682 206.433 327.682H203.933V326.432ZM210.979 332V323.273H212.32V332H210.979ZM214.001 332V330.75H214.32C214.581 330.75 214.799 330.699 214.973 330.597C215.147 330.491 215.287 330.307 215.393 330.045C215.503 329.78 215.587 329.413 215.643 328.943C215.704 328.47 215.748 327.867 215.774 327.136L215.933 323.273H221.751V332H220.411V324.523H217.206L217.07 327.636C217.039 328.352 216.975 328.983 216.876 329.528C216.782 330.07 216.636 330.525 216.439 330.892C216.246 331.259 215.988 331.536 215.666 331.722C215.344 331.907 214.941 332 214.456 332H214.001ZM224.212 332V323.273H225.553V327.068H226.439L229.575 323.273H231.303L227.78 327.477L231.348 332H229.621L226.757 328.318H225.553V332H224.212ZM236.105 332.182C235.264 332.182 234.539 331.996 233.929 331.625C233.323 331.25 232.855 330.727 232.526 330.057C232.2 329.383 232.037 328.598 232.037 327.705C232.037 326.811 232.2 326.023 232.526 325.341C232.855 324.655 233.313 324.121 233.901 323.739C234.491 323.352 235.181 323.159 235.969 323.159C236.423 323.159 236.872 323.235 237.315 323.386C237.759 323.538 238.162 323.784 238.526 324.125C238.889 324.462 239.179 324.909 239.395 325.466C239.611 326.023 239.719 326.708 239.719 327.523V328.091H232.991V326.932H238.355C238.355 326.439 238.257 326 238.06 325.614C237.866 325.227 237.59 324.922 237.23 324.699C236.874 324.475 236.454 324.364 235.969 324.364C235.435 324.364 234.973 324.496 234.582 324.761C234.196 325.023 233.899 325.364 233.69 325.784C233.482 326.205 233.378 326.655 233.378 327.136V327.909C233.378 328.568 233.491 329.127 233.719 329.585C233.95 330.04 234.27 330.386 234.679 330.625C235.088 330.86 235.563 330.977 236.105 330.977C236.457 330.977 236.776 330.928 237.06 330.83C237.348 330.727 237.596 330.576 237.804 330.375C238.012 330.17 238.173 329.917 238.287 329.614L239.582 329.977C239.446 330.417 239.217 330.803 238.895 331.136C238.573 331.466 238.175 331.723 237.702 331.909C237.228 332.091 236.696 332.182 236.105 332.182ZM249.804 332.182C249.016 332.182 248.325 331.994 247.73 331.619C247.139 331.244 246.677 330.72 246.344 330.045C246.014 329.371 245.849 328.583 245.849 327.682C245.849 326.773 246.014 325.979 246.344 325.301C246.677 324.623 247.139 324.097 247.73 323.722C248.325 323.347 249.016 323.159 249.804 323.159C250.592 323.159 251.281 323.347 251.872 323.722C252.467 324.097 252.929 324.623 253.259 325.301C253.592 325.979 253.759 326.773 253.759 327.682C253.759 328.583 253.592 329.371 253.259 330.045C252.929 330.72 252.467 331.244 251.872 331.619C251.281 331.994 250.592 332.182 249.804 332.182ZM249.804 330.977C250.402 330.977 250.895 330.824 251.281 330.517C251.668 330.21 251.954 329.807 252.139 329.307C252.325 328.807 252.418 328.265 252.418 327.682C252.418 327.098 252.325 326.555 252.139 326.051C251.954 325.547 251.668 325.14 251.281 324.83C250.895 324.519 250.402 324.364 249.804 324.364C249.205 324.364 248.713 324.519 248.327 324.83C247.94 325.14 247.654 325.547 247.469 326.051C247.283 326.555 247.19 327.098 247.19 327.682C247.19 328.265 247.283 328.807 247.469 329.307C247.654 329.807 247.94 330.21 248.327 330.517C248.713 330.824 249.205 330.977 249.804 330.977ZM255.805 323.273H257.146V330.75H260.442V323.273H261.783V330.75H265.078V323.273H266.419V332H255.805V323.273ZM270.209 330.023L274.413 323.273H275.959V332H274.618V325.25L270.436 332H268.868V323.273H270.209V330.023ZM284.892 320L285.574 320.818C285.309 321.076 285.002 321.256 284.653 321.358C284.305 321.46 283.911 321.523 283.472 321.545C283.032 321.568 282.544 321.591 282.006 321.614C281.4 321.636 280.898 321.784 280.5 322.057C280.102 322.33 279.795 322.723 279.58 323.239C279.364 323.754 279.225 324.386 279.165 325.136H279.278C279.574 324.591 279.983 324.189 280.506 323.932C281.028 323.674 281.589 323.545 282.188 323.545C282.869 323.545 283.483 323.705 284.028 324.023C284.574 324.341 285.006 324.812 285.324 325.438C285.642 326.062 285.801 326.833 285.801 327.75C285.801 328.663 285.638 329.451 285.312 330.114C284.991 330.777 284.538 331.288 283.955 331.648C283.375 332.004 282.695 332.182 281.915 332.182C281.134 332.182 280.451 331.998 279.864 331.631C279.277 331.259 278.82 330.71 278.494 329.983C278.169 329.252 278.006 328.348 278.006 327.273V326.341C278.006 324.398 278.335 322.924 278.994 321.92C279.657 320.917 280.653 320.398 281.983 320.364C282.453 320.348 282.871 320.345 283.239 320.352C283.606 320.36 283.926 320.343 284.199 320.301C284.472 320.259 284.703 320.159 284.892 320ZM281.915 330.977C282.441 330.977 282.894 330.845 283.273 330.58C283.655 330.314 283.949 329.941 284.153 329.46C284.358 328.975 284.46 328.405 284.46 327.75C284.46 327.114 284.356 326.572 284.148 326.125C283.943 325.678 283.65 325.337 283.267 325.102C282.884 324.867 282.426 324.75 281.892 324.75C281.502 324.75 281.152 324.816 280.841 324.949C280.53 325.081 280.265 325.277 280.045 325.534C279.826 325.792 279.655 326.106 279.534 326.477C279.417 326.848 279.354 327.273 279.347 327.75C279.347 328.727 279.576 329.509 280.034 330.097C280.492 330.684 281.119 330.977 281.915 330.977ZM287.852 332V323.273H289.193V327.068H290.08L293.216 323.273H294.943L291.42 327.477L294.989 332H293.261L290.398 328.318H289.193V332H287.852ZM299.014 332.205C298.461 332.205 297.959 332.1 297.509 331.892C297.058 331.68 296.7 331.375 296.435 330.977C296.17 330.576 296.037 330.091 296.037 329.523C296.037 329.023 296.135 328.617 296.332 328.307C296.529 327.992 296.793 327.746 297.122 327.568C297.452 327.39 297.815 327.258 298.213 327.17C298.615 327.08 299.018 327.008 299.423 326.955C299.954 326.886 300.384 326.835 300.713 326.801C301.046 326.763 301.289 326.701 301.44 326.614C301.596 326.527 301.673 326.375 301.673 326.159V326.114C301.673 325.553 301.52 325.117 301.213 324.807C300.91 324.496 300.45 324.341 299.832 324.341C299.192 324.341 298.69 324.481 298.327 324.761C297.963 325.042 297.707 325.341 297.56 325.659L296.287 325.205C296.514 324.674 296.817 324.261 297.196 323.966C297.579 323.667 297.995 323.458 298.446 323.341C298.901 323.22 299.348 323.159 299.787 323.159C300.067 323.159 300.389 323.193 300.753 323.261C301.12 323.326 301.474 323.46 301.815 323.665C302.16 323.869 302.446 324.178 302.673 324.591C302.901 325.004 303.014 325.557 303.014 326.25V332H301.673V330.818H301.605C301.514 331.008 301.363 331.21 301.151 331.426C300.938 331.642 300.656 331.826 300.304 331.977C299.952 332.129 299.522 332.205 299.014 332.205ZM299.219 331C299.749 331 300.196 330.896 300.56 330.688C300.927 330.479 301.204 330.21 301.389 329.881C301.579 329.551 301.673 329.205 301.673 328.841V327.614C301.616 327.682 301.491 327.744 301.298 327.801C301.109 327.854 300.889 327.902 300.639 327.943C300.393 327.981 300.152 328.015 299.918 328.045C299.687 328.072 299.499 328.095 299.355 328.114C299.007 328.159 298.681 328.233 298.378 328.335C298.079 328.434 297.836 328.583 297.651 328.784C297.469 328.981 297.378 329.25 297.378 329.591C297.378 330.057 297.55 330.409 297.895 330.648C298.243 330.883 298.685 331 299.219 331Z" fill="#33434D" fill-opacity="0.5"/>
</svg>
