<svg width="420" height="336" viewBox="0 0 420 336" fill="none" xmlns="http://www.w3.org/2000/svg">
<path fill-rule="evenodd" clip-rule="evenodd" d="M405.5 35C406.881 35 408 33.8807 408 32.5C408 31.1193 406.881 30 405.5 30C404.119 30 403 31.1193 403 32.5C403 33.8807 404.119 35 405.5 35ZM405.5 34C406.328 34 407 33.3284 407 32.5C407 31.6716 406.328 31 405.5 31C404.672 31 404 31.6716 404 32.5C404 33.3284 404.672 34 405.5 34Z" fill="#002033"/>
<path fill-rule="evenodd" clip-rule="evenodd" d="M14.9317 49.2815C14.5001 51.729 12.1661 53.3632 9.7186 52.9317C7.27108 52.5001 5.63682 50.1661 6.06839 47.7186C6.49995 45.2711 8.83391 43.6368 11.2814 44.0684C13.729 44.5 15.3632 46.8339 14.9317 49.2815ZM9.92079 48.9056L10.4417 45.9512L11.4265 46.1248L10.9056 49.0793L9.92079 48.9056ZM10.732 50.0641L9.74714 49.8904L9.5735 50.8752L10.5583 51.0489L10.732 50.0641Z" fill="#002033"/>
<path fill-rule="evenodd" clip-rule="evenodd" d="M26.0628 146C26.119 147.011 26.2119 148.011 26.3409 149H26C26.1806 173.209 47.2031 192 79 192C111.158 192 132 172.364 132 144C132 143.146 131.982 142.304 131.946 141.472C131.982 140.656 132 139.832 132 139C132 112.081 114.125 96 91 96C77.0119 96 67.6248 102.496 63.0132 110.976L63 111H61.5172L64 87H125V53H34L28 131H28.3846L28 136H61C64.0713 129.948 70.8701 126 79 126C88.3235 126 94.9003 131.774 95.8747 141.446C94.8537 151.251 87.6917 158 78 158C69.1474 158 62.4453 152.762 61 144H26C26.005 144.671 26.026 145.338 26.0628 146ZM64.1903 113H58.7824L62.1962 80H123V55H35.852L30.1597 129H59.82C63.51 122.814 70.7184 119 79 119C84.5189 119 89.3181 120.865 92.7345 124.412C96.1455 127.954 98 132.987 98 139C98 151.116 89.6802 160 78 160C73.176 160 68.8259 158.569 65.4619 155.839C62.4886 153.425 60.3742 150.068 59.3701 146H28.0666C29.3533 167.85 48.8846 185 79 185C94.6734 185 107.411 180.22 116.208 172.162C124.992 164.117 130 152.668 130 139C130 125.997 125.693 115.779 118.755 108.817C111.812 101.85 102.092 98 91 98C77.6854 98 68.9934 104.147 64.7579 111.954L64.1903 113Z" fill="#002033"/>
<path d="M208.188 104.524C207.054 103.769 207.008 102.119 208.099 101.301L209.3 100.4C209.521 100.234 209.566 99.9209 209.4 99.7C209.234 99.4791 208.921 99.4343 208.7 99.6L207.499 100.501C205.857 101.733 205.925 104.218 207.633 105.357L207.723 105.416C208.853 106.17 208.853 107.83 207.723 108.584C205.999 109.733 205.999 112.267 207.723 113.416C208.853 114.17 208.853 115.83 207.723 116.584C205.999 117.733 205.999 120.267 207.723 121.416C208.853 122.17 208.853 123.83 207.723 124.584C205.999 125.733 205.999 128.267 207.723 129.416C208.853 130.17 208.853 131.83 207.723 132.584C205.999 133.733 205.999 136.267 207.723 137.416L207.812 137.475C208.946 138.231 208.992 139.881 207.901 140.699L206.7 141.6C206.479 141.766 206.434 142.079 206.6 142.3C206.766 142.521 207.079 142.566 207.3 142.4L208.501 141.499C210.143 140.267 210.074 137.782 208.367 136.643L208.277 136.584C207.147 135.83 207.147 134.17 208.277 133.416C210.001 132.267 210.001 129.733 208.277 128.584C207.147 127.83 207.147 126.17 208.277 125.416C210.001 124.267 210.001 121.733 208.277 120.584C207.147 119.83 207.147 118.17 208.277 117.416C210.001 116.267 210.001 113.733 208.277 112.584C207.147 111.83 207.147 110.17 208.277 109.416C210.001 108.267 210.001 105.733 208.277 104.584L208.188 104.524Z" fill="#002033"/>
<path fill-rule="evenodd" clip-rule="evenodd" d="M193.186 148.431C189.847 141.174 188 130.597 188 117C188 103.455 189.845 93.3481 193.211 86.5517C196.622 79.6636 201.719 76 208 76C214.281 76 219.378 79.6636 222.789 86.5517C226.155 93.3481 228 103.455 228 117C228 130.597 226.153 141.174 222.814 148.431C219.466 155.707 214.408 160 208 160C201.592 160 196.534 155.707 193.186 148.431ZM208 158C197.677 158 190.466 144.793 190.022 119.507C190.466 94.4163 197.677 83 208 83C218.323 83 225.534 94.4163 225.978 119.507C225.534 144.792 218.323 158 208 158Z" fill="#002033"/>
<path fill-rule="evenodd" clip-rule="evenodd" d="M151 117C151 117.842 151.008 118.677 151.025 119.506C151.008 120.33 151 121.162 151 122C151 165.179 172.77 192 208 192C243.139 192 265 165.088 265 122C265 121.16 264.992 120.327 264.975 119.501L264.975 119.506C264.992 118.677 265 117.842 265 117C265 73.731 242.958 49 208 49C173.041 49 151 73.731 151 117ZM263 117C263 95.6845 257.571 79.1974 248.087 68.0715C238.638 56.9852 224.976 51 208 51C191.024 51 177.362 56.9852 167.913 68.0715C158.429 79.1974 153 95.6845 153 117C153 138.276 158.365 155.283 167.84 166.93C177.277 178.529 190.939 185 208 185C225.013 185 238.676 178.509 248.126 166.896C257.614 155.236 263 138.228 263 117Z" fill="#002033"/>
<path fill-rule="evenodd" clip-rule="evenodd" d="M351 107.5C351 108.881 349.881 110 348.5 110C347.119 110 346 108.881 346 107.5C346 106.119 347.119 105 348.5 105C349.881 105 351 106.119 351 107.5ZM350 107.5C350 108.328 349.328 109 348.5 109C347.672 109 347 108.328 347 107.5C347 106.672 347.672 106 348.5 106C349.328 106 350 106.672 350 107.5Z" fill="#002033"/>
<path fill-rule="evenodd" clip-rule="evenodd" d="M328.711 148.484C325.105 141.219 323 130.627 323 117C323 103.424 325.103 93.3012 328.739 86.4968C332.412 79.6217 337.755 76 344 76C350.281 76 355.378 79.6636 358.789 86.5517C362.155 93.3481 364 103.455 364 117C364 130.597 362.153 141.174 358.814 148.431C355.466 155.707 350.408 160 344 160C337.631 160 332.321 155.756 328.711 148.484ZM344 158C354.323 158 361.534 144.793 361.978 119.507C361.534 94.4163 354.323 83 344 83C333.677 83 325.528 94.4163 325.025 119.507C325.528 144.792 333.677 158 344 158Z" fill="#002033"/>
<path fill-rule="evenodd" clip-rule="evenodd" d="M401 117C401 117.84 400.992 118.674 400.975 119.501C400.992 120.327 401 121.16 401 122C401 165.088 379.139 192 344 192C308.77 192 286 165.179 286 122C286 121.162 286.009 120.33 286.026 119.506C286.009 118.677 286 117.842 286 117C286 73.731 309.041 49 344 49C378.958 49 401 73.731 401 117ZM399 117C399 95.6845 393.571 79.1974 384.087 68.0715C374.638 56.9852 360.976 51 344 51C327.02 51 313.098 56.989 303.396 68.0902C293.668 79.2216 288 95.7056 288 117C288 138.255 293.604 155.259 303.325 166.911C313.013 178.525 326.934 185 344 185C361.013 185 374.676 178.509 384.126 166.896C393.614 155.236 399 138.228 399 117Z" fill="#002033"/>
<path fill-rule="evenodd" clip-rule="evenodd" d="M294.719 60.9317C297.166 61.3632 299.5 59.729 299.932 57.2815C300.363 54.8339 298.729 52.5 296.281 52.0684C293.834 51.6368 291.5 53.2711 291.068 55.7186C290.637 58.1661 292.271 60.5001 294.719 60.9317ZM295.442 53.9512L294.921 56.9056L295.906 57.0793L296.427 54.1248L295.442 53.9512ZM294.747 57.8904L295.732 58.0641L295.558 59.0489L294.574 58.8752L294.747 57.8904Z" fill="#002033"/>
<path fill-rule="evenodd" clip-rule="evenodd" d="M401.932 196.719C402.363 199.166 400.729 201.5 398.281 201.932C395.834 202.363 393.5 200.729 393.068 198.281C392.637 195.834 394.271 193.5 396.719 193.068C399.166 192.637 401.5 194.271 401.932 196.719ZM397.094 198.079L396.574 195.125L397.558 194.951L398.079 197.906L397.094 198.079ZM398.253 198.89L397.268 199.064L397.442 200.049L398.427 199.875L398.253 198.89Z" fill="#002033"/>
<path fill-rule="evenodd" clip-rule="evenodd" d="M150.281 179.932C152.729 179.5 154.363 177.166 153.932 174.719C153.5 172.271 151.166 170.637 148.719 171.068C146.271 171.5 144.637 173.834 145.068 176.281C145.5 178.729 147.834 180.363 150.281 179.932ZM148.574 173.125L149.094 176.079L150.079 175.906L149.558 172.951L148.574 173.125ZM149.268 177.064L150.253 176.89L150.427 177.875L149.442 178.049L149.268 177.064Z" fill="#002033"/>
<path fill-rule="evenodd" clip-rule="evenodd" d="M132 99.5C132 100.881 130.881 102 129.5 102C128.119 102 127 100.881 127 99.5C127 98.1193 128.119 97 129.5 97C130.881 97 132 98.1193 132 99.5ZM131 99.5C131 100.328 130.328 101 129.5 101C128.672 101 128 100.328 128 99.5C128 98.6716 128.672 98 129.5 98C130.328 98 131 98.6716 131 99.5Z" fill="#002033"/>
<path fill-rule="evenodd" clip-rule="evenodd" d="M303.5 196C304.881 196 306 194.881 306 193.5C306 192.119 304.881 191 303.5 191C302.119 191 301 192.119 301 193.5C301 194.881 302.119 196 303.5 196ZM303.5 195C304.328 195 305 194.328 305 193.5C305 192.672 304.328 192 303.5 192C302.672 192 302 192.672 302 193.5C302 194.328 302.672 195 303.5 195Z" fill="#002033"/>
<path fill-rule="evenodd" clip-rule="evenodd" d="M194 40.5C194 41.8807 192.881 43 191.5 43C190.119 43 189 41.8807 189 40.5C189 39.1193 190.119 38 191.5 38C192.881 38 194 39.1193 194 40.5ZM193 40.5C193 41.3284 192.328 42 191.5 42C190.672 42 190 41.3284 190 40.5C190 39.6716 190.672 39 191.5 39C192.328 39 193 39.6716 193 40.5Z" fill="#002033"/>
<path fill-rule="evenodd" clip-rule="evenodd" d="M15.4999 191C16.8806 191 17.9999 189.881 17.9999 188.5C17.9999 187.119 16.8806 186 15.4999 186C14.1192 186 12.9999 187.119 12.9999 188.5C12.9999 189.881 14.1192 191 15.4999 191ZM15.4999 190C16.3283 190 16.9999 189.328 16.9999 188.5C16.9999 187.672 16.3283 187 15.4999 187C14.6715 187 13.9999 187.672 13.9999 188.5C13.9999 189.328 14.6715 190 15.4999 190Z" fill="#002033"/>
<path d="M118.475 36.1881C119.231 35.0543 120.881 35.0085 121.699 36.0987L122.6 37.3C122.766 37.5209 123.079 37.5657 123.3 37.4C123.521 37.2343 123.566 36.9209 123.4 36.7L122.499 35.4987C121.267 33.8565 118.782 33.9255 117.643 35.6334L117.584 35.7226C116.83 36.8529 115.17 36.8529 114.416 35.7226C113.267 33.9986 110.733 33.9986 109.584 35.7226C108.83 36.8529 107.17 36.8529 106.416 35.7226C105.267 33.9986 102.733 33.9986 101.584 35.7226C100.83 36.8529 99.1695 36.8529 98.416 35.7226C97.2666 33.9986 94.7333 33.9986 93.584 35.7226C92.8304 36.8529 91.1695 36.8529 90.416 35.7226C89.2667 33.9986 86.7333 33.9986 85.584 35.7226L85.5245 35.8118C84.7686 36.9457 83.1186 36.9915 82.3009 35.9013L81.4 34.7C81.2343 34.4791 80.9209 34.4343 80.7 34.6C80.4791 34.7657 80.4343 35.0791 80.6 35.3L81.501 36.5013C82.7326 38.1434 85.2179 38.0745 86.3566 36.3665L86.416 36.2773C87.1695 35.147 88.8304 35.147 89.584 36.2773C90.7333 38.0013 93.2667 38.0013 94.416 36.2773C95.1695 35.147 96.8304 35.147 97.584 36.2773C98.7333 38.0013 101.267 38.0013 102.416 36.2773C103.17 35.147 104.83 35.147 105.584 36.2773C106.733 38.0013 109.267 38.0013 110.416 36.2773C111.17 35.147 112.83 35.147 113.584 36.2773C114.733 38.0013 117.267 38.0013 118.416 36.2773L118.475 36.1881Z" fill="#002033"/>
<path d="M365.699 202.099C364.881 201.008 363.231 201.054 362.476 202.188L362.416 202.277C361.267 204.001 358.733 204.001 357.584 202.277C356.831 201.147 355.17 201.147 354.416 202.277C353.267 204.001 350.733 204.001 349.584 202.277C348.831 201.147 347.17 201.147 346.416 202.277C345.267 204.001 342.733 204.001 341.584 202.277C340.831 201.147 339.17 201.147 338.416 202.277C337.267 204.001 334.733 204.001 333.584 202.277C332.831 201.147 331.17 201.147 330.416 202.277L330.357 202.367C329.218 204.074 326.733 204.143 325.501 202.501L324.6 201.3C324.434 201.079 324.479 200.766 324.7 200.6C324.921 200.434 325.234 200.479 325.4 200.7L326.301 201.901C327.119 202.991 328.769 202.946 329.525 201.812L329.584 201.723C330.733 199.999 333.267 199.999 334.416 201.723C335.17 202.853 336.831 202.853 337.584 201.723C338.733 199.999 341.267 199.999 342.416 201.723C343.17 202.853 344.831 202.853 345.584 201.723C346.733 199.999 349.267 199.999 350.416 201.723C351.17 202.853 352.831 202.853 353.584 201.723C354.733 199.999 357.267 199.999 358.416 201.723C359.17 202.853 360.831 202.853 361.584 201.723L361.643 201.633C362.782 199.925 365.267 199.856 366.499 201.499L367.4 202.7C367.566 202.921 367.521 203.234 367.3 203.4C367.079 203.566 366.766 203.521 366.6 203.3L365.699 202.099Z" fill="#002033"/>
<path d="M13.5295 91.5946C12.4609 90.7488 12.5497 89.1006 13.7029 88.3744L14.9736 87.5743C15.2072 87.4272 15.2774 87.1185 15.1303 86.8848C14.9831 86.6511 14.6744 86.581 14.4407 86.7281L13.17 87.5282C11.433 88.622 11.2993 91.1047 12.9088 92.3787L12.9929 92.4452C14.058 93.2883 13.9227 94.9437 12.7348 95.6026C10.9229 96.6077 10.7165 99.1326 12.3412 100.419C13.4064 101.262 13.2711 102.917 12.0832 103.576C10.2712 104.581 10.0649 107.106 11.6896 108.392C12.7547 109.235 12.6194 110.89 11.4315 111.549C9.61959 112.555 9.41323 115.079 11.0379 116.365C12.1031 117.209 11.9678 118.864 10.7798 119.523C8.96793 120.528 8.76157 123.053 10.3862 124.339L10.4703 124.405C11.5388 125.251 11.4501 126.899 10.2969 127.625L9.02618 128.426C8.7925 128.573 8.72235 128.881 8.86949 129.115C9.01663 129.349 9.32534 129.419 9.55902 129.272L10.8297 128.472C12.5668 127.378 12.7005 124.895 11.0909 123.621L11.0069 123.555C9.94172 122.712 10.077 121.056 11.2649 120.397C13.0768 119.392 13.2832 116.867 11.6585 115.581C10.5934 114.738 10.7287 113.083 11.9166 112.424C13.7285 111.419 13.9349 108.894 12.3102 107.608C11.245 106.765 11.3803 105.109 12.5682 104.45C14.3802 103.445 14.5865 100.92 12.9618 99.6345C11.8967 98.7914 12.032 97.136 13.2199 96.4771C15.0318 95.472 15.2382 92.947 13.6135 91.6611L13.5295 91.5946Z" fill="#002033"/>
<path d="M409.859 62.9991C410.052 61.65 408.853 60.5157 407.517 60.783L407.412 60.804C405.38 61.2104 403.589 59.419 403.995 57.3872C404.261 56.0552 403.087 54.8807 401.755 55.1471C399.723 55.5535 397.932 53.7621 398.338 51.7304C398.604 50.3983 397.43 49.2239 396.098 49.4903C394.066 49.8966 392.275 48.1053 392.681 46.0735C392.948 44.7415 391.773 43.567 390.441 43.8334C388.409 44.2398 386.618 42.4484 387.024 40.4167C387.291 39.0846 386.116 37.9102 384.784 38.1766L384.679 38.1976C382.666 38.6002 380.86 36.8916 381.15 34.8595L381.363 33.3729C381.402 33.0996 381.655 32.9096 381.928 32.9487C382.202 32.9877 382.392 33.241 382.353 33.5144L382.14 35.0009C381.948 36.35 383.147 37.4843 384.483 37.217L384.588 37.196C386.62 36.7896 388.411 38.581 388.005 40.6128C387.738 41.9448 388.913 43.1193 390.245 42.8529C392.277 42.4465 394.068 44.2378 393.662 46.2696C393.395 47.6017 394.57 48.7761 395.902 48.5097C397.934 48.1033 399.725 49.8947 399.319 51.9265C399.052 53.2585 400.227 54.433 401.559 54.1666C403.59 53.7602 405.382 55.5516 404.975 57.5833C404.709 58.9154 405.883 60.0898 407.216 59.8234L407.321 59.8024C409.333 59.3998 411.14 61.1084 410.849 63.1405L410.637 64.6271C410.598 64.9004 410.345 65.0904 410.071 65.0513C409.798 65.0123 409.608 64.759 409.647 64.4856L409.859 62.9991Z" fill="#002033"/>
<path d="M279.5 90.3074V86C279.5 85.7239 279.724 85.5 280 85.5C280.276 85.5 280.5 85.7239 280.5 86V90.3074C280.5 92.1381 279.385 93.7843 277.686 94.4642C276.366 94.9923 275.5 96.2708 275.5 97.6926V102C275.5 102.276 275.276 102.5 275 102.5C274.724 102.5 274.5 102.276 274.5 102V97.6926C274.5 95.8619 275.615 94.2157 277.314 93.5358C278.634 93.0077 279.5 91.7292 279.5 90.3074Z" fill="#002033"/>
<path d="M49.1349 204.896L45.1522 203.256C43.8376 202.714 42.9852 201.427 42.9998 200.005C43.0186 198.175 41.921 196.517 40.2284 195.82L36.2457 194.179C35.9903 194.074 35.6981 194.195 35.5929 194.451C35.4877 194.706 35.6094 194.998 35.8648 195.104L39.8474 196.744C41.162 197.286 42.0145 198.573 41.9999 199.995C41.9811 201.825 43.0787 203.483 44.7713 204.18L48.754 205.821C49.0093 205.926 49.3016 205.805 49.4068 205.549C49.512 205.294 49.3903 205.002 49.1349 204.896Z" fill="#002033"/>
<path d="M415.5 145.307V141C415.5 140.724 415.724 140.5 416 140.5C416.276 140.5 416.5 140.724 416.5 141V145.307C416.5 147.138 415.385 148.784 413.686 149.464C412.366 149.992 411.5 151.271 411.5 152.693V157C411.5 157.276 411.276 157.5 411 157.5C410.724 157.5 410.5 157.276 410.5 157V152.693C410.5 150.862 411.615 149.216 413.314 148.536C414.634 148.008 415.5 146.729 415.5 145.307Z" fill="#002033"/>
<path d="M245.135 192.57C246.483 192.118 247.42 190.891 247.501 189.472C247.605 187.644 248.811 186.064 250.547 185.482L254.631 184.112C254.893 184.024 255.176 184.165 255.264 184.427C255.352 184.689 255.211 184.972 254.949 185.06L250.865 186.43C249.517 186.882 248.58 188.109 248.499 189.528C248.395 191.356 247.189 192.936 245.453 193.518L241.369 194.888C241.107 194.976 240.824 194.835 240.736 194.573C240.648 194.311 240.789 194.028 241.051 193.94L245.135 192.57Z" fill="#002033"/>
<path d="M101.839 266.545H104.933V272.239C104.933 272.977 105.061 273.562 105.316 273.994C105.578 274.426 105.964 274.736 106.475 274.923C106.987 275.111 107.623 275.205 108.385 275.205C108.725 275.205 109.092 275.193 109.484 275.17C109.882 275.142 110.282 275.105 110.686 275.06C111.089 275.009 111.475 274.949 111.845 274.881C112.214 274.807 112.544 274.727 112.833 274.642V277.216C112.544 277.307 112.22 277.389 111.862 277.463C111.504 277.537 111.126 277.599 110.728 277.651C110.331 277.702 109.933 277.741 109.535 277.77C109.137 277.798 108.754 277.812 108.385 277.812C107.049 277.812 105.89 277.622 104.907 277.241C103.93 276.855 103.174 276.253 102.64 275.435C102.106 274.616 101.839 273.551 101.839 272.239V266.545ZM112.314 266.545H115.424V284H112.314V266.545ZM118.42 273.44V270.909H129.875V273.44H125.639V284H122.656V273.44H118.42ZM137.502 284.256C136.224 284.256 135.116 283.974 134.179 283.412C133.241 282.849 132.514 282.062 131.997 281.051C131.485 280.04 131.23 278.858 131.23 277.506C131.23 276.153 131.485 274.969 131.997 273.952C132.514 272.935 133.241 272.145 134.179 271.582C135.116 271.02 136.224 270.739 137.502 270.739C138.781 270.739 139.889 271.02 140.826 271.582C141.764 272.145 142.488 272.935 143 273.952C143.517 274.969 143.775 276.153 143.775 277.506C143.775 278.858 143.517 280.04 143 281.051C142.488 282.062 141.764 282.849 140.826 283.412C139.889 283.974 138.781 284.256 137.502 284.256ZM137.52 281.784C138.213 281.784 138.792 281.594 139.258 281.213C139.724 280.827 140.071 280.31 140.298 279.662C140.531 279.014 140.647 278.293 140.647 277.497C140.647 276.696 140.531 275.972 140.298 275.324C140.071 274.67 139.724 274.151 139.258 273.764C138.792 273.378 138.213 273.185 137.52 273.185C136.809 273.185 136.218 273.378 135.747 273.764C135.281 274.151 134.931 274.67 134.699 275.324C134.471 275.972 134.358 276.696 134.358 277.497C134.358 278.293 134.471 279.014 134.699 279.662C134.931 280.31 135.281 280.827 135.747 281.213C136.218 281.594 136.809 281.784 137.52 281.784ZM154.328 275.46V278H146.471V275.46H154.328ZM156.459 273.44V270.909H167.914V273.44H163.678V284H160.695V273.44H156.459ZM175.542 284.256C174.263 284.256 173.155 283.974 172.218 283.412C171.28 282.849 170.553 282.062 170.036 281.051C169.525 280.04 169.269 278.858 169.269 277.506C169.269 276.153 169.525 274.969 170.036 273.952C170.553 272.935 171.28 272.145 172.218 271.582C173.155 271.02 174.263 270.739 175.542 270.739C176.82 270.739 177.928 271.02 178.865 271.582C179.803 272.145 180.527 272.935 181.039 273.952C181.556 274.969 181.814 276.153 181.814 277.506C181.814 278.858 181.556 280.04 181.039 281.051C180.527 282.062 179.803 282.849 178.865 283.412C177.928 283.974 176.82 284.256 175.542 284.256ZM175.559 281.784C176.252 281.784 176.831 281.594 177.297 281.213C177.763 280.827 178.11 280.31 178.337 279.662C178.57 279.014 178.686 278.293 178.686 277.497C178.686 276.696 178.57 275.972 178.337 275.324C178.11 274.67 177.763 274.151 177.297 273.764C176.831 273.378 176.252 273.185 175.559 273.185C174.848 273.185 174.257 273.378 173.786 273.764C173.32 274.151 172.971 274.67 172.738 275.324C172.51 275.972 172.397 276.696 172.397 277.497C172.397 278.293 172.51 279.014 172.738 279.662C172.971 280.31 173.32 280.827 173.786 281.213C174.257 281.594 174.848 281.784 175.559 281.784ZM196.096 284.256C194.789 284.256 193.667 283.969 192.73 283.395C191.798 282.821 191.079 282.028 190.574 281.017C190.074 280 189.824 278.83 189.824 277.506C189.824 276.176 190.079 275.003 190.591 273.986C191.102 272.963 191.824 272.168 192.755 271.599C193.693 271.026 194.801 270.739 196.079 270.739C197.142 270.739 198.082 270.935 198.9 271.327C199.724 271.713 200.38 272.261 200.869 272.972C201.358 273.676 201.636 274.5 201.704 275.443H198.755C198.636 274.812 198.352 274.287 197.903 273.866C197.46 273.44 196.866 273.227 196.122 273.227C195.491 273.227 194.937 273.398 194.46 273.739C193.983 274.074 193.61 274.557 193.343 275.188C193.082 275.818 192.951 276.574 192.951 277.455C192.951 278.347 193.082 279.114 193.343 279.756C193.605 280.392 193.971 280.884 194.443 281.23C194.92 281.571 195.48 281.741 196.122 281.741C196.576 281.741 196.983 281.656 197.341 281.486C197.704 281.31 198.008 281.057 198.252 280.727C198.497 280.398 198.664 279.997 198.755 279.526H201.704C201.63 280.452 201.358 281.273 200.886 281.989C200.414 282.699 199.772 283.256 198.96 283.659C198.147 284.057 197.193 284.256 196.096 284.256ZM203.334 284L203.317 281.46H203.769C204.11 281.46 204.397 281.384 204.63 281.23C204.863 281.077 205.056 280.821 205.209 280.463C205.363 280.099 205.482 279.611 205.567 278.997C205.652 278.384 205.712 277.619 205.746 276.705L205.976 270.909H215.522V284H212.539V273.44H208.78L208.576 277.659C208.525 278.75 208.402 279.696 208.209 280.497C208.022 281.293 207.755 281.949 207.408 282.466C207.067 282.983 206.638 283.369 206.121 283.625C205.604 283.875 204.993 284 204.289 284H203.334ZM224.338 284.256C223.06 284.256 221.952 283.974 221.015 283.412C220.077 282.849 219.35 282.062 218.833 281.051C218.321 280.04 218.066 278.858 218.066 277.506C218.066 276.153 218.321 274.969 218.833 273.952C219.35 272.935 220.077 272.145 221.015 271.582C221.952 271.02 223.06 270.739 224.338 270.739C225.617 270.739 226.725 271.02 227.662 271.582C228.6 272.145 229.324 272.935 229.836 273.952C230.353 274.969 230.611 276.153 230.611 277.506C230.611 278.858 230.353 280.04 229.836 281.051C229.324 282.062 228.6 282.849 227.662 283.412C226.725 283.974 225.617 284.256 224.338 284.256ZM224.355 281.784C225.049 281.784 225.628 281.594 226.094 281.213C226.56 280.827 226.907 280.31 227.134 279.662C227.367 279.014 227.483 278.293 227.483 277.497C227.483 276.696 227.367 275.972 227.134 275.324C226.907 274.67 226.56 274.151 226.094 273.764C225.628 273.378 225.049 273.185 224.355 273.185C223.645 273.185 223.054 273.378 222.583 273.764C222.117 274.151 221.767 274.67 221.534 275.324C221.307 275.972 221.194 276.696 221.194 277.497C221.194 278.293 221.307 279.014 221.534 279.662C221.767 280.31 222.117 280.827 222.583 281.213C223.054 281.594 223.645 281.784 224.355 281.784ZM240.764 280.412L244.65 270.909H247.139L241.846 284H239.69L234.517 270.909H236.98L240.764 280.412ZM236.204 270.909V284H233.23V270.909H236.204ZM245.451 284V270.909H248.4V284H245.451ZM255.278 284.264C254.449 284.264 253.701 284.116 253.037 283.821C252.377 283.52 251.855 283.077 251.468 282.491C251.088 281.906 250.897 281.185 250.897 280.327C250.897 279.588 251.034 278.977 251.306 278.494C251.579 278.011 251.951 277.625 252.423 277.335C252.895 277.045 253.426 276.827 254.017 276.679C254.613 276.526 255.23 276.415 255.866 276.347C256.633 276.267 257.255 276.196 257.733 276.134C258.21 276.065 258.556 275.963 258.772 275.827C258.994 275.685 259.105 275.466 259.105 275.17V275.119C259.105 274.477 258.914 273.98 258.534 273.628C258.153 273.276 257.605 273.099 256.889 273.099C256.133 273.099 255.534 273.264 255.091 273.594C254.653 273.923 254.358 274.312 254.204 274.761L251.324 274.352C251.551 273.557 251.926 272.892 252.449 272.358C252.971 271.818 253.61 271.415 254.366 271.148C255.122 270.875 255.957 270.739 256.872 270.739C257.502 270.739 258.13 270.812 258.755 270.96C259.38 271.108 259.951 271.352 260.468 271.693C260.985 272.028 261.4 272.486 261.713 273.065C262.031 273.645 262.19 274.369 262.19 275.239V284H259.224V282.202H259.122C258.934 282.565 258.67 282.906 258.329 283.224C257.994 283.537 257.571 283.79 257.059 283.983C256.554 284.17 255.96 284.264 255.278 284.264ZM256.079 281.997C256.699 281.997 257.235 281.875 257.69 281.631C258.145 281.381 258.494 281.051 258.738 280.642C258.988 280.233 259.113 279.787 259.113 279.304V277.761C259.017 277.841 258.852 277.915 258.619 277.983C258.392 278.051 258.136 278.111 257.852 278.162C257.568 278.213 257.287 278.259 257.008 278.298C256.73 278.338 256.488 278.372 256.284 278.401C255.824 278.463 255.412 278.565 255.048 278.707C254.684 278.849 254.397 279.048 254.187 279.304C253.977 279.554 253.872 279.878 253.872 280.276C253.872 280.844 254.079 281.273 254.494 281.562C254.909 281.852 255.437 281.997 256.079 281.997ZM264.389 284L264.372 281.46H264.824C265.164 281.46 265.451 281.384 265.684 281.23C265.917 281.077 266.11 280.821 266.264 280.463C266.417 280.099 266.537 279.611 266.622 278.997C266.707 278.384 266.767 277.619 266.801 276.705L267.031 270.909H276.576V284H273.593V273.44H269.835L269.63 277.659C269.579 278.75 269.457 279.696 269.264 280.497C269.076 281.293 268.809 281.949 268.463 282.466C268.122 282.983 267.693 283.369 267.176 283.625C266.659 283.875 266.048 284 265.343 284H264.389ZM285.393 284.256C284.115 284.256 283.007 283.974 282.069 283.412C281.132 282.849 280.404 282.062 279.887 281.051C279.376 280.04 279.12 278.858 279.12 277.506C279.12 276.153 279.376 274.969 279.887 273.952C280.404 272.935 281.132 272.145 282.069 271.582C283.007 271.02 284.115 270.739 285.393 270.739C286.672 270.739 287.779 271.02 288.717 271.582C289.654 272.145 290.379 272.935 290.89 273.952C291.407 274.969 291.666 276.153 291.666 277.506C291.666 278.858 291.407 280.04 290.89 281.051C290.379 282.062 289.654 282.849 288.717 283.412C287.779 283.974 286.672 284.256 285.393 284.256ZM285.41 281.784C286.103 281.784 286.683 281.594 287.149 281.213C287.615 280.827 287.961 280.31 288.189 279.662C288.422 279.014 288.538 278.293 288.538 277.497C288.538 276.696 288.422 275.972 288.189 275.324C287.961 274.67 287.615 274.151 287.149 273.764C286.683 273.378 286.103 273.185 285.41 273.185C284.7 273.185 284.109 273.378 283.637 273.764C283.172 274.151 282.822 274.67 282.589 275.324C282.362 275.972 282.248 276.696 282.248 277.497C282.248 278.293 282.362 279.014 282.589 279.662C282.822 280.31 283.172 280.827 283.637 281.213C284.109 281.594 284.7 281.784 285.41 281.784ZM299.995 284.256C298.688 284.256 297.566 283.969 296.628 283.395C295.696 282.821 294.978 282.028 294.472 281.017C293.972 280 293.722 278.83 293.722 277.506C293.722 276.176 293.978 275.003 294.489 273.986C295 272.963 295.722 272.168 296.654 271.599C297.591 271.026 298.699 270.739 299.978 270.739C301.04 270.739 301.98 270.935 302.799 271.327C303.623 271.713 304.279 272.261 304.767 272.972C305.256 273.676 305.534 274.5 305.603 275.443H302.654C302.534 274.812 302.25 274.287 301.801 273.866C301.358 273.44 300.765 273.227 300.02 273.227C299.39 273.227 298.836 273.398 298.358 273.739C297.881 274.074 297.509 274.557 297.242 275.188C296.98 275.818 296.85 276.574 296.85 277.455C296.85 278.347 296.98 279.114 297.242 279.756C297.503 280.392 297.87 280.884 298.341 281.23C298.819 281.571 299.378 281.741 300.02 281.741C300.475 281.741 300.881 281.656 301.239 281.486C301.603 281.31 301.907 281.057 302.151 280.727C302.395 280.398 302.563 279.997 302.654 279.526H305.603C305.529 280.452 305.256 281.273 304.784 281.989C304.313 282.699 303.671 283.256 302.858 283.659C302.046 284.057 301.091 284.256 299.995 284.256ZM310.224 275.17H314.085C315.755 275.17 317.048 275.577 317.963 276.389C318.877 277.202 319.338 278.267 319.343 279.585C319.338 280.443 319.127 281.205 318.713 281.869C318.304 282.534 317.707 283.057 316.923 283.438C316.145 283.812 315.199 284 314.085 284H308.136V270.909H311.11V281.469H314.085C314.755 281.469 315.306 281.298 315.738 280.957C316.17 280.611 316.386 280.168 316.386 279.628C316.386 279.06 316.17 278.597 315.738 278.239C315.306 277.881 314.755 277.702 314.085 277.702H310.224V275.17Z" fill="#002033"/>
<path d="M78.4027 301.364V313H76.9936V302.614H71.13V313H69.7209V301.364H78.4027ZM84.6087 313.182C83.8208 313.182 83.1295 312.994 82.5348 312.619C81.9439 312.244 81.4818 311.72 81.1484 311.045C80.8189 310.371 80.6541 309.583 80.6541 308.682C80.6541 307.773 80.8189 306.979 81.1484 306.301C81.4818 305.623 81.9439 305.097 82.5348 304.722C83.1295 304.347 83.8208 304.159 84.6087 304.159C85.3965 304.159 86.0859 304.347 86.6768 304.722C87.2715 305.097 87.7337 305.623 88.0632 306.301C88.3965 306.979 88.5632 307.773 88.5632 308.682C88.5632 309.583 88.3965 310.371 88.0632 311.045C87.7337 311.72 87.2715 312.244 86.6768 312.619C86.0859 312.994 85.3965 313.182 84.6087 313.182ZM84.6087 311.977C85.2071 311.977 85.6996 311.824 86.0859 311.517C86.4723 311.21 86.7583 310.807 86.9439 310.307C87.1295 309.807 87.2223 309.265 87.2223 308.682C87.2223 308.098 87.1295 307.555 86.9439 307.051C86.7583 306.547 86.4723 306.14 86.0859 305.83C85.6996 305.519 85.2071 305.364 84.6087 305.364C84.0102 305.364 83.5178 305.519 83.1314 305.83C82.745 306.14 82.459 306.547 82.2734 307.051C82.0878 307.555 81.995 308.098 81.995 308.682C81.995 309.265 82.0878 309.807 82.2734 310.307C82.459 310.807 82.745 311.21 83.1314 311.517C83.5178 311.824 84.0102 311.977 84.6087 311.977ZM90.6101 313V304.273H97.4737V313H96.1328V305.523H91.951V313H90.6101ZM99.9226 316.273V304.273H101.218V305.659H101.377C101.476 305.508 101.612 305.314 101.786 305.08C101.964 304.841 102.218 304.629 102.548 304.443C102.881 304.254 103.332 304.159 103.9 304.159C104.635 304.159 105.282 304.343 105.843 304.71C106.404 305.078 106.841 305.598 107.156 306.273C107.47 306.947 107.627 307.742 107.627 308.659C107.627 309.583 107.47 310.384 107.156 311.062C106.841 311.737 106.406 312.259 105.849 312.631C105.292 312.998 104.65 313.182 103.923 313.182C103.362 313.182 102.913 313.089 102.576 312.903C102.239 312.714 101.979 312.5 101.798 312.261C101.616 312.019 101.476 311.818 101.377 311.659H101.263V316.273H99.9226ZM101.241 308.636C101.241 309.295 101.337 309.877 101.531 310.381C101.724 310.881 102.006 311.273 102.377 311.557C102.748 311.837 103.203 311.977 103.741 311.977C104.301 311.977 104.769 311.83 105.144 311.534C105.523 311.235 105.807 310.833 105.996 310.33C106.19 309.822 106.286 309.258 106.286 308.636C106.286 308.023 106.192 307.47 106.002 306.977C105.817 306.481 105.534 306.089 105.156 305.801C104.781 305.509 104.309 305.364 103.741 305.364C103.195 305.364 102.737 305.502 102.366 305.778C101.995 306.051 101.714 306.434 101.525 306.926C101.335 307.415 101.241 307.985 101.241 308.636ZM113.218 313.182C112.43 313.182 111.739 312.994 111.144 312.619C110.553 312.244 110.091 311.72 109.758 311.045C109.428 310.371 109.263 309.583 109.263 308.682C109.263 307.773 109.428 306.979 109.758 306.301C110.091 305.623 110.553 305.097 111.144 304.722C111.739 304.347 112.43 304.159 113.218 304.159C114.006 304.159 114.695 304.347 115.286 304.722C115.881 305.097 116.343 305.623 116.673 306.301C117.006 306.979 117.173 307.773 117.173 308.682C117.173 309.583 117.006 310.371 116.673 311.045C116.343 311.72 115.881 312.244 115.286 312.619C114.695 312.994 114.006 313.182 113.218 313.182ZM113.218 311.977C113.817 311.977 114.309 311.824 114.695 311.517C115.082 311.21 115.368 310.807 115.553 310.307C115.739 309.807 115.832 309.265 115.832 308.682C115.832 308.098 115.739 307.555 115.553 307.051C115.368 306.547 115.082 306.14 114.695 305.83C114.309 305.519 113.817 305.364 113.218 305.364C112.62 305.364 112.127 305.519 111.741 305.83C111.354 306.14 111.068 306.547 110.883 307.051C110.697 307.555 110.604 308.098 110.604 308.682C110.604 309.265 110.697 309.807 110.883 310.307C111.068 310.807 111.354 311.21 111.741 311.517C112.127 311.824 112.62 311.977 113.218 311.977ZM125.697 301L126.379 301.818C126.113 302.076 125.807 302.256 125.458 302.358C125.11 302.46 124.716 302.523 124.276 302.545C123.837 302.568 123.348 302.591 122.81 302.614C122.204 302.636 121.702 302.784 121.305 303.057C120.907 303.33 120.6 303.723 120.384 304.239C120.168 304.754 120.03 305.386 119.969 306.136H120.083C120.379 305.591 120.788 305.189 121.31 304.932C121.833 304.674 122.394 304.545 122.992 304.545C123.674 304.545 124.288 304.705 124.833 305.023C125.379 305.341 125.81 305.812 126.129 306.438C126.447 307.062 126.606 307.833 126.606 308.75C126.606 309.663 126.443 310.451 126.117 311.114C125.795 311.777 125.343 312.288 124.759 312.648C124.18 313.004 123.5 313.182 122.719 313.182C121.939 313.182 121.255 312.998 120.668 312.631C120.081 312.259 119.625 311.71 119.299 310.983C118.973 310.252 118.81 309.348 118.81 308.273V307.341C118.81 305.398 119.14 303.924 119.799 302.92C120.462 301.917 121.458 301.398 122.788 301.364C123.257 301.348 123.676 301.345 124.043 301.352C124.411 301.36 124.731 301.343 125.004 301.301C125.276 301.259 125.507 301.159 125.697 301ZM122.719 311.977C123.246 311.977 123.699 311.845 124.077 311.58C124.46 311.314 124.754 310.941 124.958 310.46C125.163 309.975 125.265 309.405 125.265 308.75C125.265 308.114 125.161 307.572 124.952 307.125C124.748 306.678 124.454 306.337 124.072 306.102C123.689 305.867 123.231 305.75 122.697 305.75C122.307 305.75 121.956 305.816 121.646 305.949C121.335 306.081 121.07 306.277 120.85 306.534C120.63 306.792 120.46 307.106 120.339 307.477C120.221 307.848 120.159 308.273 120.151 308.75C120.151 309.727 120.38 310.509 120.839 311.097C121.297 311.684 121.924 311.977 122.719 311.977ZM129.521 316.273C129.293 316.273 129.091 316.254 128.913 316.216C128.735 316.182 128.612 316.148 128.543 316.114L128.884 314.932C129.21 315.015 129.498 315.045 129.748 315.023C129.998 315 130.219 314.888 130.413 314.688C130.61 314.491 130.79 314.17 130.952 313.727L131.202 313.045L127.975 304.273H129.43L131.839 311.227H131.93L134.339 304.273H135.793L132.089 314.273C131.922 314.723 131.716 315.097 131.469 315.392C131.223 315.691 130.937 315.913 130.612 316.057C130.29 316.201 129.926 316.273 129.521 316.273ZM138.904 311.023L143.109 304.273H144.654V313H143.313V306.25L139.131 313H137.563V304.273H138.904V311.023ZM142.222 301.364H143.472C143.472 301.977 143.26 302.479 142.836 302.869C142.412 303.259 141.836 303.455 141.109 303.455C140.393 303.455 139.823 303.259 139.398 302.869C138.978 302.479 138.768 301.977 138.768 301.364H140.018C140.018 301.659 140.099 301.919 140.262 302.142C140.429 302.366 140.711 302.477 141.109 302.477C141.506 302.477 141.79 302.366 141.961 302.142C142.135 301.919 142.222 301.659 142.222 301.364ZM145.923 305.523V304.273H153.013V305.523H150.15V313H148.809V305.523H145.923ZM158.175 313.182C157.335 313.182 156.609 312.996 155.999 312.625C155.393 312.25 154.925 311.727 154.596 311.057C154.27 310.383 154.107 309.598 154.107 308.705C154.107 307.811 154.27 307.023 154.596 306.341C154.925 305.655 155.384 305.121 155.971 304.739C156.562 304.352 157.251 304.159 158.039 304.159C158.494 304.159 158.942 304.235 159.386 304.386C159.829 304.538 160.232 304.784 160.596 305.125C160.96 305.462 161.249 305.909 161.465 306.466C161.681 307.023 161.789 307.708 161.789 308.523V309.091H155.062V307.932H160.425C160.425 307.439 160.327 307 160.13 306.614C159.937 306.227 159.66 305.922 159.3 305.699C158.944 305.475 158.524 305.364 158.039 305.364C157.505 305.364 157.043 305.496 156.653 305.761C156.266 306.023 155.969 306.364 155.761 306.784C155.552 307.205 155.448 307.655 155.448 308.136V308.909C155.448 309.568 155.562 310.127 155.789 310.585C156.02 311.04 156.34 311.386 156.749 311.625C157.158 311.86 157.634 311.977 158.175 311.977C158.528 311.977 158.846 311.928 159.13 311.83C159.418 311.727 159.666 311.576 159.874 311.375C160.083 311.17 160.244 310.917 160.357 310.614L161.653 310.977C161.516 311.417 161.287 311.803 160.965 312.136C160.643 312.466 160.246 312.723 159.772 312.909C159.299 313.091 158.766 313.182 158.175 313.182ZM171.874 313.182C171.086 313.182 170.395 312.994 169.8 312.619C169.21 312.244 168.747 311.72 168.414 311.045C168.085 310.371 167.92 309.583 167.92 308.682C167.92 307.773 168.085 306.979 168.414 306.301C168.747 305.623 169.21 305.097 169.8 304.722C170.395 304.347 171.086 304.159 171.874 304.159C172.662 304.159 173.352 304.347 173.942 304.722C174.537 305.097 174.999 305.623 175.329 306.301C175.662 306.979 175.829 307.773 175.829 308.682C175.829 309.583 175.662 310.371 175.329 311.045C174.999 311.72 174.537 312.244 173.942 312.619C173.352 312.994 172.662 313.182 171.874 313.182ZM171.874 311.977C172.473 311.977 172.965 311.824 173.352 311.517C173.738 311.21 174.024 310.807 174.21 310.307C174.395 309.807 174.488 309.265 174.488 308.682C174.488 308.098 174.395 307.555 174.21 307.051C174.024 306.547 173.738 306.14 173.352 305.83C172.965 305.519 172.473 305.364 171.874 305.364C171.276 305.364 170.783 305.519 170.397 305.83C170.011 306.14 169.725 306.547 169.539 307.051C169.353 307.555 169.261 308.098 169.261 308.682C169.261 309.265 169.353 309.807 169.539 310.307C169.725 310.807 170.011 311.21 170.397 311.517C170.783 311.824 171.276 311.977 171.874 311.977ZM184.353 301L185.035 301.818C184.77 302.076 184.463 302.256 184.114 302.358C183.766 302.46 183.372 302.523 182.933 302.545C182.493 302.568 182.004 302.591 181.467 302.614C180.861 302.636 180.359 302.784 179.961 303.057C179.563 303.33 179.256 303.723 179.04 304.239C178.825 304.754 178.686 305.386 178.626 306.136H178.739C179.035 305.591 179.444 305.189 179.967 304.932C180.489 304.674 181.05 304.545 181.648 304.545C182.33 304.545 182.944 304.705 183.489 305.023C184.035 305.341 184.467 305.812 184.785 306.438C185.103 307.062 185.262 307.833 185.262 308.75C185.262 309.663 185.099 310.451 184.773 311.114C184.451 311.777 183.999 312.288 183.415 312.648C182.836 313.004 182.156 313.182 181.376 313.182C180.595 313.182 179.912 312.998 179.325 312.631C178.737 312.259 178.281 311.71 177.955 310.983C177.629 310.252 177.467 309.348 177.467 308.273V307.341C177.467 305.398 177.796 303.924 178.455 302.92C179.118 301.917 180.114 301.398 181.444 301.364C181.914 301.348 182.332 301.345 182.7 301.352C183.067 301.36 183.387 301.343 183.66 301.301C183.933 301.259 184.164 301.159 184.353 301ZM181.376 311.977C181.902 311.977 182.355 311.845 182.734 311.58C183.116 311.314 183.41 310.941 183.614 310.46C183.819 309.975 183.921 309.405 183.921 308.75C183.921 308.114 183.817 307.572 183.609 307.125C183.404 306.678 183.111 306.337 182.728 306.102C182.345 305.867 181.887 305.75 181.353 305.75C180.963 305.75 180.612 305.816 180.302 305.949C179.991 306.081 179.726 306.277 179.506 306.534C179.287 306.792 179.116 307.106 178.995 307.477C178.878 307.848 178.815 308.273 178.808 308.75C178.808 309.727 179.037 310.509 179.495 311.097C179.953 311.684 180.58 311.977 181.376 311.977ZM193.154 308.023V309.273H188.336V308.023H193.154ZM188.654 304.273V313H187.313V304.273H188.654ZM194.177 304.273V313H192.836V304.273H194.177ZM200.171 313.182C199.383 313.182 198.692 312.994 198.097 312.619C197.506 312.244 197.044 311.72 196.711 311.045C196.381 310.371 196.217 309.583 196.217 308.682C196.217 307.773 196.381 306.979 196.711 306.301C197.044 305.623 197.506 305.097 198.097 304.722C198.692 304.347 199.383 304.159 200.171 304.159C200.959 304.159 201.648 304.347 202.239 304.722C202.834 305.097 203.296 305.623 203.626 306.301C203.959 306.979 204.126 307.773 204.126 308.682C204.126 309.583 203.959 310.371 203.626 311.045C203.296 311.72 202.834 312.244 202.239 312.619C201.648 312.994 200.959 313.182 200.171 313.182ZM200.171 311.977C200.77 311.977 201.262 311.824 201.648 311.517C202.035 311.21 202.321 310.807 202.506 310.307C202.692 309.807 202.785 309.265 202.785 308.682C202.785 308.098 202.692 307.555 202.506 307.051C202.321 306.547 202.035 306.14 201.648 305.83C201.262 305.519 200.77 305.364 200.171 305.364C199.573 305.364 199.08 305.519 198.694 305.83C198.308 306.14 198.022 306.547 197.836 307.051C197.65 307.555 197.558 308.098 197.558 308.682C197.558 309.265 197.65 309.807 197.836 310.307C198.022 310.807 198.308 311.21 198.694 311.517C199.08 311.824 199.573 311.977 200.171 311.977ZM206.173 313V304.273H209.741C210.68 304.273 211.426 304.485 211.979 304.909C212.532 305.333 212.809 305.894 212.809 306.591C212.809 307.121 212.652 307.532 212.337 307.824C212.023 308.112 211.62 308.307 211.127 308.409C211.449 308.455 211.762 308.568 212.065 308.75C212.371 308.932 212.625 309.182 212.826 309.5C213.027 309.814 213.127 310.201 213.127 310.659C213.127 311.106 213.013 311.506 212.786 311.858C212.559 312.21 212.233 312.489 211.809 312.693C211.385 312.898 210.877 313 210.286 313H206.173ZM207.445 311.773H210.286C210.748 311.773 211.11 311.663 211.371 311.443C211.633 311.223 211.763 310.924 211.763 310.545C211.763 310.095 211.633 309.741 211.371 309.483C211.11 309.222 210.748 309.091 210.286 309.091H207.445V311.773ZM207.445 307.932H209.741C210.101 307.932 210.409 307.883 210.667 307.784C210.924 307.682 211.121 307.538 211.258 307.352C211.398 307.163 211.468 306.939 211.468 306.682C211.468 306.314 211.315 306.027 211.008 305.818C210.701 305.606 210.279 305.5 209.741 305.5H207.445V307.932ZM216.498 311.023L220.702 304.273H222.248V313H220.907V306.25L216.725 313H215.157V304.273H216.498V311.023ZM223.516 305.523V304.273H230.607V305.523H227.744V313H226.403V305.523H223.516ZM233.722 307.432H236.222C237.245 307.432 238.027 307.691 238.569 308.21C239.111 308.729 239.381 309.386 239.381 310.182C239.381 310.705 239.26 311.18 239.018 311.608C238.775 312.032 238.419 312.371 237.95 312.625C237.48 312.875 236.904 313 236.222 313H232.563V304.273H233.904V311.75H236.222C236.753 311.75 237.188 311.61 237.529 311.33C237.87 311.049 238.04 310.689 238.04 310.25C238.04 309.788 237.87 309.411 237.529 309.119C237.188 308.828 236.753 308.682 236.222 308.682H233.722V307.432ZM249.468 313.182C248.65 313.182 247.945 312.989 247.354 312.602C246.763 312.216 246.309 311.684 245.991 311.006C245.673 310.328 245.513 309.553 245.513 308.682C245.513 307.795 245.676 307.013 246.002 306.335C246.332 305.653 246.79 305.121 247.377 304.739C247.968 304.352 248.657 304.159 249.445 304.159C250.059 304.159 250.612 304.273 251.104 304.5C251.597 304.727 252 305.045 252.315 305.455C252.629 305.864 252.824 306.341 252.9 306.886H251.559C251.457 306.489 251.229 306.136 250.877 305.83C250.529 305.519 250.059 305.364 249.468 305.364C248.945 305.364 248.487 305.5 248.093 305.773C247.703 306.042 247.398 306.422 247.178 306.915C246.962 307.403 246.854 307.977 246.854 308.636C246.854 309.311 246.96 309.898 247.173 310.398C247.388 310.898 247.692 311.286 248.082 311.562C248.476 311.839 248.938 311.977 249.468 311.977C249.817 311.977 250.133 311.917 250.417 311.795C250.701 311.674 250.942 311.5 251.138 311.273C251.335 311.045 251.476 310.773 251.559 310.455H252.9C252.824 310.97 252.637 311.434 252.337 311.847C252.042 312.256 251.65 312.581 251.161 312.824C250.676 313.062 250.112 313.182 249.468 313.182ZM254.173 305.523V304.273H261.263V305.523H258.4V313H257.059V305.523H254.173ZM263.219 316.273V304.273H264.515V305.659H264.674C264.772 305.508 264.909 305.314 265.083 305.08C265.261 304.841 265.515 304.629 265.844 304.443C266.178 304.254 266.629 304.159 267.197 304.159C267.932 304.159 268.579 304.343 269.14 304.71C269.701 305.078 270.138 305.598 270.452 306.273C270.767 306.947 270.924 307.742 270.924 308.659C270.924 309.583 270.767 310.384 270.452 311.062C270.138 311.737 269.702 312.259 269.146 312.631C268.589 312.998 267.947 313.182 267.219 313.182C266.659 313.182 266.21 313.089 265.873 312.903C265.536 312.714 265.276 312.5 265.094 312.261C264.913 312.019 264.772 311.818 264.674 311.659H264.56V316.273H263.219ZM264.538 308.636C264.538 309.295 264.634 309.877 264.827 310.381C265.021 310.881 265.303 311.273 265.674 311.557C266.045 311.837 266.5 311.977 267.038 311.977C267.598 311.977 268.066 311.83 268.441 311.534C268.82 311.235 269.104 310.833 269.293 310.33C269.487 309.822 269.583 309.258 269.583 308.636C269.583 308.023 269.488 307.47 269.299 306.977C269.113 306.481 268.831 306.089 268.452 305.801C268.077 305.509 267.606 305.364 267.038 305.364C266.492 305.364 266.034 305.502 265.663 305.778C265.291 306.051 265.011 306.434 264.822 306.926C264.632 307.415 264.538 307.985 264.538 308.636ZM275.538 313.205C274.985 313.205 274.483 313.1 274.032 312.892C273.581 312.68 273.223 312.375 272.958 311.977C272.693 311.576 272.56 311.091 272.56 310.523C272.56 310.023 272.659 309.617 272.856 309.307C273.053 308.992 273.316 308.746 273.646 308.568C273.975 308.39 274.339 308.258 274.737 308.17C275.138 308.08 275.541 308.008 275.947 307.955C276.477 307.886 276.907 307.835 277.237 307.801C277.57 307.763 277.812 307.701 277.964 307.614C278.119 307.527 278.197 307.375 278.197 307.159V307.114C278.197 306.553 278.043 306.117 277.737 305.807C277.433 305.496 276.973 305.341 276.356 305.341C275.716 305.341 275.214 305.481 274.85 305.761C274.487 306.042 274.231 306.341 274.083 306.659L272.81 306.205C273.038 305.674 273.341 305.261 273.719 304.966C274.102 304.667 274.519 304.458 274.969 304.341C275.424 304.22 275.871 304.159 276.31 304.159C276.591 304.159 276.913 304.193 277.276 304.261C277.644 304.326 277.998 304.46 278.339 304.665C278.683 304.869 278.969 305.178 279.197 305.591C279.424 306.004 279.538 306.557 279.538 307.25V313H278.197V311.818H278.129C278.038 312.008 277.886 312.21 277.674 312.426C277.462 312.642 277.18 312.826 276.827 312.977C276.475 313.129 276.045 313.205 275.538 313.205ZM275.742 312C276.272 312 276.719 311.896 277.083 311.688C277.451 311.479 277.727 311.21 277.913 310.881C278.102 310.551 278.197 310.205 278.197 309.841V308.614C278.14 308.682 278.015 308.744 277.822 308.801C277.632 308.854 277.413 308.902 277.163 308.943C276.916 308.981 276.676 309.015 276.441 309.045C276.21 309.072 276.022 309.095 275.879 309.114C275.53 309.159 275.204 309.233 274.901 309.335C274.602 309.434 274.36 309.583 274.174 309.784C273.992 309.981 273.901 310.25 273.901 310.591C273.901 311.057 274.074 311.409 274.418 311.648C274.767 311.883 275.208 312 275.742 312ZM287.826 308.023V309.273H283.008V308.023H287.826ZM283.326 304.273V313H281.985V304.273H283.326ZM288.849 304.273V313H287.508V304.273H288.849ZM292.638 311.023L296.843 304.273H298.388V313H297.048V306.25L292.866 313H291.298V304.273H292.638V311.023ZM307.708 304.273V311.75H308.935V315.818H307.594V313H300.844V304.273H302.185V311.75H306.367V304.273H307.708ZM311.864 316.273C311.637 316.273 311.434 316.254 311.256 316.216C311.078 316.182 310.955 316.148 310.887 316.114L311.228 314.932C311.554 315.015 311.842 315.045 312.092 315.023C312.342 315 312.563 314.888 312.756 314.688C312.953 314.491 313.133 314.17 313.296 313.727L313.546 313.045L310.319 304.273H311.773L314.183 311.227H314.273L316.683 304.273H318.137L314.433 314.273C314.266 314.723 314.059 315.097 313.813 315.392C313.567 315.691 313.281 315.913 312.955 316.057C312.633 316.201 312.27 316.273 311.864 316.273ZM325.748 311.023L329.952 304.273H331.498V313H330.157V306.25L325.975 313H324.407V304.273H325.748V311.023ZM333.181 313V311.75H333.499C333.761 311.75 333.978 311.699 334.153 311.597C334.327 311.491 334.467 311.307 334.573 311.045C334.683 310.78 334.766 310.413 334.823 309.943C334.884 309.47 334.927 308.867 334.954 308.136L335.113 304.273H340.931V313H339.59V305.523H336.386L336.249 308.636C336.219 309.352 336.155 309.983 336.056 310.528C335.961 311.07 335.816 311.525 335.619 311.892C335.425 312.259 335.168 312.536 334.846 312.722C334.524 312.907 334.121 313 333.636 313H333.181ZM344.732 311.023L348.937 304.273H350.482V313H349.141V306.25L344.96 313H343.391V304.273H344.732V311.023ZM152.596 329.773H154.028C154.058 330.167 154.236 330.466 154.562 330.67C154.891 330.875 155.319 330.977 155.846 330.977C156.384 330.977 156.844 330.867 157.227 330.648C157.609 330.424 157.8 330.064 157.8 329.568C157.8 329.277 157.728 329.023 157.585 328.807C157.441 328.587 157.238 328.417 156.977 328.295C156.715 328.174 156.406 328.114 156.05 328.114H154.55V326.909H156.05C156.585 326.909 156.978 326.788 157.232 326.545C157.49 326.303 157.619 326 157.619 325.636C157.619 325.246 157.48 324.934 157.204 324.699C156.927 324.46 156.535 324.341 156.028 324.341C155.516 324.341 155.09 324.456 154.749 324.688C154.408 324.915 154.228 325.208 154.21 325.568H152.8C152.816 325.098 152.96 324.684 153.232 324.324C153.505 323.96 153.876 323.676 154.346 323.472C154.816 323.263 155.353 323.159 155.96 323.159C156.573 323.159 157.105 323.267 157.556 323.483C158.011 323.695 158.361 323.985 158.607 324.352C158.857 324.716 158.982 325.129 158.982 325.591C158.982 326.083 158.844 326.481 158.567 326.784C158.291 327.087 157.944 327.303 157.528 327.432V327.523C157.857 327.545 158.143 327.652 158.386 327.841C158.632 328.027 158.823 328.271 158.96 328.574C159.096 328.873 159.164 329.205 159.164 329.568C159.164 330.098 159.022 330.561 158.738 330.955C158.454 331.345 158.064 331.648 157.567 331.864C157.071 332.076 156.505 332.182 155.869 332.182C155.251 332.182 154.698 332.081 154.21 331.881C153.721 331.676 153.333 331.394 153.045 331.034C152.761 330.67 152.611 330.25 152.596 329.773ZM163.616 332.205C163.063 332.205 162.561 332.1 162.11 331.892C161.659 331.68 161.301 331.375 161.036 330.977C160.771 330.576 160.638 330.091 160.638 329.523C160.638 329.023 160.737 328.617 160.934 328.307C161.131 327.992 161.394 327.746 161.724 327.568C162.053 327.39 162.417 327.258 162.815 327.17C163.216 327.08 163.62 327.008 164.025 326.955C164.555 326.886 164.985 326.835 165.315 326.801C165.648 326.763 165.89 326.701 166.042 326.614C166.197 326.527 166.275 326.375 166.275 326.159V326.114C166.275 325.553 166.121 325.117 165.815 324.807C165.512 324.496 165.051 324.341 164.434 324.341C163.794 324.341 163.292 324.481 162.928 324.761C162.565 325.042 162.309 325.341 162.161 325.659L160.888 325.205C161.116 324.674 161.419 324.261 161.798 323.966C162.18 323.667 162.597 323.458 163.048 323.341C163.502 323.22 163.949 323.159 164.388 323.159C164.669 323.159 164.991 323.193 165.354 323.261C165.722 323.326 166.076 323.46 166.417 323.665C166.762 323.869 167.048 324.178 167.275 324.591C167.502 325.004 167.616 325.557 167.616 326.25V332H166.275V330.818H166.207C166.116 331.008 165.964 331.21 165.752 331.426C165.54 331.642 165.258 331.826 164.906 331.977C164.553 332.129 164.123 332.205 163.616 332.205ZM163.82 331C164.351 331 164.798 330.896 165.161 330.688C165.529 330.479 165.805 330.21 165.991 329.881C166.18 329.551 166.275 329.205 166.275 328.841V327.614C166.218 327.682 166.093 327.744 165.9 327.801C165.71 327.854 165.491 327.902 165.241 327.943C164.995 327.981 164.754 328.015 164.519 328.045C164.288 328.072 164.101 328.095 163.957 328.114C163.608 328.159 163.282 328.233 162.979 328.335C162.68 328.434 162.438 328.583 162.252 328.784C162.07 328.981 161.979 329.25 161.979 329.591C161.979 330.057 162.152 330.409 162.496 330.648C162.845 330.883 163.286 331 163.82 331ZM171.404 330.023L175.609 323.273H177.154V332H175.813V325.25L171.631 332H170.063V323.273H171.404V330.023ZM174.722 320.364H175.972C175.972 320.977 175.76 321.479 175.336 321.869C174.912 322.259 174.336 322.455 173.609 322.455C172.893 322.455 172.323 322.259 171.898 321.869C171.478 321.479 171.268 320.977 171.268 320.364H172.518C172.518 320.659 172.599 320.919 172.762 321.142C172.929 321.366 173.211 321.477 173.609 321.477C174.006 321.477 174.29 321.366 174.461 321.142C174.635 320.919 174.722 320.659 174.722 320.364ZM178.678 334.5V330.75H179.406C179.584 330.564 179.737 330.364 179.866 330.148C179.995 329.932 180.106 329.676 180.201 329.381C180.299 329.081 180.383 328.718 180.451 328.29C180.519 327.858 180.58 327.337 180.633 326.727L180.928 323.273H186.474V330.75H187.815V334.5H186.474V332H180.019V334.5H178.678ZM180.928 330.75H185.133V324.523H182.178L181.951 326.727C181.856 327.64 181.739 328.437 181.599 329.119C181.459 329.801 181.235 330.345 180.928 330.75ZM190.935 330.023L195.14 323.273H196.685V332H195.344V325.25L191.163 332H189.594V323.273H190.935V330.023ZM197.954 324.523V323.273H205.045V324.523H202.181V332H200.84V324.523H197.954ZM210.207 332.182C209.366 332.182 208.64 331.996 208.031 331.625C207.424 331.25 206.957 330.727 206.627 330.057C206.301 329.383 206.138 328.598 206.138 327.705C206.138 326.811 206.301 326.023 206.627 325.341C206.957 324.655 207.415 324.121 208.002 323.739C208.593 323.352 209.282 323.159 210.07 323.159C210.525 323.159 210.974 323.235 211.417 323.386C211.86 323.538 212.263 323.784 212.627 324.125C212.991 324.462 213.281 324.909 213.496 325.466C213.712 326.023 213.82 326.708 213.82 327.523V328.091H207.093V326.932H212.457C212.457 326.439 212.358 326 212.161 325.614C211.968 325.227 211.692 324.922 211.332 324.699C210.976 324.475 210.555 324.364 210.07 324.364C209.536 324.364 209.074 324.496 208.684 324.761C208.298 325.023 208 325.364 207.792 325.784C207.584 326.205 207.479 326.655 207.479 327.136V327.909C207.479 328.568 207.593 329.127 207.82 329.585C208.051 330.04 208.371 330.386 208.781 330.625C209.19 330.86 209.665 330.977 210.207 330.977C210.559 330.977 210.877 330.928 211.161 330.83C211.449 330.727 211.697 330.576 211.906 330.375C212.114 330.17 212.275 329.917 212.388 329.614L213.684 329.977C213.548 330.417 213.318 330.803 212.996 331.136C212.674 331.466 212.277 331.723 211.803 331.909C211.33 332.091 210.798 332.182 210.207 332.182ZM220.36 332V323.273H227.224V332H225.883V324.523H221.701V332H220.36ZM233.218 332.182C232.43 332.182 231.739 331.994 231.144 331.619C230.553 331.244 230.091 330.72 229.758 330.045C229.428 329.371 229.263 328.583 229.263 327.682C229.263 326.773 229.428 325.979 229.758 325.301C230.091 324.623 230.553 324.097 231.144 323.722C231.739 323.347 232.43 323.159 233.218 323.159C234.006 323.159 234.695 323.347 235.286 323.722C235.881 324.097 236.343 324.623 236.673 325.301C237.006 325.979 237.173 326.773 237.173 327.682C237.173 328.583 237.006 329.371 236.673 330.045C236.343 330.72 235.881 331.244 235.286 331.619C234.695 331.994 234.006 332.182 233.218 332.182ZM233.218 330.977C233.817 330.977 234.309 330.824 234.695 330.517C235.082 330.21 235.368 329.807 235.553 329.307C235.739 328.807 235.832 328.265 235.832 327.682C235.832 327.098 235.739 326.555 235.553 326.051C235.368 325.547 235.082 325.14 234.695 324.83C234.309 324.519 233.817 324.364 233.218 324.364C232.62 324.364 232.127 324.519 231.741 324.83C231.354 325.14 231.068 325.547 230.883 326.051C230.697 326.555 230.604 327.098 230.604 327.682C230.604 328.265 230.697 328.807 230.883 329.307C231.068 329.807 231.354 330.21 231.741 330.517C232.127 330.824 232.62 330.977 233.218 330.977ZM238.674 329.773H240.106C240.136 330.167 240.314 330.466 240.64 330.67C240.969 330.875 241.397 330.977 241.924 330.977C242.462 330.977 242.922 330.867 243.305 330.648C243.687 330.424 243.879 330.064 243.879 329.568C243.879 329.277 243.807 329.023 243.663 328.807C243.519 328.587 243.316 328.417 243.055 328.295C242.793 328.174 242.485 328.114 242.129 328.114H240.629V326.909H242.129C242.663 326.909 243.057 326.788 243.31 326.545C243.568 326.303 243.697 326 243.697 325.636C243.697 325.246 243.558 324.934 243.282 324.699C243.005 324.46 242.613 324.341 242.106 324.341C241.594 324.341 241.168 324.456 240.827 324.688C240.487 324.915 240.307 325.208 240.288 325.568H238.879C238.894 325.098 239.038 324.684 239.31 324.324C239.583 323.96 239.954 323.676 240.424 323.472C240.894 323.263 241.432 323.159 242.038 323.159C242.651 323.159 243.183 323.267 243.634 323.483C244.089 323.695 244.439 323.985 244.685 324.352C244.935 324.716 245.06 325.129 245.06 325.591C245.06 326.083 244.922 326.481 244.646 326.784C244.369 327.087 244.022 327.303 243.606 327.432V327.523C243.935 327.545 244.221 327.652 244.464 327.841C244.71 328.027 244.901 328.271 245.038 328.574C245.174 328.873 245.242 329.205 245.242 329.568C245.242 330.098 245.1 330.561 244.816 330.955C244.532 331.345 244.142 331.648 243.646 331.864C243.149 332.076 242.583 332.182 241.947 332.182C241.329 332.182 240.776 332.081 240.288 331.881C239.799 331.676 239.411 331.394 239.123 331.034C238.839 330.67 238.689 330.25 238.674 329.773ZM246.58 332L250.126 327.568L246.626 323.273H248.217L251.126 327H251.853V323.273H253.194V327H253.898L256.808 323.273H258.398L254.921 327.568L258.444 332H256.83L253.876 328.25H253.194V332H251.853V328.25H251.171L248.194 332H246.58ZM263.66 332.182C262.819 332.182 262.094 331.996 261.484 331.625C260.878 331.25 260.41 330.727 260.08 330.057C259.754 329.383 259.592 328.598 259.592 327.705C259.592 326.811 259.754 326.023 260.08 325.341C260.41 324.655 260.868 324.121 261.455 323.739C262.046 323.352 262.736 323.159 263.523 323.159C263.978 323.159 264.427 323.235 264.87 323.386C265.313 323.538 265.717 323.784 266.08 324.125C266.444 324.462 266.734 324.909 266.95 325.466C267.165 326.023 267.273 326.708 267.273 327.523V328.091H260.546V326.932H265.91C265.91 326.439 265.811 326 265.614 325.614C265.421 325.227 265.145 324.922 264.785 324.699C264.429 324.475 264.008 324.364 263.523 324.364C262.989 324.364 262.527 324.496 262.137 324.761C261.751 325.023 261.453 325.364 261.245 325.784C261.037 326.205 260.933 326.655 260.933 327.136V327.909C260.933 328.568 261.046 329.127 261.273 329.585C261.504 330.04 261.825 330.386 262.234 330.625C262.643 330.86 263.118 330.977 263.66 330.977C264.012 330.977 264.33 330.928 264.614 330.83C264.902 330.727 265.15 330.576 265.359 330.375C265.567 330.17 265.728 329.917 265.842 329.614L267.137 329.977C267.001 330.417 266.772 330.803 266.45 331.136C266.128 331.466 265.73 331.723 265.256 331.909C264.783 332.091 264.251 332.182 263.66 332.182Z" fill="#33434D" fill-opacity="0.5"/>
</svg>
