<svg width="420" height="336" viewBox="0 0 420 336" fill="none" xmlns="http://www.w3.org/2000/svg">
<path fill-rule="evenodd" clip-rule="evenodd" d="M404 35.5C404 36.8807 402.881 38 401.5 38C400.119 38 399 36.8807 399 35.5C399 34.1193 400.119 33 401.5 33C402.881 33 404 34.1193 404 35.5ZM403 35.5C403 36.3284 402.328 37 401.5 37C400.672 37 400 36.3284 400 35.5C400 34.6716 400.672 34 401.5 34C402.328 34 403 34.6716 403 35.5Z" fill="#002033"/>
<path fill-rule="evenodd" clip-rule="evenodd" d="M26.0628 145C26.1189 146.011 26.2119 147.011 26.3408 148H25.9999C26.1806 172.209 47.203 191 78.9999 191C111.158 191 132 171.364 132 143C132 142.146 131.982 141.304 131.946 140.474C131.982 139.657 132 138.832 132 138C132 111.081 114.125 96 90.9999 96C77.0118 96 67.6248 101.498 63.0131 109.976L62.9999 110H61.5172L63.9999 86H125V52H33.9999L27.9999 130H28.3845L27.9999 135H60.9999C64.0712 128.948 70.87 125 78.9999 125C88.3235 125 94.9002 130.774 95.8746 140.446C94.8537 150.251 87.6916 157 77.9999 157C69.1474 157 61.4452 151.762 59.9999 143H25.9999C26.0049 143.671 26.0259 144.338 26.0628 145ZM64.1902 112H58.7824L62.1961 79H123V54H35.852L30.1597 128H59.82C63.5099 121.814 70.7184 118 78.9999 118C84.5189 118 89.3181 119.865 92.7344 123.412C96.1455 126.954 97.9999 131.987 97.9999 138C97.9999 150.116 89.6801 159 77.9999 159C68.9435 159 60.673 153.899 58.3791 145H28.0665C29.3533 166.85 48.8846 184 78.9999 184C94.6733 184 107.411 179.22 116.208 171.162C124.992 163.117 130 151.668 130 138C130 125.001 125.696 115.047 118.78 108.341C111.85 101.623 102.128 98 90.9999 98C77.5502 98 68.9361 103.253 64.7579 110.954L64.1902 112Z" fill="#002033"/>
<path fill-rule="evenodd" clip-rule="evenodd" d="M395 146C395 130.946 386.598 120.183 371.022 116.165C382.153 111.741 389 102.515 389 89C389 88.1872 388.971 87.3805 388.914 86.5807C388.971 85.7387 389 84.8784 389 84C389 64.2173 371.977 48 340 48C308.489 48 288.237 63.8686 287.054 89C287.022 89.6603 287.005 90.327 287 91H287.29C287.109 92.625 287.012 94.2923 287 96H321C321.361 86.6958 328.431 81 339 81C347.753 81 352.798 85.1347 353.81 91.511C353.816 91.4752 353.821 91.4393 353.827 91.4034C352.808 98.2617 347.346 103 338.5 103H321V133H338C347.897 133 354.535 137.152 355.786 144.41C355.793 144.369 355.8 144.328 355.808 144.287C354.579 151.402 347.578 156 338 156C326.799 156 320.181 150.853 320 142H283C283.029 142.673 283.072 143.339 283.129 144C283.215 145.015 283.333 146.015 283.481 147H283C284.174 173.738 306.571 191 339 191C371.971 191 395 174.667 395 151C395 150.134 394.972 149.282 394.917 148.445C394.972 147.639 395 146.824 395 146ZM285.136 144C286.188 155.837 291.685 165.554 300.511 172.451C309.883 179.775 323.126 184 339 184C355.178 184 368.743 179.99 378.203 173.247C387.624 166.531 393 157.107 393 146C393 137.991 390.503 131.416 385.837 126.529C381.153 121.625 374.114 118.247 364.733 116.982L363 116.748V111.396L364.566 111.048C371.553 109.495 377.136 106.381 380.969 101.907C384.79 97.4479 387 91.4906 387 84C387 74.7273 383.03 66.3025 375.251 60.1502C367.44 53.9728 355.667 50 340 50C324.156 50 311.439 54.0947 302.702 61.1946C294.476 67.8793 289.628 77.3446 289.056 89H319.168C319.756 84.6778 321.749 81.0685 324.899 78.4686C328.473 75.5182 333.369 74 339 74C344.263 74 348.546 75.4006 351.534 78.1036C354.545 80.8277 356 84.657 356 89C356 93.5437 354.409 97.5972 351.312 100.506C348.223 103.408 343.821 105 338.5 105H323V126H338C343.791 126 348.77 127.349 352.349 130.093C355.994 132.887 358 136.988 358 142C358 146.852 355.829 150.925 352.184 153.734C348.579 156.513 343.618 158 338 158C332.123 158 327.181 156.653 323.639 153.898C320.523 151.474 318.654 148.085 318.141 144H285.136Z" fill="#002033"/>
<path d="M209.099 100.301C208.008 101.119 208.054 102.769 209.188 103.524L209.277 103.584C211.001 104.733 211.001 107.267 209.277 108.416C208.147 109.17 208.147 110.83 209.277 111.584C211.001 112.733 211.001 115.267 209.277 116.416C208.147 117.17 208.147 118.83 209.277 119.584C211.001 120.733 211.001 123.267 209.277 124.416C208.147 125.17 208.147 126.83 209.277 127.584C211.001 128.733 211.001 131.267 209.277 132.416C208.147 133.17 208.147 134.83 209.277 135.584L209.366 135.643C211.074 136.782 211.143 139.267 209.501 140.499L208.3 141.4C208.079 141.566 207.766 141.521 207.6 141.3C207.434 141.079 207.479 140.766 207.7 140.6L208.901 139.699C209.991 138.881 209.946 137.231 208.812 136.475L208.723 136.416C206.999 135.267 206.999 132.733 208.723 131.584C209.853 130.83 209.853 129.17 208.723 128.416C206.999 127.267 206.999 124.733 208.723 123.584C209.853 122.83 209.853 121.17 208.723 120.416C206.999 119.267 206.999 116.733 208.723 115.584C209.853 114.83 209.853 113.17 208.723 112.416C206.999 111.267 206.999 108.733 208.723 107.584C209.853 106.83 209.853 105.17 208.723 104.416L208.633 104.357C206.925 103.218 206.856 100.733 208.499 99.5009L209.7 98.6C209.921 98.4343 210.234 98.4791 210.4 98.7C210.566 98.9209 210.521 99.2343 210.3 99.4L209.099 100.301Z" fill="#002033"/>
<path fill-rule="evenodd" clip-rule="evenodd" d="M193.711 147.484C190.105 140.219 188 129.627 188 116C188 102.424 190.103 92.3012 193.739 85.4968C197.412 78.6217 202.755 75 209 75C215.281 75 220.378 78.6636 223.789 85.5517C227.155 92.3481 229 102.455 229 116C229 129.597 227.153 140.174 223.814 147.431C220.466 154.707 215.408 159 209 159C202.631 159 197.321 154.756 193.711 147.484ZM209 82C198.677 82 190.528 93.4163 190.025 118.507C190.528 143.793 198.677 157 209 157C219.323 157 226.534 143.792 226.978 118.507C226.534 93.4163 219.323 82 209 82Z" fill="#002033"/>
<path fill-rule="evenodd" clip-rule="evenodd" d="M151 116C151 116.842 151.009 117.677 151.026 118.506C151.009 119.33 151 120.162 151 121C151 164.179 173.77 191 209 191C244.139 191 266 164.088 266 121C266 120.16 265.992 119.327 265.975 118.502C265.992 117.674 266 116.84 266 116C266 72.731 243.958 48 209 48C174.041 48 151 72.731 151 116ZM249.126 165.896C258.614 154.236 264 137.228 264 116C264 94.6845 258.571 78.1974 249.087 67.0715C239.638 55.9852 225.976 50 209 50C192.02 50 178.098 55.989 168.396 67.0902C158.668 78.2216 153 94.7056 153 116C153 137.255 158.604 154.259 168.325 165.911C178.013 177.525 191.933 184 209 184C226.013 184 239.676 177.509 249.126 165.896Z" fill="#002033"/>
<path fill-rule="evenodd" clip-rule="evenodd" d="M397.737 187.041C398.113 186.598 398.794 186.718 398.996 187.263L401.573 194.232C401.785 194.805 401.312 195.413 400.733 195.311L393.352 194.009C392.773 193.907 392.536 193.174 392.932 192.708L397.737 187.041ZM398.577 188.838L397.592 188.664L397.071 191.619L398.056 191.792L398.577 188.838ZM396.897 192.603L397.882 192.777L397.708 193.762L396.724 193.588L396.897 192.603Z" fill="#002033"/>
<path fill-rule="evenodd" clip-rule="evenodd" d="M130.5 101C131.881 101 133 99.8807 133 98.5C133 97.1193 131.881 96 130.5 96C129.119 96 128 97.1193 128 98.5C128 99.8807 129.119 101 130.5 101ZM130.5 100C131.328 100 132 99.3284 132 98.5C132 97.6716 131.328 97 130.5 97C129.672 97 129 97.6716 129 98.5C129 99.3284 129.672 100 130.5 100Z" fill="#002033"/>
<path fill-rule="evenodd" clip-rule="evenodd" d="M287 192.5C287 193.881 285.881 195 284.5 195C283.119 195 282 193.881 282 192.5C282 191.119 283.119 190 284.5 190C285.881 190 287 191.119 287 192.5ZM286 192.5C286 193.328 285.328 194 284.5 194C283.672 194 283 193.328 283 192.5C283 191.672 283.672 191 284.5 191C285.328 191 286 191.672 286 192.5Z" fill="#002033"/>
<path fill-rule="evenodd" clip-rule="evenodd" d="M304.5 120C305.881 120 307 118.881 307 117.5C307 116.119 305.881 115 304.5 115C303.119 115 302 116.119 302 117.5C302 118.881 303.119 120 304.5 120ZM304.5 119C305.328 119 306 118.328 306 117.5C306 116.672 305.328 116 304.5 116C303.671 116 303 116.672 303 117.5C303 118.328 303.671 119 304.5 119Z" fill="#002033"/>
<path fill-rule="evenodd" clip-rule="evenodd" d="M192.5 42C193.881 42 195 40.8807 195 39.5C195 38.1193 193.881 37 192.5 37C191.119 37 190 38.1193 190 39.5C190 40.8807 191.119 42 192.5 42ZM192.5 41C193.328 41 194 40.3284 194 39.5C194 38.6716 193.328 38 192.5 38C191.672 38 191 38.6716 191 39.5C191 40.3284 191.672 41 192.5 41Z" fill="#002033"/>
<path fill-rule="evenodd" clip-rule="evenodd" d="M18.9999 187.5C18.9999 188.881 17.8806 190 16.4999 190C15.1192 190 13.9999 188.881 13.9999 187.5C13.9999 186.119 15.1192 185 16.4999 185C17.8806 185 18.9999 186.119 18.9999 187.5ZM17.9999 187.5C17.9999 188.328 17.3284 189 16.4999 189C15.6715 189 14.9999 188.328 14.9999 187.5C14.9999 186.672 15.6715 186 16.4999 186C17.3284 186 17.9999 186.672 17.9999 187.5Z" fill="#002033"/>
<path d="M122.699 35.0987C121.881 34.0085 120.231 34.0543 119.475 35.1881L119.416 35.2773C118.267 37.0013 115.733 37.0013 114.584 35.2773C113.83 34.147 112.17 34.147 111.416 35.2773C110.267 37.0013 107.733 37.0013 106.584 35.2773C105.83 34.147 104.17 34.147 103.416 35.2773C102.267 37.0013 99.7333 37.0013 98.584 35.2773C97.8304 34.147 96.1695 34.147 95.416 35.2773C94.2667 37.0013 91.7333 37.0013 90.584 35.2773C89.8304 34.147 88.1695 34.147 87.416 35.2773L87.3566 35.3665C86.2179 37.0745 83.7326 37.1434 82.501 35.5013L81.6 34.3C81.4343 34.0791 81.4791 33.7657 81.7 33.6C81.9209 33.4343 82.2343 33.4791 82.4 33.7L83.301 34.9013C84.1186 35.9915 85.7686 35.9457 86.5245 34.8118L86.584 34.7226C87.7333 32.9986 90.2667 32.9986 91.416 34.7226C92.1695 35.8529 93.8304 35.8529 94.584 34.7226C95.7333 32.9986 98.2667 32.9986 99.416 34.7226C100.17 35.8529 101.83 35.8529 102.584 34.7226C103.733 32.9986 106.267 32.9986 107.416 34.7226C108.17 35.8529 109.83 35.8529 110.584 34.7226C111.733 32.9986 114.267 32.9986 115.416 34.7226C116.17 35.8529 117.83 35.8529 118.584 34.7226L118.643 34.6334C119.782 32.9255 122.267 32.8565 123.499 34.4987L124.4 35.7C124.566 35.9209 124.521 36.2343 124.3 36.4C124.079 36.5657 123.766 36.5209 123.6 36.3L122.699 35.0987Z" fill="#002033"/>
<path d="M356.476 201.188C357.231 200.054 358.881 200.008 359.699 201.099L360.6 202.3C360.766 202.521 361.079 202.566 361.3 202.4C361.521 202.234 361.566 201.921 361.4 201.7L360.499 200.499C359.267 198.856 356.782 198.925 355.643 200.633L355.584 200.723C354.831 201.853 353.17 201.853 352.416 200.723C351.267 198.999 348.733 198.999 347.584 200.723C346.831 201.853 345.17 201.853 344.416 200.723C343.267 198.999 340.733 198.999 339.584 200.723C338.831 201.853 337.17 201.853 336.416 200.723C335.267 198.999 332.733 198.999 331.584 200.723C330.831 201.853 329.17 201.853 328.416 200.723C327.267 198.999 324.733 198.999 323.584 200.723L323.525 200.812C322.769 201.946 321.119 201.991 320.301 200.901L319.4 199.7C319.234 199.479 318.921 199.434 318.7 199.6C318.479 199.766 318.434 200.079 318.6 200.3L319.501 201.501C320.733 203.143 323.218 203.074 324.357 201.367L324.416 201.277C325.17 200.147 326.831 200.147 327.584 201.277C328.733 203.001 331.267 203.001 332.416 201.277C333.17 200.147 334.831 200.147 335.584 201.277C336.733 203.001 339.267 203.001 340.416 201.277C341.17 200.147 342.831 200.147 343.584 201.277C344.733 203.001 347.267 203.001 348.416 201.277C349.17 200.147 350.831 200.147 351.584 201.277C352.733 203.001 355.267 203.001 356.416 201.277L356.476 201.188Z" fill="#002033"/>
<path d="M14.7028 87.3744C13.5497 88.1006 13.4609 89.7488 14.5294 90.5946L14.6135 90.6611C16.2381 91.947 16.0318 94.472 14.2199 95.4771C13.032 96.136 12.8967 97.7914 13.9618 98.6345C15.5865 99.9205 15.3801 102.445 13.5682 103.45C12.3803 104.109 12.245 105.765 13.3102 106.608C14.9348 107.894 14.7285 110.419 12.9166 111.424C11.7286 112.083 11.5934 113.738 12.6585 114.581C14.2832 115.867 14.0768 118.392 12.2649 119.397C11.077 120.056 10.9417 121.712 12.0068 122.555L12.0909 122.621C13.7004 123.895 13.5667 126.378 11.8297 127.472L10.559 128.272C10.3253 128.419 10.0166 128.349 9.86946 128.115C9.72232 127.881 9.79247 127.573 10.0261 127.426L11.2968 126.625C12.45 125.899 12.5388 124.251 11.4703 123.405L11.3862 123.339C9.76154 122.053 9.9679 119.528 11.7798 118.523C12.9677 117.864 13.103 116.209 12.0379 115.365C10.4132 114.079 10.6196 111.555 12.4315 110.549C13.6194 109.89 13.7547 108.235 12.6895 107.392C11.0649 106.106 11.2712 103.581 13.0831 102.576C14.271 101.917 14.4063 100.262 13.3412 99.4186C11.7165 98.1326 11.9229 95.6077 13.7348 94.6026C14.9227 93.9437 15.058 92.2883 13.9928 91.4452L13.9088 91.3787C12.2993 90.1047 12.433 87.622 14.17 86.5282L15.4407 85.7281C15.6744 85.581 15.9831 85.6511 16.1302 85.8848C16.2774 86.1185 16.2072 86.4272 15.9735 86.5743L14.7028 87.3744Z" fill="#002033"/>
<path d="M403.517 63.7829C404.853 63.5156 406.052 64.6499 405.859 65.999L405.647 67.4855C405.608 67.7589 405.798 68.0121 406.071 68.0512C406.345 68.0902 406.598 67.9003 406.637 67.6269L406.849 66.1404C407.14 64.1083 405.333 62.3997 403.321 62.8023L403.216 62.8233C401.883 63.0897 400.709 61.9153 400.975 60.5832C401.382 58.5514 399.59 56.7601 397.559 57.1664C396.227 57.4328 395.052 56.2584 395.319 54.9264C395.725 52.8946 393.934 51.1032 391.902 51.5096C390.57 51.776 389.395 50.6016 389.662 49.2695C390.068 47.2377 388.277 45.4464 386.245 45.8527C384.913 46.1191 383.738 44.9447 384.005 43.6127C384.411 41.5809 382.62 39.7895 380.588 40.1959L380.483 40.2169C379.147 40.4842 377.948 39.3498 378.14 38.0008L378.353 36.5142C378.392 36.2409 378.202 35.9876 377.928 35.9486C377.655 35.9095 377.402 36.0994 377.363 36.3728L377.15 37.8593C376.86 39.8914 378.666 41.6 380.679 41.1975L380.784 41.1765C382.116 40.91 383.291 42.0845 383.024 43.4165C382.618 45.4483 384.409 47.2397 386.441 46.8333C387.773 46.5669 388.948 47.7413 388.681 49.0734C388.275 51.1052 390.066 52.8965 392.098 52.4902C393.43 52.2238 394.604 53.3982 394.338 54.7302C393.932 56.762 395.723 58.5534 397.755 58.147C399.087 57.8806 400.261 59.055 399.995 60.3871C399.589 62.4189 401.38 64.2102 403.412 63.8039L403.517 63.7829Z" fill="#002033"/>
<path d="M276.5 85V89.3074C276.5 90.7292 275.634 92.0077 274.314 92.5358C272.615 93.2157 271.5 94.8619 271.5 96.6926V101C271.5 101.276 271.724 101.5 272 101.5C272.276 101.5 272.5 101.276 272.5 101V96.6926C272.5 95.2708 273.366 93.9923 274.686 93.4642C276.385 92.7843 277.5 91.1381 277.5 89.3074V85C277.5 84.7239 277.276 84.5 277 84.5C276.724 84.5 276.5 84.7239 276.5 85Z" fill="#002033"/>
<path d="M46.1522 202.256L50.1349 203.896C50.3903 204.002 50.512 204.294 50.4068 204.549C50.3016 204.805 50.0093 204.926 49.754 204.821L45.7713 203.18C44.0787 202.483 42.9811 200.825 42.9999 198.995C43.0145 197.573 42.162 196.286 40.8475 195.744L36.8648 194.104C36.6094 193.998 36.4877 193.706 36.5929 193.451C36.6981 193.195 36.9903 193.074 37.2457 193.179L41.2284 194.82C42.921 195.517 44.0186 197.175 43.9998 199.005C43.9852 200.427 44.8376 201.714 46.1522 202.256Z" fill="#002033"/>
<path d="M413.5 138V142.307C413.5 143.729 412.634 145.008 411.314 145.536C409.615 146.216 408.5 147.862 408.5 149.693V154C408.5 154.276 408.724 154.5 409 154.5C409.276 154.5 409.5 154.276 409.5 154V149.693C409.5 148.271 410.366 146.992 411.686 146.464C413.385 145.784 414.5 144.138 414.5 142.307V138C414.5 137.724 414.276 137.5 414 137.5C413.724 137.5 413.5 137.724 413.5 138Z" fill="#002033"/>
<path d="M248.501 188.472C248.42 189.891 247.483 191.118 246.135 191.57L242.051 192.94C241.789 193.028 241.648 193.311 241.736 193.573C241.824 193.835 242.107 193.976 242.369 193.888L246.453 192.518C248.189 191.936 249.395 190.356 249.499 188.528C249.58 187.109 250.517 185.882 251.865 185.43L255.949 184.06C256.211 183.972 256.352 183.689 256.264 183.427C256.176 183.165 255.893 183.024 255.631 183.112L251.547 184.482C249.811 185.064 248.605 186.644 248.501 188.472Z" fill="#002033"/>
<path fill-rule="evenodd" clip-rule="evenodd" d="M10.2411 43.5427C10.4428 42.9972 11.1242 42.877 11.5003 43.3206L16.3051 48.9873C16.7006 49.4538 16.4642 50.1863 15.8853 50.2884L8.50369 51.59C7.92478 51.6921 7.45211 51.0845 7.66421 50.511L10.2411 43.5427ZM11.645 44.9435L10.6602 45.1172L11.1811 48.0716L12.1659 47.898L11.645 44.9435ZM11.3548 49.0564L12.3396 48.8828L12.5132 49.8676L11.5284 50.0412L11.3548 49.0564Z" fill="#002033"/>
<path fill-rule="evenodd" clip-rule="evenodd" d="M152.385 170.7C152.183 170.155 151.502 170.035 151.126 170.478L146.321 176.145C145.925 176.611 146.162 177.344 146.741 177.446L154.122 178.748C154.701 178.85 155.174 178.242 154.962 177.669L152.385 170.7ZM150.981 172.101L151.966 172.275L151.445 175.229L150.46 175.056L150.981 172.101ZM151.271 176.214L150.286 176.04L150.113 177.025L151.098 177.199L151.271 176.214Z" fill="#002033"/>
<path fill-rule="evenodd" clip-rule="evenodd" d="M294.478 43.2634C294.68 42.7179 295.361 42.5977 295.737 43.0413L300.542 48.7081C300.938 49.1745 300.701 49.907 300.122 50.0091L292.741 51.3107C292.162 51.4128 291.689 50.8052 291.901 50.2317L294.478 43.2634ZM295.882 44.6642L294.897 44.8379L295.418 47.7923L296.403 47.6187L295.882 44.6642ZM295.592 48.7771L296.577 48.6035L296.75 49.5883L295.766 49.7619L295.592 48.7771Z" fill="#002033"/>
<path d="M85.9155 269.196V266.545H99.8416V269.196H94.4467V284H91.3104V269.196H85.9155ZM106.287 284.256C104.974 284.256 103.841 283.983 102.886 283.438C101.938 282.886 101.207 282.108 100.696 281.102C100.185 280.091 99.929 278.901 99.929 277.531C99.929 276.185 100.185 275.003 100.696 273.986C101.213 272.963 101.935 272.168 102.861 271.599C103.787 271.026 104.875 270.739 106.125 270.739C106.932 270.739 107.693 270.869 108.409 271.131C109.131 271.386 109.767 271.784 110.318 272.324C110.875 272.864 111.313 273.551 111.631 274.386C111.949 275.216 112.108 276.205 112.108 277.352V278.298H101.378V276.219H109.151C109.145 275.628 109.017 275.102 108.767 274.642C108.517 274.176 108.168 273.81 107.719 273.543C107.276 273.276 106.759 273.142 106.168 273.142C105.537 273.142 104.983 273.295 104.506 273.602C104.028 273.903 103.656 274.301 103.389 274.795C103.128 275.284 102.994 275.821 102.989 276.406V278.222C102.989 278.983 103.128 279.636 103.406 280.182C103.685 280.722 104.074 281.136 104.574 281.426C105.074 281.71 105.659 281.852 106.33 281.852C106.778 281.852 107.185 281.79 107.548 281.665C107.912 281.534 108.227 281.344 108.494 281.094C108.761 280.844 108.963 280.534 109.099 280.165L111.98 280.489C111.798 281.25 111.452 281.915 110.94 282.483C110.435 283.045 109.787 283.483 108.997 283.795C108.207 284.102 107.304 284.256 106.287 284.256ZM116.96 270.909L119.602 275.741L122.286 270.909H125.55L121.604 277.455L125.619 284H122.371L119.602 279.287L116.857 284H113.585L117.573 277.455L113.687 270.909H116.96ZM136.928 276.176V278.707H129.957V276.176H136.928ZM130.911 270.909V284H127.937V270.909H130.911ZM138.948 270.909V284H135.982V270.909H138.948ZM145.044 279.824L150.286 270.909H153.456V284H150.473V275.077L145.249 284H142.07V270.909H145.044V279.824ZM167.559 270.909V284H164.593V270.909H167.559ZM166.17 276.824V279.347C165.835 279.494 165.454 279.628 165.028 279.747C164.607 279.861 164.161 279.952 163.69 280.02C163.224 280.088 162.758 280.122 162.292 280.122C160.542 280.122 159.158 279.73 158.141 278.946C157.13 278.156 156.624 276.926 156.624 275.256V270.892H159.573V275.256C159.573 275.818 159.673 276.27 159.871 276.611C160.07 276.952 160.371 277.202 160.775 277.361C161.178 277.514 161.684 277.591 162.292 277.591C162.974 277.591 163.621 277.523 164.235 277.386C164.849 277.25 165.494 277.062 166.17 276.824ZM176.459 284.256C175.146 284.256 174.013 283.983 173.058 283.438C172.109 282.886 171.379 282.108 170.868 281.102C170.357 280.091 170.101 278.901 170.101 277.531C170.101 276.185 170.357 275.003 170.868 273.986C171.385 272.963 172.107 272.168 173.033 271.599C173.959 271.026 175.047 270.739 176.297 270.739C177.104 270.739 177.865 270.869 178.581 271.131C179.303 271.386 179.939 271.784 180.49 272.324C181.047 272.864 181.484 273.551 181.803 274.386C182.121 275.216 182.28 276.205 182.28 277.352V278.298H171.55V276.219H179.322C179.317 275.628 179.189 275.102 178.939 274.642C178.689 274.176 178.339 273.81 177.891 273.543C177.447 273.276 176.93 273.142 176.339 273.142C175.709 273.142 175.155 273.295 174.678 273.602C174.2 273.903 173.828 274.301 173.561 274.795C173.3 275.284 173.166 275.821 173.161 276.406V278.222C173.161 278.983 173.3 279.636 173.578 280.182C173.857 280.722 174.246 281.136 174.746 281.426C175.246 281.71 175.831 281.852 176.501 281.852C176.95 281.852 177.357 281.79 177.72 281.665C178.084 281.534 178.399 281.344 178.666 281.094C178.933 280.844 179.135 280.534 179.271 280.165L182.152 280.489C181.97 281.25 181.624 281.915 181.112 282.483C180.607 283.045 179.959 283.483 179.169 283.795C178.379 284.102 177.476 284.256 176.459 284.256ZM190.6 284.256C189.293 284.256 188.171 283.969 187.234 283.395C186.302 282.821 185.583 282.028 185.077 281.017C184.577 280 184.327 278.83 184.327 277.506C184.327 276.176 184.583 275.003 185.094 273.986C185.606 272.963 186.327 272.168 187.259 271.599C188.197 271.026 189.305 270.739 190.583 270.739C191.646 270.739 192.586 270.935 193.404 271.327C194.228 271.713 194.884 272.261 195.373 272.972C195.862 273.676 196.14 274.5 196.208 275.443H193.259C193.14 274.812 192.856 274.287 192.407 273.866C191.964 273.44 191.37 273.227 190.626 273.227C189.995 273.227 189.441 273.398 188.964 273.739C188.487 274.074 188.114 274.557 187.847 275.188C187.586 275.818 187.455 276.574 187.455 277.455C187.455 278.347 187.586 279.114 187.847 279.756C188.109 280.392 188.475 280.884 188.947 281.23C189.424 281.571 189.984 281.741 190.626 281.741C191.08 281.741 191.487 281.656 191.844 281.486C192.208 281.31 192.512 281.057 192.756 280.727C193.001 280.398 193.168 279.997 193.259 279.526H196.208C196.134 280.452 195.862 281.273 195.39 281.989C194.918 282.699 194.276 283.256 193.464 283.659C192.651 284.057 191.697 284.256 190.6 284.256ZM198.741 284V270.909H201.827V276.193H202.952L206.889 270.909H210.605L205.756 277.335L210.656 284H206.923L203.335 279.065H201.827V284H198.741ZM215.38 279.824L220.621 270.909H223.792V284H220.809V275.077L215.585 284H212.406V270.909H215.38V279.824ZM232.756 284.256C231.443 284.256 230.31 283.983 229.355 283.438C228.406 282.886 227.676 282.108 227.165 281.102C226.653 280.091 226.398 278.901 226.398 277.531C226.398 276.185 226.653 275.003 227.165 273.986C227.682 272.963 228.403 272.168 229.33 271.599C230.256 271.026 231.344 270.739 232.594 270.739C233.401 270.739 234.162 270.869 234.878 271.131C235.599 271.386 236.236 271.784 236.787 272.324C237.344 272.864 237.781 273.551 238.099 274.386C238.418 275.216 238.577 276.205 238.577 277.352V278.298H227.847V276.219H235.619C235.614 275.628 235.486 275.102 235.236 274.642C234.986 274.176 234.636 273.81 234.188 273.543C233.744 273.276 233.227 273.142 232.636 273.142C232.006 273.142 231.452 273.295 230.974 273.602C230.497 273.903 230.125 274.301 229.858 274.795C229.597 275.284 229.463 275.821 229.457 276.406V278.222C229.457 278.983 229.597 279.636 229.875 280.182C230.153 280.722 230.543 281.136 231.043 281.426C231.543 281.71 232.128 281.852 232.798 281.852C233.247 281.852 233.653 281.79 234.017 281.665C234.381 281.534 234.696 281.344 234.963 281.094C235.23 280.844 235.432 280.534 235.568 280.165L238.449 280.489C238.267 281.25 237.92 281.915 237.409 282.483C236.903 283.045 236.256 283.483 235.466 283.795C234.676 284.102 233.773 284.256 232.756 284.256ZM247.14 288.909V270.909H250.174V273.074H250.353C250.512 272.756 250.737 272.418 251.026 272.06C251.316 271.696 251.708 271.386 252.202 271.131C252.697 270.869 253.327 270.739 254.094 270.739C255.106 270.739 256.018 270.997 256.83 271.514C257.648 272.026 258.296 272.784 258.773 273.79C259.256 274.79 259.498 276.017 259.498 277.472C259.498 278.909 259.262 280.131 258.79 281.136C258.319 282.142 257.677 282.909 256.864 283.438C256.052 283.966 255.131 284.23 254.103 284.23C253.353 284.23 252.731 284.105 252.237 283.855C251.742 283.605 251.344 283.304 251.043 282.952C250.748 282.594 250.518 282.256 250.353 281.938H250.225V288.909H247.14ZM250.165 277.455C250.165 278.301 250.285 279.043 250.523 279.679C250.768 280.315 251.117 280.812 251.572 281.17C252.032 281.523 252.589 281.699 253.242 281.699C253.924 281.699 254.495 281.517 254.955 281.153C255.415 280.784 255.762 280.281 255.995 279.645C256.234 279.003 256.353 278.273 256.353 277.455C256.353 276.642 256.237 275.92 256.004 275.29C255.771 274.659 255.424 274.165 254.964 273.807C254.504 273.449 253.93 273.27 253.242 273.27C252.583 273.27 252.023 273.443 251.563 273.79C251.103 274.136 250.754 274.622 250.515 275.247C250.282 275.872 250.165 276.608 250.165 277.455ZM265.907 284.264C265.077 284.264 264.33 284.116 263.665 283.821C263.006 283.52 262.484 283.077 262.097 282.491C261.717 281.906 261.526 281.185 261.526 280.327C261.526 279.588 261.663 278.977 261.935 278.494C262.208 278.011 262.58 277.625 263.052 277.335C263.523 277.045 264.055 276.827 264.646 276.679C265.242 276.526 265.859 276.415 266.495 276.347C267.262 276.267 267.884 276.196 268.362 276.134C268.839 276.065 269.185 275.963 269.401 275.827C269.623 275.685 269.734 275.466 269.734 275.17V275.119C269.734 274.477 269.543 273.98 269.163 273.628C268.782 273.276 268.234 273.099 267.518 273.099C266.762 273.099 266.163 273.264 265.719 273.594C265.282 273.923 264.987 274.312 264.833 274.761L261.952 274.352C262.18 273.557 262.555 272.892 263.077 272.358C263.6 271.818 264.239 271.415 264.995 271.148C265.751 270.875 266.586 270.739 267.501 270.739C268.131 270.739 268.759 270.812 269.384 270.96C270.009 271.108 270.58 271.352 271.097 271.693C271.614 272.028 272.029 272.486 272.342 273.065C272.66 273.645 272.819 274.369 272.819 275.239V284H269.853V282.202H269.751C269.563 282.565 269.299 282.906 268.958 283.224C268.623 283.537 268.2 283.79 267.688 283.983C267.183 284.17 266.589 284.264 265.907 284.264ZM266.708 281.997C267.327 281.997 267.864 281.875 268.319 281.631C268.773 281.381 269.123 281.051 269.367 280.642C269.617 280.233 269.742 279.787 269.742 279.304V277.761C269.646 277.841 269.481 277.915 269.248 277.983C269.021 278.051 268.765 278.111 268.481 278.162C268.197 278.213 267.915 278.259 267.637 278.298C267.359 278.338 267.117 278.372 266.913 278.401C266.452 278.463 266.04 278.565 265.677 278.707C265.313 278.849 265.026 279.048 264.816 279.304C264.606 279.554 264.501 279.878 264.501 280.276C264.501 280.844 264.708 281.273 265.123 281.562C265.538 281.852 266.066 281.997 266.708 281.997ZM286.413 266.068L287.487 268.062C287.106 268.392 286.68 268.631 286.208 268.778C285.737 268.926 285.183 269.023 284.546 269.068C283.915 269.108 283.165 269.136 282.296 269.153C281.319 269.176 280.521 269.361 279.901 269.707C279.282 270.054 278.808 270.58 278.478 271.284C278.148 271.983 277.933 272.875 277.83 273.96H277.975C278.384 273.159 278.958 272.548 279.697 272.128C280.435 271.707 281.302 271.497 282.296 271.497C283.381 271.497 284.339 271.741 285.168 272.23C286.004 272.713 286.654 273.415 287.12 274.335C287.592 275.256 287.827 276.369 287.827 277.676C287.827 279.023 287.575 280.19 287.069 281.179C286.563 282.162 285.844 282.92 284.913 283.455C283.987 283.989 282.887 284.256 281.614 284.256C280.347 284.256 279.245 283.98 278.308 283.429C277.376 282.872 276.654 282.051 276.143 280.966C275.637 279.875 275.384 278.531 275.384 276.935V275.759C275.384 272.679 275.958 270.381 277.106 268.864C278.254 267.347 279.955 266.574 282.211 266.545C282.881 266.534 283.481 266.531 284.009 266.537C284.543 266.543 285.009 266.517 285.407 266.46C285.805 266.403 286.14 266.273 286.413 266.068ZM281.631 281.784C282.262 281.784 282.808 281.622 283.268 281.298C283.728 280.969 284.08 280.503 284.325 279.901C284.575 279.298 284.7 278.585 284.7 277.761C284.7 276.949 284.575 276.259 284.325 275.69C284.075 275.116 283.719 274.679 283.259 274.378C282.799 274.077 282.251 273.926 281.614 273.926C281.137 273.926 280.708 274.011 280.327 274.182C279.947 274.352 279.623 274.602 279.356 274.932C279.089 275.261 278.884 275.662 278.742 276.134C278.6 276.605 278.523 277.148 278.512 277.761C278.512 278.994 278.79 279.974 279.347 280.702C279.904 281.423 280.665 281.784 281.631 281.784ZM296.163 284.256C294.884 284.256 293.776 283.974 292.839 283.412C291.901 282.849 291.174 282.062 290.657 281.051C290.146 280.04 289.89 278.858 289.89 277.506C289.89 276.153 290.146 274.969 290.657 273.952C291.174 272.935 291.901 272.145 292.839 271.582C293.776 271.02 294.884 270.739 296.163 270.739C297.441 270.739 298.549 271.02 299.487 271.582C300.424 272.145 301.148 272.935 301.66 273.952C302.177 274.969 302.435 276.153 302.435 277.506C302.435 278.858 302.177 280.04 301.66 281.051C301.148 282.062 300.424 282.849 299.487 283.412C298.549 283.974 297.441 284.256 296.163 284.256ZM296.18 281.784C296.873 281.784 297.452 281.594 297.918 281.213C298.384 280.827 298.731 280.31 298.958 279.662C299.191 279.014 299.308 278.293 299.308 277.497C299.308 276.696 299.191 275.972 298.958 275.324C298.731 274.67 298.384 274.151 297.918 273.764C297.452 273.378 296.873 273.185 296.18 273.185C295.469 273.185 294.879 273.378 294.407 273.764C293.941 274.151 293.592 274.67 293.359 275.324C293.131 275.972 293.018 276.696 293.018 277.497C293.018 278.293 293.131 279.014 293.359 279.662C293.592 280.31 293.941 280.827 294.407 281.213C294.879 281.594 295.469 281.784 296.18 281.784ZM303.612 273.44V270.909H315.066V273.44H310.83V284H307.847V273.44H303.612ZM319.611 275.17H323.472C325.142 275.17 326.435 275.577 327.349 276.389C328.264 277.202 328.724 278.267 328.73 279.585C328.724 280.443 328.514 281.205 328.099 281.869C327.69 282.534 327.094 283.057 326.31 283.438C325.531 283.812 324.585 284 323.472 284H317.523V270.909H320.497V281.469H323.472C324.142 281.469 324.693 281.298 325.125 280.957C325.557 280.611 325.773 280.168 325.773 279.628C325.773 279.06 325.557 278.597 325.125 278.239C324.693 277.881 324.142 277.702 323.472 277.702H319.611V275.17ZM330.358 284V270.909H333.443V284H330.358Z" fill="#002033"/>
<path d="M57.1477 305H55.7386C55.6553 304.595 55.5095 304.239 55.3011 303.932C55.0966 303.625 54.8466 303.367 54.5511 303.159C54.2595 302.947 53.9356 302.788 53.5795 302.682C53.2235 302.576 52.8523 302.523 52.4659 302.523C51.7614 302.523 51.1231 302.701 50.5511 303.057C49.983 303.413 49.5303 303.938 49.1932 304.631C48.8598 305.324 48.6932 306.174 48.6932 307.182C48.6932 308.189 48.8598 309.04 49.1932 309.733C49.5303 310.426 49.983 310.951 50.5511 311.307C51.1231 311.663 51.7614 311.841 52.4659 311.841C52.8523 311.841 53.2235 311.788 53.5795 311.682C53.9356 311.576 54.2595 311.419 54.5511 311.21C54.8466 310.998 55.0966 310.739 55.3011 310.432C55.5095 310.121 55.6553 309.765 55.7386 309.364H57.1477C57.0417 309.958 56.8485 310.491 56.5682 310.96C56.2879 311.43 55.9394 311.83 55.5227 312.159C55.1061 312.485 54.6383 312.733 54.1193 312.903C53.6042 313.074 53.053 313.159 52.4659 313.159C51.4735 313.159 50.5909 312.917 49.8182 312.432C49.0455 311.947 48.4375 311.258 47.9943 310.364C47.5511 309.47 47.3295 308.409 47.3295 307.182C47.3295 305.955 47.5511 304.894 47.9943 304C48.4375 303.106 49.0455 302.417 49.8182 301.932C50.5909 301.447 51.4735 301.205 52.4659 301.205C53.053 301.205 53.6042 301.29 54.1193 301.46C54.6383 301.631 55.1061 301.881 55.5227 302.21C55.9394 302.536 56.2879 302.934 56.5682 303.403C56.8485 303.869 57.0417 304.402 57.1477 305ZM59.2429 313V304.273H60.5838V308.068H61.4702L64.6065 304.273H66.3338L62.8111 308.477L66.3793 313H64.652L61.7884 309.318H60.5838V313H59.2429ZM71.0227 313.182C70.2348 313.182 69.5436 312.994 68.9489 312.619C68.358 312.244 67.8958 311.72 67.5625 311.045C67.233 310.371 67.0682 309.583 67.0682 308.682C67.0682 307.773 67.233 306.979 67.5625 306.301C67.8958 305.623 68.358 305.097 68.9489 304.722C69.5436 304.347 70.2348 304.159 71.0227 304.159C71.8106 304.159 72.5 304.347 73.0909 304.722C73.6856 305.097 74.1477 305.623 74.4773 306.301C74.8106 306.979 74.9773 307.773 74.9773 308.682C74.9773 309.583 74.8106 310.371 74.4773 311.045C74.1477 311.72 73.6856 312.244 73.0909 312.619C72.5 312.994 71.8106 313.182 71.0227 313.182ZM71.0227 311.977C71.6212 311.977 72.1136 311.824 72.5 311.517C72.8864 311.21 73.1723 310.807 73.358 310.307C73.5436 309.807 73.6364 309.265 73.6364 308.682C73.6364 308.098 73.5436 307.555 73.358 307.051C73.1723 306.547 72.8864 306.14 72.5 305.83C72.1136 305.519 71.6212 305.364 71.0227 305.364C70.4242 305.364 69.9318 305.519 69.5455 305.83C69.1591 306.14 68.8731 306.547 68.6875 307.051C68.5019 307.555 68.4091 308.098 68.4091 308.682C68.4091 309.265 68.5019 309.807 68.6875 310.307C68.8731 310.807 69.1591 311.21 69.5455 311.517C69.9318 311.824 70.4242 311.977 71.0227 311.977ZM77.0241 316.273V304.273H78.3196V305.659H78.4787C78.5772 305.508 78.7135 305.314 78.8878 305.08C79.0658 304.841 79.3196 304.629 79.6491 304.443C79.9825 304.254 80.4332 304.159 81.0014 304.159C81.7363 304.159 82.384 304.343 82.9446 304.71C83.5052 305.078 83.9427 305.598 84.2571 306.273C84.5715 306.947 84.7287 307.742 84.7287 308.659C84.7287 309.583 84.5715 310.384 84.2571 311.062C83.9427 311.737 83.5071 312.259 82.9503 312.631C82.3935 312.998 81.7514 313.182 81.0241 313.182C80.4635 313.182 80.0147 313.089 79.6776 312.903C79.3404 312.714 79.081 312.5 78.8991 312.261C78.7173 312.019 78.5772 311.818 78.4787 311.659H78.3651V316.273H77.0241ZM78.3423 308.636C78.3423 309.295 78.4389 309.877 78.6321 310.381C78.8253 310.881 79.1075 311.273 79.4787 311.557C79.8499 311.837 80.3045 311.977 80.8423 311.977C81.4029 311.977 81.8707 311.83 82.2457 311.534C82.6245 311.235 82.9086 310.833 83.098 310.33C83.2912 309.822 83.3878 309.258 83.3878 308.636C83.3878 308.023 83.2931 307.47 83.1037 306.977C82.9181 306.481 82.6359 306.089 82.2571 305.801C81.8821 305.509 81.4105 305.364 80.8423 305.364C80.2969 305.364 79.8385 305.502 79.4673 305.778C79.0961 306.051 78.8158 306.434 78.6264 306.926C78.437 307.415 78.3423 307.985 78.3423 308.636ZM90.4332 313.182C89.5923 313.182 88.867 312.996 88.2571 312.625C87.651 312.25 87.1832 311.727 86.8537 311.057C86.5279 310.383 86.3651 309.598 86.3651 308.705C86.3651 307.811 86.5279 307.023 86.8537 306.341C87.1832 305.655 87.6416 305.121 88.2287 304.739C88.8196 304.352 89.509 304.159 90.2969 304.159C90.7514 304.159 91.2003 304.235 91.6435 304.386C92.0866 304.538 92.4901 304.784 92.8537 305.125C93.2173 305.462 93.5071 305.909 93.723 306.466C93.9389 307.023 94.0469 307.708 94.0469 308.523V309.091H87.3196V307.932H92.6832C92.6832 307.439 92.5848 307 92.3878 306.614C92.1946 306.227 91.9181 305.922 91.5582 305.699C91.2022 305.475 90.7817 305.364 90.2969 305.364C89.7628 305.364 89.3007 305.496 88.9105 305.761C88.5241 306.023 88.2268 306.364 88.0185 306.784C87.8101 307.205 87.706 307.655 87.706 308.136V308.909C87.706 309.568 87.8196 310.127 88.0469 310.585C88.2779 311.04 88.598 311.386 89.0071 311.625C89.4162 311.86 89.8916 311.977 90.4332 311.977C90.7855 311.977 91.1037 311.928 91.3878 311.83C91.6757 311.727 91.9238 311.576 92.1321 311.375C92.3404 311.17 92.5014 310.917 92.6151 310.614L93.9105 310.977C93.7741 311.417 93.545 311.803 93.223 312.136C92.901 312.466 92.5033 312.723 92.0298 312.909C91.5563 313.091 91.0241 313.182 90.4332 313.182ZM99.7457 313.182C98.9048 313.182 98.1795 312.996 97.5696 312.625C96.9635 312.25 96.4957 311.727 96.1662 311.057C95.8404 310.383 95.6776 309.598 95.6776 308.705C95.6776 307.811 95.8404 307.023 96.1662 306.341C96.4957 305.655 96.9541 305.121 97.5412 304.739C98.1321 304.352 98.8215 304.159 99.6094 304.159C100.064 304.159 100.513 304.235 100.956 304.386C101.399 304.538 101.803 304.784 102.166 305.125C102.53 305.462 102.82 305.909 103.036 306.466C103.251 307.023 103.359 307.708 103.359 308.523V309.091H96.6321V307.932H101.996C101.996 307.439 101.897 307 101.7 306.614C101.507 306.227 101.231 305.922 100.871 305.699C100.515 305.475 100.094 305.364 99.6094 305.364C99.0753 305.364 98.6132 305.496 98.223 305.761C97.8366 306.023 97.5393 306.364 97.331 306.784C97.1226 307.205 97.0185 307.655 97.0185 308.136V308.909C97.0185 309.568 97.1321 310.127 97.3594 310.585C97.5904 311.04 97.9105 311.386 98.3196 311.625C98.7287 311.86 99.2041 311.977 99.7457 311.977C100.098 311.977 100.416 311.928 100.7 311.83C100.988 311.727 101.236 311.576 101.445 311.375C101.653 311.17 101.814 310.917 101.928 310.614L103.223 310.977C103.087 311.417 102.857 311.803 102.536 312.136C102.214 312.466 101.816 312.723 101.342 312.909C100.869 313.091 100.337 313.182 99.7457 313.182ZM109.899 313V304.273H113.467C114.407 304.273 115.153 304.485 115.706 304.909C116.259 305.333 116.536 305.894 116.536 306.591C116.536 307.121 116.378 307.532 116.064 307.824C115.75 308.112 115.346 308.307 114.854 308.409C115.176 308.455 115.488 308.568 115.791 308.75C116.098 308.932 116.352 309.182 116.553 309.5C116.753 309.814 116.854 310.201 116.854 310.659C116.854 311.106 116.74 311.506 116.513 311.858C116.286 312.21 115.96 312.489 115.536 312.693C115.111 312.898 114.604 313 114.013 313H109.899ZM111.172 311.773H114.013C114.475 311.773 114.837 311.663 115.098 311.443C115.359 311.223 115.49 310.924 115.49 310.545C115.49 310.095 115.359 309.741 115.098 309.483C114.837 309.222 114.475 309.091 114.013 309.091H111.172V311.773ZM111.172 307.932H113.467C113.827 307.932 114.136 307.883 114.393 307.784C114.651 307.682 114.848 307.538 114.984 307.352C115.125 307.163 115.195 306.939 115.195 306.682C115.195 306.314 115.041 306.027 114.734 305.818C114.428 305.606 114.005 305.5 113.467 305.5H111.172V307.932ZM122.429 313.182C121.611 313.182 120.906 312.989 120.315 312.602C119.724 312.216 119.27 311.684 118.952 311.006C118.634 310.328 118.474 309.553 118.474 308.682C118.474 307.795 118.637 307.013 118.963 306.335C119.293 305.653 119.751 305.121 120.338 304.739C120.929 304.352 121.618 304.159 122.406 304.159C123.02 304.159 123.573 304.273 124.065 304.5C124.558 304.727 124.961 305.045 125.276 305.455C125.59 305.864 125.785 306.341 125.861 306.886H124.52C124.418 306.489 124.19 306.136 123.838 305.83C123.49 305.519 123.02 305.364 122.429 305.364C121.906 305.364 121.448 305.5 121.054 305.773C120.664 306.042 120.359 306.422 120.139 306.915C119.923 307.403 119.815 307.977 119.815 308.636C119.815 309.311 119.921 309.898 120.134 310.398C120.349 310.898 120.652 311.286 121.043 311.562C121.437 311.839 121.899 311.977 122.429 311.977C122.777 311.977 123.094 311.917 123.378 311.795C123.662 311.674 123.902 311.5 124.099 311.273C124.296 311.045 124.437 310.773 124.52 310.455H125.861C125.785 310.97 125.598 311.434 125.298 311.847C125.003 312.256 124.611 312.581 124.122 312.824C123.637 313.062 123.073 313.182 122.429 313.182ZM131.48 313.182C130.639 313.182 129.914 312.996 129.304 312.625C128.698 312.25 128.23 311.727 127.901 311.057C127.575 310.383 127.412 309.598 127.412 308.705C127.412 307.811 127.575 307.023 127.901 306.341C128.23 305.655 128.688 305.121 129.276 304.739C129.866 304.352 130.556 304.159 131.344 304.159C131.798 304.159 132.247 304.235 132.69 304.386C133.134 304.538 133.537 304.784 133.901 305.125C134.264 305.462 134.554 305.909 134.77 306.466C134.986 307.023 135.094 307.708 135.094 308.523V309.091H128.366V307.932H133.73C133.73 307.439 133.632 307 133.435 306.614C133.241 306.227 132.965 305.922 132.605 305.699C132.249 305.475 131.829 305.364 131.344 305.364C130.81 305.364 130.348 305.496 129.957 305.761C129.571 306.023 129.274 306.364 129.065 306.784C128.857 307.205 128.753 307.655 128.753 308.136V308.909C128.753 309.568 128.866 310.127 129.094 310.585C129.325 311.04 129.645 311.386 130.054 311.625C130.463 311.86 130.938 311.977 131.48 311.977C131.832 311.977 132.151 311.928 132.435 311.83C132.723 311.727 132.971 311.576 133.179 311.375C133.387 311.17 133.548 310.917 133.662 310.614L134.957 310.977C134.821 311.417 134.592 311.803 134.27 312.136C133.948 312.466 133.55 312.723 133.077 312.909C132.603 313.091 132.071 313.182 131.48 313.182ZM142.52 304.273V305.523H138.474V313H137.134V304.273H142.52ZM147.57 313.182C146.782 313.182 146.09 312.994 145.496 312.619C144.905 312.244 144.443 311.72 144.109 311.045C143.78 310.371 143.615 309.583 143.615 308.682C143.615 307.773 143.78 306.979 144.109 306.301C144.443 305.623 144.905 305.097 145.496 304.722C146.09 304.347 146.782 304.159 147.57 304.159C148.357 304.159 149.047 304.347 149.638 304.722C150.232 305.097 150.695 305.623 151.024 306.301C151.357 306.979 151.524 307.773 151.524 308.682C151.524 309.583 151.357 310.371 151.024 311.045C150.695 311.72 150.232 312.244 149.638 312.619C149.047 312.994 148.357 313.182 147.57 313.182ZM147.57 311.977C148.168 311.977 148.661 311.824 149.047 311.517C149.433 311.21 149.719 310.807 149.905 310.307C150.09 309.807 150.183 309.265 150.183 308.682C150.183 308.098 150.09 307.555 149.905 307.051C149.719 306.547 149.433 306.14 149.047 305.83C148.661 305.519 148.168 305.364 147.57 305.364C146.971 305.364 146.479 305.519 146.092 305.83C145.706 306.14 145.42 306.547 145.234 307.051C145.049 307.555 144.956 308.098 144.956 308.682C144.956 309.265 145.049 309.807 145.234 310.307C145.42 310.807 145.706 311.21 146.092 311.517C146.479 311.824 146.971 311.977 147.57 311.977ZM155.571 311.409L155.48 312.023C155.416 312.455 155.317 312.917 155.185 313.409C155.056 313.902 154.921 314.366 154.781 314.801C154.641 315.237 154.526 315.583 154.435 315.841H153.412C153.461 315.598 153.526 315.278 153.605 314.881C153.685 314.483 153.764 314.038 153.844 313.545C153.927 313.057 153.995 312.557 154.048 312.045L154.116 311.409H155.571ZM167.328 311.182L170.374 304.273H171.646L167.874 313H166.783L163.078 304.273H164.328L167.328 311.182ZM163.896 304.273V313H162.555V304.273H163.896ZM170.76 313V304.273H172.101V313H170.76ZM175.714 307.432H178.214C179.237 307.432 180.019 307.691 180.561 308.21C181.103 308.729 181.374 309.386 181.374 310.182C181.374 310.705 181.252 311.18 181.01 311.608C180.768 312.032 180.411 312.371 179.942 312.625C179.472 312.875 178.896 313 178.214 313H174.555V304.273H175.896V311.75H178.214C178.745 311.75 179.18 311.61 179.521 311.33C179.862 311.049 180.033 310.689 180.033 310.25C180.033 309.788 179.862 309.411 179.521 309.119C179.18 308.828 178.745 308.682 178.214 308.682H175.714V307.432ZM182.76 313V304.273H184.101V313H182.76ZM191.919 316.273C191.692 316.273 191.489 316.254 191.311 316.216C191.133 316.182 191.01 316.148 190.942 316.114L191.283 314.932C191.608 315.015 191.896 315.045 192.146 315.023C192.396 315 192.618 314.888 192.811 314.688C193.008 314.491 193.188 314.17 193.351 313.727L193.601 313.045L190.374 304.273H191.828L194.237 311.227H194.328L196.737 304.273H198.192L194.487 314.273C194.321 314.723 194.114 315.097 193.868 315.392C193.622 315.691 193.336 315.913 193.01 316.057C192.688 316.201 192.324 316.273 191.919 316.273ZM199.416 313L202.962 308.568L199.462 304.273H201.053L203.962 308H204.689V304.273H206.03V308H206.734L209.643 304.273H211.234L207.757 308.568L211.28 313H209.666L206.712 309.25H206.03V313H204.689V309.25H204.007L201.03 313H199.416ZM216.496 313.182C215.655 313.182 214.929 312.996 214.32 312.625C213.714 312.25 213.246 311.727 212.916 311.057C212.59 310.383 212.428 309.598 212.428 308.705C212.428 307.811 212.59 307.023 212.916 306.341C213.246 305.655 213.704 305.121 214.291 304.739C214.882 304.352 215.571 304.159 216.359 304.159C216.814 304.159 217.263 304.235 217.706 304.386C218.149 304.538 218.553 304.784 218.916 305.125C219.28 305.462 219.57 305.909 219.786 306.466C220.001 307.023 220.109 307.708 220.109 308.523V309.091H213.382V307.932H218.746C218.746 307.439 218.647 307 218.45 306.614C218.257 306.227 217.981 305.922 217.621 305.699C217.265 305.475 216.844 305.364 216.359 305.364C215.825 305.364 215.363 305.496 214.973 305.761C214.587 306.023 214.289 306.364 214.081 306.784C213.873 307.205 213.768 307.655 213.768 308.136V308.909C213.768 309.568 213.882 310.127 214.109 310.585C214.34 311.04 214.661 311.386 215.07 311.625C215.479 311.86 215.954 311.977 216.496 311.977C216.848 311.977 217.166 311.928 217.45 311.83C217.738 311.727 217.986 311.576 218.195 311.375C218.403 311.17 218.564 310.917 218.678 310.614L219.973 310.977C219.837 311.417 219.607 311.803 219.286 312.136C218.964 312.466 218.566 312.723 218.092 312.909C217.619 313.091 217.087 313.182 216.496 313.182ZM226.649 316.273V304.273H227.945V305.659H228.104C228.202 305.508 228.339 305.314 228.513 305.08C228.691 304.841 228.945 304.629 229.274 304.443C229.607 304.254 230.058 304.159 230.626 304.159C231.361 304.159 232.009 304.343 232.57 304.71C233.13 305.078 233.568 305.598 233.882 306.273C234.196 306.947 234.354 307.742 234.354 308.659C234.354 309.583 234.196 310.384 233.882 311.062C233.568 311.737 233.132 312.259 232.575 312.631C232.018 312.998 231.376 313.182 230.649 313.182C230.089 313.182 229.64 313.089 229.303 312.903C228.965 312.714 228.706 312.5 228.524 312.261C228.342 312.019 228.202 311.818 228.104 311.659H227.99V316.273H226.649ZM227.967 308.636C227.967 309.295 228.064 309.877 228.257 310.381C228.45 310.881 228.732 311.273 229.104 311.557C229.475 311.837 229.929 311.977 230.467 311.977C231.028 311.977 231.496 311.83 231.871 311.534C232.25 311.235 232.534 310.833 232.723 310.33C232.916 309.822 233.013 309.258 233.013 308.636C233.013 308.023 232.918 307.47 232.729 306.977C232.543 306.481 232.261 306.089 231.882 305.801C231.507 305.509 231.036 305.364 230.467 305.364C229.922 305.364 229.464 305.502 229.092 305.778C228.721 306.051 228.441 306.434 228.251 306.926C228.062 307.415 227.967 307.985 227.967 308.636ZM240.058 313.182C239.217 313.182 238.492 312.996 237.882 312.625C237.276 312.25 236.808 311.727 236.479 311.057C236.153 310.383 235.99 309.598 235.99 308.705C235.99 307.811 236.153 307.023 236.479 306.341C236.808 305.655 237.267 305.121 237.854 304.739C238.445 304.352 239.134 304.159 239.922 304.159C240.376 304.159 240.825 304.235 241.268 304.386C241.712 304.538 242.115 304.784 242.479 305.125C242.842 305.462 243.132 305.909 243.348 306.466C243.564 307.023 243.672 307.708 243.672 308.523V309.091H236.945V307.932H242.308C242.308 307.439 242.21 307 242.013 306.614C241.82 306.227 241.543 305.922 241.183 305.699C240.827 305.475 240.407 305.364 239.922 305.364C239.388 305.364 238.926 305.496 238.536 305.761C238.149 306.023 237.852 306.364 237.643 306.784C237.435 307.205 237.331 307.655 237.331 308.136V308.909C237.331 309.568 237.445 310.127 237.672 310.585C237.903 311.04 238.223 311.386 238.632 311.625C239.041 311.86 239.517 311.977 240.058 311.977C240.411 311.977 240.729 311.928 241.013 311.83C241.301 311.727 241.549 311.576 241.757 311.375C241.965 311.17 242.126 310.917 242.24 310.614L243.536 310.977C243.399 311.417 243.17 311.803 242.848 312.136C242.526 312.466 242.128 312.723 241.655 312.909C241.181 313.091 240.649 313.182 240.058 313.182ZM245.712 304.273H247.053V311.75H250.348V304.273H251.689V311.75H254.984V304.273H256.325V313H245.712V304.273ZM261.342 313.205C260.789 313.205 260.287 313.1 259.837 312.892C259.386 312.68 259.028 312.375 258.763 311.977C258.498 311.576 258.365 311.091 258.365 310.523C258.365 310.023 258.464 309.617 258.661 309.307C258.857 308.992 259.121 308.746 259.45 308.568C259.78 308.39 260.143 308.258 260.541 308.17C260.943 308.08 261.346 308.008 261.751 307.955C262.282 307.886 262.712 307.835 263.041 307.801C263.375 307.763 263.617 307.701 263.768 307.614C263.924 307.527 264.001 307.375 264.001 307.159V307.114C264.001 306.553 263.848 306.117 263.541 305.807C263.238 305.496 262.778 305.341 262.161 305.341C261.52 305.341 261.018 305.481 260.655 305.761C260.291 306.042 260.036 306.341 259.888 306.659L258.615 306.205C258.842 305.674 259.145 305.261 259.524 304.966C259.907 304.667 260.323 304.458 260.774 304.341C261.229 304.22 261.676 304.159 262.115 304.159C262.395 304.159 262.717 304.193 263.081 304.261C263.448 304.326 263.803 304.46 264.143 304.665C264.488 304.869 264.774 305.178 265.001 305.591C265.229 306.004 265.342 306.557 265.342 307.25V313H264.001V311.818H263.933C263.842 312.008 263.691 312.21 263.479 312.426C263.267 312.642 262.984 312.826 262.632 312.977C262.28 313.129 261.85 313.205 261.342 313.205ZM261.547 312C262.077 312 262.524 311.896 262.888 311.688C263.255 311.479 263.532 311.21 263.717 310.881C263.907 310.551 264.001 310.205 264.001 309.841V308.614C263.945 308.682 263.82 308.744 263.626 308.801C263.437 308.854 263.217 308.902 262.967 308.943C262.721 308.981 262.481 309.015 262.246 309.045C262.015 309.072 261.827 309.095 261.683 309.114C261.335 309.159 261.009 309.233 260.706 309.335C260.407 309.434 260.164 309.583 259.979 309.784C259.797 309.981 259.706 310.25 259.706 310.591C259.706 311.057 259.878 311.409 260.223 311.648C260.571 311.883 261.013 312 261.547 312ZM271.449 313.182C270.608 313.182 269.883 312.996 269.273 312.625C268.667 312.25 268.199 311.727 267.869 311.057C267.544 310.383 267.381 309.598 267.381 308.705C267.381 307.811 267.544 307.023 267.869 306.341C268.199 305.655 268.657 305.121 269.244 304.739C269.835 304.352 270.525 304.159 271.312 304.159C271.767 304.159 272.216 304.235 272.659 304.386C273.102 304.538 273.506 304.784 273.869 305.125C274.233 305.462 274.523 305.909 274.739 306.466C274.955 307.023 275.062 307.708 275.062 308.523V309.091H268.335V307.932H273.699C273.699 307.439 273.6 307 273.403 306.614C273.21 306.227 272.934 305.922 272.574 305.699C272.218 305.475 271.797 305.364 271.312 305.364C270.778 305.364 270.316 305.496 269.926 305.761C269.54 306.023 269.242 306.364 269.034 306.784C268.826 307.205 268.722 307.655 268.722 308.136V308.909C268.722 309.568 268.835 310.127 269.062 310.585C269.294 311.04 269.614 311.386 270.023 311.625C270.432 311.86 270.907 311.977 271.449 311.977C271.801 311.977 272.119 311.928 272.403 311.83C272.691 311.727 272.939 311.576 273.148 311.375C273.356 311.17 273.517 310.917 273.631 310.614L274.926 310.977C274.79 311.417 274.561 311.803 274.239 312.136C273.917 312.466 273.519 312.723 273.045 312.909C272.572 313.091 272.04 313.182 271.449 313.182ZM281.875 311.182L284.92 304.273H286.193L282.42 313H281.33L277.625 304.273H278.875L281.875 311.182ZM278.443 304.273V313H277.102V304.273H278.443ZM285.307 313V304.273H286.648V313H285.307ZM293.602 313V304.273H300.466V313H299.125V305.523H294.943V313H293.602ZM302.915 316.273V304.273H304.21V305.659H304.369C304.468 305.508 304.604 305.314 304.778 305.08C304.956 304.841 305.21 304.629 305.54 304.443C305.873 304.254 306.324 304.159 306.892 304.159C307.627 304.159 308.275 304.343 308.835 304.71C309.396 305.078 309.833 305.598 310.148 306.273C310.462 306.947 310.619 307.742 310.619 308.659C310.619 309.583 310.462 310.384 310.148 311.062C309.833 311.737 309.398 312.259 308.841 312.631C308.284 312.998 307.642 313.182 306.915 313.182C306.354 313.182 305.905 313.089 305.568 312.903C305.231 312.714 304.972 312.5 304.79 312.261C304.608 312.019 304.468 311.818 304.369 311.659H304.256V316.273H302.915ZM304.233 308.636C304.233 309.295 304.33 309.877 304.523 310.381C304.716 310.881 304.998 311.273 305.369 311.557C305.741 311.837 306.195 311.977 306.733 311.977C307.294 311.977 307.761 311.83 308.136 311.534C308.515 311.235 308.799 310.833 308.989 310.33C309.182 309.822 309.278 309.258 309.278 308.636C309.278 308.023 309.184 307.47 308.994 306.977C308.809 306.481 308.527 306.089 308.148 305.801C307.773 305.509 307.301 305.364 306.733 305.364C306.188 305.364 305.729 305.502 305.358 305.778C304.987 306.051 304.706 306.434 304.517 306.926C304.328 307.415 304.233 307.985 304.233 308.636ZM316.21 313.182C315.422 313.182 314.731 312.994 314.136 312.619C313.545 312.244 313.083 311.72 312.75 311.045C312.42 310.371 312.256 309.583 312.256 308.682C312.256 307.773 312.42 306.979 312.75 306.301C313.083 305.623 313.545 305.097 314.136 304.722C314.731 304.347 315.422 304.159 316.21 304.159C316.998 304.159 317.688 304.347 318.278 304.722C318.873 305.097 319.335 305.623 319.665 306.301C319.998 306.979 320.165 307.773 320.165 308.682C320.165 309.583 319.998 310.371 319.665 311.045C319.335 311.72 318.873 312.244 318.278 312.619C317.688 312.994 316.998 313.182 316.21 313.182ZM316.21 311.977C316.809 311.977 317.301 311.824 317.688 311.517C318.074 311.21 318.36 310.807 318.545 310.307C318.731 309.807 318.824 309.265 318.824 308.682C318.824 308.098 318.731 307.555 318.545 307.051C318.36 306.547 318.074 306.14 317.688 305.83C317.301 305.519 316.809 305.364 316.21 305.364C315.612 305.364 315.119 305.519 314.733 305.83C314.347 306.14 314.061 306.547 313.875 307.051C313.689 307.555 313.597 308.098 313.597 308.682C313.597 309.265 313.689 309.807 313.875 310.307C314.061 310.807 314.347 311.21 314.733 311.517C315.119 311.824 315.612 311.977 316.21 311.977ZM328.689 301L329.371 301.818C329.106 302.076 328.799 302.256 328.45 302.358C328.102 302.46 327.708 302.523 327.268 302.545C326.829 302.568 326.34 302.591 325.803 302.614C325.196 302.636 324.695 302.784 324.297 303.057C323.899 303.33 323.592 303.723 323.376 304.239C323.161 304.754 323.022 305.386 322.962 306.136H323.075C323.371 305.591 323.78 305.189 324.303 304.932C324.825 304.674 325.386 304.545 325.984 304.545C326.666 304.545 327.28 304.705 327.825 305.023C328.371 305.341 328.803 305.812 329.121 306.438C329.439 307.062 329.598 307.833 329.598 308.75C329.598 309.663 329.435 310.451 329.109 311.114C328.787 311.777 328.335 312.288 327.751 312.648C327.172 313.004 326.492 313.182 325.712 313.182C324.931 313.182 324.248 312.998 323.661 312.631C323.073 312.259 322.617 311.71 322.291 310.983C321.965 310.252 321.803 309.348 321.803 308.273V307.341C321.803 305.398 322.132 303.924 322.791 302.92C323.454 301.917 324.45 301.398 325.78 301.364C326.25 301.348 326.668 301.345 327.036 301.352C327.403 301.36 327.723 301.343 327.996 301.301C328.268 301.259 328.5 301.159 328.689 301ZM325.712 311.977C326.238 311.977 326.691 311.845 327.07 311.58C327.452 311.314 327.746 310.941 327.95 310.46C328.155 309.975 328.257 309.405 328.257 308.75C328.257 308.114 328.153 307.572 327.945 307.125C327.74 306.678 327.446 306.337 327.064 306.102C326.681 305.867 326.223 305.75 325.689 305.75C325.299 305.75 324.948 305.816 324.638 305.949C324.327 306.081 324.062 306.277 323.842 306.534C323.623 306.792 323.452 307.106 323.331 307.477C323.214 307.848 323.151 308.273 323.143 308.75C323.143 309.727 323.373 310.509 323.831 311.097C324.289 311.684 324.916 311.977 325.712 311.977ZM330.876 313V311.75H331.195C331.456 311.75 331.674 311.699 331.848 311.597C332.022 311.491 332.162 311.307 332.268 311.045C332.378 310.78 332.462 310.413 332.518 309.943C332.579 309.47 332.623 308.867 332.649 308.136L332.808 304.273H338.626V313H337.286V305.523H334.081L333.945 308.636C333.914 309.352 333.85 309.983 333.751 310.528C333.657 311.07 333.511 311.525 333.314 311.892C333.121 312.259 332.863 312.536 332.541 312.722C332.219 312.907 331.816 313 331.331 313H330.876ZM344.746 313.182C343.905 313.182 343.179 312.996 342.57 312.625C341.964 312.25 341.496 311.727 341.166 311.057C340.84 310.383 340.678 309.598 340.678 308.705C340.678 307.811 340.84 307.023 341.166 306.341C341.496 305.655 341.954 305.121 342.541 304.739C343.132 304.352 343.821 304.159 344.609 304.159C345.064 304.159 345.513 304.235 345.956 304.386C346.399 304.538 346.803 304.784 347.166 305.125C347.53 305.462 347.82 305.909 348.036 306.466C348.251 307.023 348.359 307.708 348.359 308.523V309.091H341.632V307.932H346.996C346.996 307.439 346.897 307 346.7 306.614C346.507 306.227 346.231 305.922 345.871 305.699C345.515 305.475 345.094 305.364 344.609 305.364C344.075 305.364 343.613 305.496 343.223 305.761C342.837 306.023 342.539 306.364 342.331 306.784C342.123 307.205 342.018 307.655 342.018 308.136V308.909C342.018 309.568 342.132 310.127 342.359 310.585C342.59 311.04 342.911 311.386 343.32 311.625C343.729 311.86 344.204 311.977 344.746 311.977C345.098 311.977 345.416 311.928 345.7 311.83C345.988 311.727 346.236 311.576 346.445 311.375C346.653 311.17 346.814 310.917 346.928 310.614L348.223 310.977C348.087 311.417 347.857 311.803 347.536 312.136C347.214 312.466 346.816 312.723 346.342 312.909C345.869 313.091 345.337 313.182 344.746 313.182ZM355.172 311.182L358.217 304.273H359.49L355.717 313H354.626L350.922 304.273H352.172L355.172 311.182ZM351.74 304.273V313H350.399V304.273H351.74ZM358.604 313V304.273H359.945V313H358.604ZM362.95 316.273C362.723 316.273 362.52 316.254 362.342 316.216C362.164 316.182 362.041 316.148 361.973 316.114L362.314 314.932C362.64 315.015 362.928 315.045 363.178 315.023C363.428 315 363.649 314.888 363.842 314.688C364.039 314.491 364.219 314.17 364.382 313.727L364.632 313.045L361.405 304.273H362.859L365.268 311.227H365.359L367.768 304.273H369.223L365.518 314.273C365.352 314.723 365.145 315.097 364.899 315.392C364.653 315.691 364.367 315.913 364.041 316.057C363.719 316.201 363.356 316.273 362.95 316.273ZM371.423 313.091C371.143 313.091 370.902 312.991 370.702 312.79C370.501 312.589 370.401 312.348 370.401 312.068C370.401 311.788 370.501 311.547 370.702 311.347C370.902 311.146 371.143 311.045 371.423 311.045C371.704 311.045 371.944 311.146 372.145 311.347C372.346 311.547 372.446 311.788 372.446 312.068C372.446 312.254 372.399 312.424 372.304 312.58C372.213 312.735 372.09 312.86 371.935 312.955C371.783 313.045 371.613 313.091 371.423 313.091ZM122.043 320.364V332H120.634V321.614H114.771V332H113.362V320.364H122.043ZM128.249 332.182C127.461 332.182 126.77 331.994 126.175 331.619C125.585 331.244 125.122 330.72 124.789 330.045C124.46 329.371 124.295 328.583 124.295 327.682C124.295 326.773 124.46 325.979 124.789 325.301C125.122 324.623 125.585 324.097 126.175 323.722C126.77 323.347 127.461 323.159 128.249 323.159C129.037 323.159 129.727 323.347 130.317 323.722C130.912 324.097 131.374 324.623 131.704 325.301C132.037 325.979 132.204 326.773 132.204 327.682C132.204 328.583 132.037 329.371 131.704 330.045C131.374 330.72 130.912 331.244 130.317 331.619C129.727 331.994 129.037 332.182 128.249 332.182ZM128.249 330.977C128.848 330.977 129.34 330.824 129.727 330.517C130.113 330.21 130.399 329.807 130.585 329.307C130.77 328.807 130.863 328.265 130.863 327.682C130.863 327.098 130.77 326.555 130.585 326.051C130.399 325.547 130.113 325.14 129.727 324.83C129.34 324.519 128.848 324.364 128.249 324.364C127.651 324.364 127.158 324.519 126.772 324.83C126.386 325.14 126.1 325.547 125.914 326.051C125.728 326.555 125.636 327.098 125.636 327.682C125.636 328.265 125.728 328.807 125.914 329.307C126.1 329.807 126.386 330.21 126.772 330.517C127.158 330.824 127.651 330.977 128.249 330.977ZM134.251 332V323.273H141.114V332H139.773V324.523H135.592V332H134.251ZM143.563 335.273V323.273H144.859V324.659H145.018C145.116 324.508 145.253 324.314 145.427 324.08C145.605 323.841 145.859 323.629 146.188 323.443C146.522 323.254 146.972 323.159 147.54 323.159C148.275 323.159 148.923 323.343 149.484 323.71C150.044 324.078 150.482 324.598 150.796 325.273C151.111 325.947 151.268 326.742 151.268 327.659C151.268 328.583 151.111 329.384 150.796 330.062C150.482 330.737 150.046 331.259 149.489 331.631C148.933 331.998 148.29 332.182 147.563 332.182C147.003 332.182 146.554 332.089 146.217 331.903C145.879 331.714 145.62 331.5 145.438 331.261C145.256 331.019 145.116 330.818 145.018 330.659H144.904V335.273H143.563ZM144.881 327.636C144.881 328.295 144.978 328.877 145.171 329.381C145.364 329.881 145.647 330.273 146.018 330.557C146.389 330.837 146.844 330.977 147.381 330.977C147.942 330.977 148.41 330.83 148.785 330.534C149.164 330.235 149.448 329.833 149.637 329.33C149.83 328.822 149.927 328.258 149.927 327.636C149.927 327.023 149.832 326.47 149.643 325.977C149.457 325.481 149.175 325.089 148.796 324.801C148.421 324.509 147.95 324.364 147.381 324.364C146.836 324.364 146.378 324.502 146.006 324.778C145.635 325.051 145.355 325.434 145.165 325.926C144.976 326.415 144.881 326.985 144.881 327.636ZM156.859 332.182C156.071 332.182 155.379 331.994 154.785 331.619C154.194 331.244 153.732 330.72 153.398 330.045C153.069 329.371 152.904 328.583 152.904 327.682C152.904 326.773 153.069 325.979 153.398 325.301C153.732 324.623 154.194 324.097 154.785 323.722C155.379 323.347 156.071 323.159 156.859 323.159C157.647 323.159 158.336 323.347 158.927 323.722C159.522 324.097 159.984 324.623 160.313 325.301C160.647 325.979 160.813 326.773 160.813 327.682C160.813 328.583 160.647 329.371 160.313 330.045C159.984 330.72 159.522 331.244 158.927 331.619C158.336 331.994 157.647 332.182 156.859 332.182ZM156.859 330.977C157.457 330.977 157.95 330.824 158.336 330.517C158.722 330.21 159.008 329.807 159.194 329.307C159.379 328.807 159.472 328.265 159.472 327.682C159.472 327.098 159.379 326.555 159.194 326.051C159.008 325.547 158.722 325.14 158.336 324.83C157.95 324.519 157.457 324.364 156.859 324.364C156.26 324.364 155.768 324.519 155.381 324.83C154.995 325.14 154.709 325.547 154.523 326.051C154.338 326.555 154.245 327.098 154.245 327.682C154.245 328.265 154.338 328.807 154.523 329.307C154.709 329.807 154.995 330.21 155.381 330.517C155.768 330.824 156.26 330.977 156.859 330.977ZM169.337 320L170.019 320.818C169.754 321.076 169.447 321.256 169.099 321.358C168.75 321.46 168.356 321.523 167.917 321.545C167.478 321.568 166.989 321.591 166.451 321.614C165.845 321.636 165.343 321.784 164.945 322.057C164.548 322.33 164.241 322.723 164.025 323.239C163.809 323.754 163.671 324.386 163.61 325.136H163.724C164.019 324.591 164.428 324.189 164.951 323.932C165.474 323.674 166.034 323.545 166.633 323.545C167.315 323.545 167.928 323.705 168.474 324.023C169.019 324.341 169.451 324.812 169.769 325.438C170.087 326.062 170.246 326.833 170.246 327.75C170.246 328.663 170.084 329.451 169.758 330.114C169.436 330.777 168.983 331.288 168.4 331.648C167.82 332.004 167.14 332.182 166.36 332.182C165.58 332.182 164.896 331.998 164.309 331.631C163.722 331.259 163.265 330.71 162.94 329.983C162.614 329.252 162.451 328.348 162.451 327.273V326.341C162.451 324.398 162.781 322.924 163.44 321.92C164.103 320.917 165.099 320.398 166.428 320.364C166.898 320.348 167.317 320.345 167.684 320.352C168.051 320.36 168.371 320.343 168.644 320.301C168.917 320.259 169.148 320.159 169.337 320ZM166.36 330.977C166.887 330.977 167.339 330.845 167.718 330.58C168.101 330.314 168.394 329.941 168.599 329.46C168.803 328.975 168.906 328.405 168.906 327.75C168.906 327.114 168.801 326.572 168.593 326.125C168.388 325.678 168.095 325.337 167.712 325.102C167.33 324.867 166.871 324.75 166.337 324.75C165.947 324.75 165.597 324.816 165.286 324.949C164.976 325.081 164.71 325.277 164.491 325.534C164.271 325.792 164.101 326.106 163.979 326.477C163.862 326.848 163.799 327.273 163.792 327.75C163.792 328.727 164.021 329.509 164.479 330.097C164.938 330.684 165.565 330.977 166.36 330.977ZM173.161 335.273C172.934 335.273 172.731 335.254 172.553 335.216C172.375 335.182 172.252 335.148 172.184 335.114L172.525 333.932C172.851 334.015 173.138 334.045 173.388 334.023C173.638 334 173.86 333.888 174.053 333.688C174.25 333.491 174.43 333.17 174.593 332.727L174.843 332.045L171.616 323.273H173.07L175.479 330.227H175.57L177.979 323.273H179.434L175.729 333.273C175.563 333.723 175.356 334.097 175.11 334.392C174.864 334.691 174.578 334.913 174.252 335.057C173.93 335.201 173.567 335.273 173.161 335.273ZM182.545 330.023L186.749 323.273H188.295V332H186.954V325.25L182.772 332H181.204V323.273H182.545V330.023ZM185.863 320.364H187.113C187.113 320.977 186.901 321.479 186.477 321.869C186.052 322.259 185.477 322.455 184.749 322.455C184.033 322.455 183.463 322.259 183.039 321.869C182.619 321.479 182.408 320.977 182.408 320.364H183.658C183.658 320.659 183.74 320.919 183.903 321.142C184.069 321.366 184.352 321.477 184.749 321.477C185.147 321.477 185.431 321.366 185.602 321.142C185.776 320.919 185.863 320.659 185.863 320.364ZM189.563 324.523V323.273H196.654V324.523H193.79V332H192.45V324.523H189.563ZM201.816 332.182C200.975 332.182 200.25 331.996 199.64 331.625C199.034 331.25 198.566 330.727 198.237 330.057C197.911 329.383 197.748 328.598 197.748 327.705C197.748 326.811 197.911 326.023 198.237 325.341C198.566 324.655 199.024 324.121 199.612 323.739C200.202 323.352 200.892 323.159 201.68 323.159C202.134 323.159 202.583 323.235 203.026 323.386C203.469 323.538 203.873 323.784 204.237 324.125C204.6 324.462 204.89 324.909 205.106 325.466C205.322 326.023 205.43 326.708 205.43 327.523V328.091H198.702V326.932H204.066C204.066 326.439 203.968 326 203.771 325.614C203.577 325.227 203.301 324.922 202.941 324.699C202.585 324.475 202.165 324.364 201.68 324.364C201.146 324.364 200.683 324.496 200.293 324.761C199.907 325.023 199.61 325.364 199.401 325.784C199.193 326.205 199.089 326.655 199.089 327.136V327.909C199.089 328.568 199.202 329.127 199.43 329.585C199.661 330.04 199.981 330.386 200.39 330.625C200.799 330.86 201.274 330.977 201.816 330.977C202.168 330.977 202.487 330.928 202.771 330.83C203.058 330.727 203.307 330.576 203.515 330.375C203.723 330.17 203.884 329.917 203.998 329.614L205.293 329.977C205.157 330.417 204.928 330.803 204.606 331.136C204.284 331.466 203.886 331.723 203.413 331.909C202.939 332.091 202.407 332.182 201.816 332.182ZM211.424 329.773H212.856C212.886 330.167 213.064 330.466 213.39 330.67C213.719 330.875 214.147 330.977 214.674 330.977C215.212 330.977 215.672 330.867 216.055 330.648C216.437 330.424 216.629 330.064 216.629 329.568C216.629 329.277 216.557 329.023 216.413 328.807C216.269 328.587 216.066 328.417 215.805 328.295C215.543 328.174 215.235 328.114 214.879 328.114H213.379V326.909H214.879C215.413 326.909 215.807 326.788 216.06 326.545C216.318 326.303 216.447 326 216.447 325.636C216.447 325.246 216.308 324.934 216.032 324.699C215.755 324.46 215.363 324.341 214.856 324.341C214.344 324.341 213.918 324.456 213.577 324.688C213.237 324.915 213.057 325.208 213.038 325.568H211.629C211.644 325.098 211.788 324.684 212.06 324.324C212.333 323.96 212.704 323.676 213.174 323.472C213.644 323.263 214.182 323.159 214.788 323.159C215.401 323.159 215.933 323.267 216.384 323.483C216.839 323.695 217.189 323.985 217.435 324.352C217.685 324.716 217.81 325.129 217.81 325.591C217.81 326.083 217.672 326.481 217.396 326.784C217.119 327.087 216.772 327.303 216.356 327.432V327.523C216.685 327.545 216.971 327.652 217.214 327.841C217.46 328.027 217.651 328.271 217.788 328.574C217.924 328.873 217.992 329.205 217.992 329.568C217.992 330.098 217.85 330.561 217.566 330.955C217.282 331.345 216.892 331.648 216.396 331.864C215.899 332.076 215.333 332.182 214.697 332.182C214.079 332.182 213.526 332.081 213.038 331.881C212.549 331.676 212.161 331.394 211.873 331.034C211.589 330.67 211.439 330.25 211.424 329.773ZM222.444 332.205C221.891 332.205 221.389 332.1 220.938 331.892C220.487 331.68 220.129 331.375 219.864 330.977C219.599 330.576 219.467 330.091 219.467 329.523C219.467 329.023 219.565 328.617 219.762 328.307C219.959 327.992 220.222 327.746 220.552 327.568C220.881 327.39 221.245 327.258 221.643 327.17C222.044 327.08 222.448 327.008 222.853 326.955C223.383 326.886 223.813 326.835 224.143 326.801C224.476 326.763 224.719 326.701 224.87 326.614C225.025 326.527 225.103 326.375 225.103 326.159V326.114C225.103 325.553 224.95 325.117 224.643 324.807C224.34 324.496 223.879 324.341 223.262 324.341C222.622 324.341 222.12 324.481 221.756 324.761C221.393 325.042 221.137 325.341 220.989 325.659L219.717 325.205C219.944 324.674 220.247 324.261 220.626 323.966C221.008 323.667 221.425 323.458 221.876 323.341C222.33 323.22 222.777 323.159 223.217 323.159C223.497 323.159 223.819 323.193 224.183 323.261C224.55 323.326 224.904 323.46 225.245 323.665C225.59 323.869 225.876 324.178 226.103 324.591C226.33 325.004 226.444 325.557 226.444 326.25V332H225.103V330.818H225.035C224.944 331.008 224.792 331.21 224.58 331.426C224.368 331.642 224.086 331.826 223.734 331.977C223.381 332.129 222.951 332.205 222.444 332.205ZM222.648 331C223.179 331 223.626 330.896 223.989 330.688C224.357 330.479 224.633 330.21 224.819 329.881C225.008 329.551 225.103 329.205 225.103 328.841V327.614C225.046 327.682 224.921 327.744 224.728 327.801C224.539 327.854 224.319 327.902 224.069 327.943C223.823 327.981 223.582 328.015 223.347 328.045C223.116 328.072 222.929 328.095 222.785 328.114C222.436 328.159 222.111 328.233 221.808 328.335C221.508 328.434 221.266 328.583 221.08 328.784C220.898 328.981 220.808 329.25 220.808 329.591C220.808 330.057 220.98 330.409 221.325 330.648C221.673 330.883 222.114 331 222.648 331ZM230.232 330.023L234.437 323.273H235.982V332H234.641V325.25L230.46 332H228.891V323.273H230.232V330.023ZM233.55 320.364H234.8C234.8 320.977 234.588 321.479 234.164 321.869C233.74 322.259 233.164 322.455 232.437 322.455C231.721 322.455 231.151 322.259 230.727 321.869C230.306 321.479 230.096 320.977 230.096 320.364H231.346C231.346 320.659 231.427 320.919 231.59 321.142C231.757 321.366 232.039 321.477 232.437 321.477C232.835 321.477 233.119 321.366 233.289 321.142C233.463 320.919 233.55 320.659 233.55 320.364ZM237.251 324.523V323.273H244.342V324.523H241.478V332H240.137V324.523H237.251ZM247.638 330.023L251.843 323.273H253.388V332H252.048V325.25L247.866 332H246.298V323.273H247.638V330.023ZM260.344 332V323.273H267.208V332H265.867V324.523H261.685V332H260.344ZM273.202 332.182C272.415 332.182 271.723 331.994 271.129 331.619C270.538 331.244 270.076 330.72 269.742 330.045C269.413 329.371 269.248 328.583 269.248 327.682C269.248 326.773 269.413 325.979 269.742 325.301C270.076 324.623 270.538 324.097 271.129 323.722C271.723 323.347 272.415 323.159 273.202 323.159C273.99 323.159 274.68 323.347 275.271 323.722C275.865 324.097 276.327 324.623 276.657 325.301C276.99 325.979 277.157 326.773 277.157 327.682C277.157 328.583 276.99 329.371 276.657 330.045C276.327 330.72 275.865 331.244 275.271 331.619C274.68 331.994 273.99 332.182 273.202 332.182ZM273.202 330.977C273.801 330.977 274.293 330.824 274.68 330.517C275.066 330.21 275.352 329.807 275.538 329.307C275.723 328.807 275.816 328.265 275.816 327.682C275.816 327.098 275.723 326.555 275.538 326.051C275.352 325.547 275.066 325.14 274.68 324.83C274.293 324.519 273.801 324.364 273.202 324.364C272.604 324.364 272.112 324.519 271.725 324.83C271.339 325.14 271.053 325.547 270.867 326.051C270.682 326.555 270.589 327.098 270.589 327.682C270.589 328.265 270.682 328.807 270.867 329.307C271.053 329.807 271.339 330.21 271.725 330.517C272.112 330.824 272.604 330.977 273.202 330.977ZM278.658 329.773H280.09C280.121 330.167 280.299 330.466 280.624 330.67C280.954 330.875 281.382 330.977 281.908 330.977C282.446 330.977 282.906 330.867 283.289 330.648C283.672 330.424 283.863 330.064 283.863 329.568C283.863 329.277 283.791 329.023 283.647 328.807C283.503 328.587 283.3 328.417 283.039 328.295C282.778 328.174 282.469 328.114 282.113 328.114H280.613V326.909H282.113C282.647 326.909 283.041 326.788 283.295 326.545C283.552 326.303 283.681 326 283.681 325.636C283.681 325.246 283.543 324.934 283.266 324.699C282.99 324.46 282.598 324.341 282.09 324.341C281.579 324.341 281.153 324.456 280.812 324.688C280.471 324.915 280.291 325.208 280.272 325.568H278.863C278.878 325.098 279.022 324.684 279.295 324.324C279.567 323.96 279.939 323.676 280.408 323.472C280.878 323.263 281.416 323.159 282.022 323.159C282.636 323.159 283.168 323.267 283.619 323.483C284.073 323.695 284.424 323.985 284.67 324.352C284.92 324.716 285.045 325.129 285.045 325.591C285.045 326.083 284.906 326.481 284.63 326.784C284.353 327.087 284.007 327.303 283.59 327.432V327.523C283.92 327.545 284.206 327.652 284.448 327.841C284.694 328.027 284.886 328.271 285.022 328.574C285.158 328.873 285.227 329.205 285.227 329.568C285.227 330.098 285.085 330.561 284.8 330.955C284.516 331.345 284.126 331.648 283.63 331.864C283.134 332.076 282.567 332.182 281.931 332.182C281.314 332.182 280.761 332.081 280.272 331.881C279.783 331.676 279.395 331.394 279.107 331.034C278.823 330.67 278.674 330.25 278.658 329.773ZM286.565 332L290.11 327.568L286.61 323.273H288.201L291.11 327H291.837V323.273H293.178V327H293.883L296.792 323.273H298.383L294.906 327.568L298.428 332H296.815L293.86 328.25H293.178V332H291.837V328.25H291.156L288.178 332H286.565ZM303.644 332.182C302.803 332.182 302.078 331.996 301.468 331.625C300.862 331.25 300.394 330.727 300.065 330.057C299.739 329.383 299.576 328.598 299.576 327.705C299.576 326.811 299.739 326.023 300.065 325.341C300.394 324.655 300.853 324.121 301.44 323.739C302.031 323.352 302.72 323.159 303.508 323.159C303.962 323.159 304.411 323.235 304.854 323.386C305.298 323.538 305.701 323.784 306.065 324.125C306.428 324.462 306.718 324.909 306.934 325.466C307.15 326.023 307.258 326.708 307.258 327.523V328.091H300.531V326.932H305.894C305.894 326.439 305.796 326 305.599 325.614C305.406 325.227 305.129 324.922 304.769 324.699C304.413 324.475 303.993 324.364 303.508 324.364C302.974 324.364 302.512 324.496 302.121 324.761C301.735 325.023 301.438 325.364 301.229 325.784C301.021 326.205 300.917 326.655 300.917 327.136V327.909C300.917 328.568 301.031 329.127 301.258 329.585C301.489 330.04 301.809 330.386 302.218 330.625C302.627 330.86 303.103 330.977 303.644 330.977C303.996 330.977 304.315 330.928 304.599 330.83C304.887 330.727 305.135 330.576 305.343 330.375C305.551 330.17 305.712 329.917 305.826 329.614L307.121 329.977C306.985 330.417 306.756 330.803 306.434 331.136C306.112 331.466 305.714 331.723 305.241 331.909C304.767 332.091 304.235 332.182 303.644 332.182Z" fill="#33434D" fill-opacity="0.5"/>
</svg>
