<svg width="420" height="363" viewBox="0 0 420 363" fill="none" xmlns="http://www.w3.org/2000/svg">
<g clip-path="url(#clip0_738_2182)">
<path d="M283.344 4.40443C282.57 3.28301 283.137 1.7329 284.452 1.37597L285.901 0.982673C286.168 0.910344 286.325 0.63567 286.253 0.369168C286.181 0.102667 285.906 -0.0547456 285.64 0.017579L284.19 0.410882C282.209 0.948519 281.355 3.28343 282.521 4.97261L282.582 5.06081C283.354 6.17867 282.74 7.72201 281.412 8.00454C279.385 8.43547 278.449 10.7895 279.626 12.4946C280.398 13.6124 279.784 15.1558 278.455 15.4383C276.429 15.8693 275.493 18.2233 276.67 19.9284C277.442 21.0462 276.828 22.5896 275.499 22.8721C273.473 23.303 272.536 25.6571 273.714 27.3621C274.486 28.48 273.872 30.0233 272.543 30.3059C270.516 30.7368 269.58 33.0909 270.758 34.7959L270.818 34.8841C271.593 36.0055 271.026 37.5556 269.71 37.9126L268.261 38.3059C267.995 38.3782 267.837 38.6529 267.91 38.9194C267.982 39.1859 268.257 39.3433 268.523 39.271L269.972 38.8777C271.953 38.34 272.808 36.0051 271.641 34.3159L271.58 34.2277C270.809 33.1099 271.422 31.5665 272.751 31.284C274.778 30.8531 275.714 28.499 274.537 26.794C273.765 25.6761 274.378 24.1328 275.707 23.8502C277.734 23.4193 278.67 21.0652 277.493 19.3602C276.721 18.2423 277.335 16.699 278.663 16.4165C280.69 15.9855 281.626 13.6315 280.449 11.9264C279.677 10.8085 280.291 9.2652 281.62 8.98267C283.646 8.55174 284.582 6.19769 283.405 4.49262L283.344 4.40443Z" fill="#002033"/>
<path d="M155.901 11.7164C154.541 11.6179 153.688 10.2051 154.233 8.95615L154.834 7.57996C154.944 7.32688 154.829 7.03216 154.576 6.92167C154.323 6.81118 154.028 6.92677 153.917 7.17985L153.317 8.55604C152.495 10.4373 153.781 12.5654 155.828 12.7138L155.935 12.7216C157.29 12.8197 158.109 14.2647 157.497 15.4776C156.564 17.3276 157.813 19.5315 159.88 19.6813C161.235 19.7795 162.054 21.2244 161.442 22.4373C160.509 24.2874 161.758 26.4913 163.825 26.6411C165.18 26.7393 165.999 28.1842 165.387 29.3971C164.454 31.2471 165.703 33.4511 167.77 33.6008C169.125 33.699 169.944 35.144 169.332 36.3569C168.399 38.2069 169.648 40.4108 171.714 40.5606L171.821 40.5684C173.181 40.6669 174.034 42.0797 173.489 43.3286L172.888 44.7048C172.777 44.9579 172.893 45.2526 173.146 45.3631C173.399 45.4736 173.694 45.358 173.804 45.1049L174.405 43.7287C175.227 41.8475 173.941 39.7194 171.894 39.571L171.787 39.5632C170.432 39.465 169.613 38.0201 170.225 36.8072C171.158 34.9572 169.909 32.7532 167.842 32.6035C166.487 32.5053 165.668 31.0603 166.28 29.8474C167.213 27.9974 165.964 25.7935 163.897 25.6437C162.542 25.5455 161.723 24.1006 162.335 22.8877C163.268 21.0376 162.019 18.8337 159.952 18.6839C158.597 18.5857 157.778 17.1408 158.39 15.9279C159.323 14.0779 158.074 11.8739 156.007 11.7242L155.901 11.7164Z" fill="#002033"/>
<path fill-rule="evenodd" clip-rule="evenodd" d="M234.616 13.8955C235.997 13.8955 237.116 12.7762 237.116 11.3955C237.116 10.0148 235.997 8.89552 234.616 8.89552C233.236 8.89552 232.116 10.0148 232.116 11.3955C232.116 12.7762 233.236 13.8955 234.616 13.8955ZM234.616 12.8955C235.445 12.8955 236.116 12.224 236.116 11.3955C236.116 10.5671 235.445 9.89552 234.616 9.89552C233.788 9.89552 233.116 10.5671 233.116 11.3955C233.116 12.224 233.788 12.8955 234.616 12.8955Z" fill="#002033"/>
<path d="M354.116 35.8955C354.116 38.1047 352.325 39.8955 350.116 39.8955C347.907 39.8955 346.116 38.1047 346.116 35.8955C346.116 33.6864 347.907 31.8955 350.116 31.8955C352.325 31.8955 354.116 33.6864 354.116 35.8955Z" fill="#002033"/>
<path d="M137.116 50.8955C137.116 53.1047 135.325 54.8955 133.116 54.8955C130.907 54.8955 129.116 53.1047 129.116 50.8955C129.116 48.6864 130.907 46.8955 133.116 46.8955C135.325 46.8955 137.116 48.6864 137.116 50.8955Z" fill="#002033"/>
<path fill-rule="evenodd" clip-rule="evenodd" d="M259.553 84.8391C248.055 90.8591 240.139 93.8633 233.887 95.3695C227.962 96.7965 223.493 96.8894 218.785 96.8952C214.436 96.3972 209.538 96.9946 205.351 98.6235C205.138 98.6723 204.903 98.7413 204.653 98.8248C204.149 98.9929 203.501 99.2483 202.694 99.6143C201.08 100.347 198.8 101.536 195.735 103.398C193.747 104.605 192.205 105.933 190.667 107.42C190.031 108.035 189.39 108.683 188.722 109.359C188.587 109.495 188.45 109.634 188.312 109.773C187.49 110.603 186.612 111.48 185.62 112.419C181.666 116.158 175.825 120.926 164.53 127.26C159.035 130.341 153.187 131.892 148.382 132.752C145.981 133.182 143.85 133.439 142.155 133.629C141.936 133.654 141.723 133.678 141.518 133.701C140.932 133.766 140.404 133.824 139.954 133.881C139.358 133.956 138.829 134.035 138.448 134.139C137.155 134.489 136.408 135.297 136.071 136.205C136.041 136.285 136.015 136.366 135.992 136.446C135.392 136.278 134.788 136.15 134.182 136.06C130.715 135.546 127.252 136.297 124.032 137.718C117.799 140.468 112.277 145.812 108.978 150.016L107.276 148.483C104.814 146.266 101.02 146.464 98.8024 148.927L93.4486 154.871L94.4297 155.755L91.4958 159.012C90.7566 159.833 90.8227 161.098 91.6435 161.837C92.4643 162.576 93.7289 162.51 94.4681 161.689L97.402 158.432L101.117 161.778L98.1832 165.035C97.444 165.856 97.5101 167.121 98.3309 167.86C99.1517 168.599 100.416 168.533 101.155 167.712L104.089 164.454L104.944 165.224L110.297 159.279C112.327 157.026 112.333 153.657 110.432 151.402C113.6 147.326 118.938 142.151 124.839 139.548C127.825 138.231 130.9 137.595 133.889 138.038C133.942 138.046 133.996 138.054 134.05 138.063C133.582 138.249 133.119 138.46 132.689 138.695C132.037 139.05 131.388 139.501 130.935 140.063C130.462 140.649 130.154 141.43 130.397 142.317C130.586 143.007 130.879 143.777 131.476 144.543C132.071 145.306 132.926 146.011 134.167 146.642C136.4 147.778 139.967 148.717 145.779 149.324C146.245 151.553 146.155 153.917 145.67 156.387C144.697 161.336 142.152 166.604 139.385 171.859C138.895 172.791 138.396 173.724 137.9 174.654L137.899 174.656C135.627 178.908 133.387 183.102 132.041 186.922C130.406 191.564 129.951 196.038 132.756 199.522C142.57 211.715 145.535 218.525 145.535 225.396C145.535 228.548 145.139 232.184 144.552 235.303C144.259 236.861 143.922 238.274 143.568 239.422C143.206 240.597 142.853 241.406 142.563 241.824C142.247 242.277 142.358 242.9 142.811 243.216C143.264 243.532 143.887 243.421 144.203 242.967C144.681 242.282 145.106 241.222 145.479 240.011C145.861 238.772 146.215 237.283 146.518 235.672C147.123 232.455 147.535 228.693 147.535 225.396C147.535 217.807 144.189 210.537 134.314 198.268C132.196 195.637 132.346 192.076 133.927 187.586C135.217 183.925 137.365 179.902 139.633 175.655L139.634 175.653C140.138 174.709 140.648 173.755 141.155 172.791C143.916 167.547 146.596 162.043 147.632 156.773C148.117 154.305 148.245 151.867 147.85 149.517C160.635 150.554 177.822 147.868 190.367 142.382C190.455 144.422 190.616 146.351 190.848 148.114C190.959 148.949 191.35 149.724 192.077 150.15L192.12 150.176L192.157 150.197C190.271 167.199 187.659 195.009 189.503 218.428C190.528 231.447 192.896 245.83 194.225 253.901C194.414 255.05 194.582 256.072 194.722 256.943C194.098 257.575 193.418 258.504 192.868 259.412C192.516 259.994 192.193 260.606 191.955 261.18C191.728 261.728 191.535 262.343 191.535 262.895C191.535 263.163 191.642 263.419 191.832 263.607C192.022 263.794 192.279 263.898 192.546 263.895L219.81 263.581C220.337 263.575 220.769 263.162 220.797 262.636C221.112 256.814 221.558 248.678 222.003 240.692C222.379 242.049 222.753 243.348 223.122 244.58C224.077 247.766 225.005 250.516 225.856 252.658C226.492 254.261 227.113 255.599 227.704 256.523C227.474 256.797 227.199 257.153 226.924 257.577C226.252 258.611 225.528 260.125 225.52 261.89C225.518 262.157 225.623 262.412 225.811 262.601C225.998 262.789 226.253 262.896 226.52 262.896H253.035C253.587 262.896 254.035 262.448 254.035 261.896C254.035 258.545 253.274 253.876 252.466 248.947L252.437 248.772C251.63 243.847 250.773 238.619 250.498 233.933C250.437 232.898 250.367 231.462 250.28 229.685C249.575 215.185 247.764 177.971 240.669 150.288C241.567 149.508 241.992 148.305 241.8 147.093C241.149 142.989 239.33 133.919 234.894 124.158C239.801 123.21 247.646 120.929 255.387 116.434C265.433 110.601 275.981 100.104 283.1 89.8125C283.296 90.4012 283.492 90.9781 283.682 91.5409L283.684 91.5457C283.904 92.1955 284.118 92.8268 284.319 93.4354C285.625 97.3946 286.413 101.534 286.626 105.106C286.842 108.735 286.452 111.586 285.584 113.112C284.547 114.935 282.643 118.594 281.467 122.709C280.303 126.784 279.788 131.535 281.824 135.38C283.363 138.288 285.324 140.61 287.135 142.28C288.916 143.921 290.639 145.012 291.741 145.351C292.269 145.514 292.828 145.217 292.99 144.69C293.153 144.162 292.857 143.602 292.329 143.44C291.649 143.231 290.189 142.375 288.491 140.809C286.823 139.272 285.011 137.126 283.591 134.444C281.928 131.303 282.266 127.193 283.39 123.258C284.503 119.362 286.322 115.861 287.323 114.1C288.494 112.042 288.843 108.687 288.622 104.987C288.399 101.231 287.575 96.9212 286.218 92.8086C286.009 92.1751 285.79 91.5279 285.567 90.8696L285.566 90.8667L285.564 90.8589L285.563 90.858L285.563 90.8558C285.215 89.8284 284.858 88.7737 284.515 87.7003C285.6 86.0245 286.586 84.3631 287.456 82.7375C290.706 76.6621 292.074 72.7135 292.367 69.9806C292.516 68.5959 292.392 67.495 292.077 66.5796C291.782 65.7213 291.339 65.0832 290.894 64.5666C292.458 64.3492 294.12 64.501 295.77 64.9137C299.162 65.7622 302.251 67.6625 303.833 69.3235L303.119 70.0717C300.831 72.469 300.92 76.267 303.317 78.5548L309.104 84.0781L320.15 72.5034L314.363 66.9802C311.966 64.6923 308.168 64.781 305.881 67.1782L305.215 67.8754C303.315 65.9169 299.911 63.8878 296.256 62.9735C292.309 61.9862 287.792 62.2417 284.545 65.6444C284.45 65.7439 284.357 65.8439 284.266 65.9444C284.088 66.0902 283.917 66.2353 283.757 66.3768C283.424 66.1631 283.028 65.9789 282.583 65.8782C281.638 65.6644 280.554 65.8491 279.554 66.7414C279.26 67.0044 278.905 67.4044 278.517 67.8627C278.223 68.2093 277.886 68.6194 277.512 69.074L277.104 69.5694C276.019 70.8855 274.641 72.5315 272.97 74.3079C269.626 77.8644 265.134 81.9171 259.553 84.8391ZM285.692 81.794C285.099 82.9035 284.449 84.0305 283.749 85.1679C283.216 83.2754 282.776 81.3477 282.544 79.4299C282.01 75.0209 282.604 70.8328 285.649 67.3973C286.215 66.9428 286.848 66.4954 287.463 66.1646C288.015 65.8677 288.478 65.7054 288.821 65.6706C289.135 65.6388 289.242 65.7158 289.306 65.7881C289.675 66.2041 289.985 66.6446 290.186 67.2297C290.388 67.8173 290.502 68.6157 290.378 69.7672C290.127 72.1067 288.911 75.7779 285.692 81.794ZM280.558 79.6701C280.077 75.6886 280.43 71.6292 282.666 68.0534C282.512 67.9557 282.332 67.872 282.141 67.8288C281.817 67.7554 281.396 67.7786 280.886 68.2334C280.709 68.3913 280.437 68.6899 280.043 69.1552C279.761 69.4878 279.44 69.8785 279.072 70.3252L279.066 70.3328L279.065 70.334L278.647 70.8418C277.554 72.1679 276.143 73.8536 274.427 75.678C271 79.3228 266.333 83.547 260.481 86.611C254.905 89.53 250.143 91.7578 245.98 93.4573C246.647 95.2097 248.132 99.3279 249.616 104.896C251.064 110.325 250.416 114.919 249.947 117.041C251.414 116.342 252.9 115.565 254.383 114.704C264.568 108.791 275.371 97.8589 282.322 87.3967C281.556 84.9079 280.874 82.28 280.558 79.6701ZM137.157 139.193L137.46 139.126C139.223 139.962 140.961 141.265 142.634 143.155C143.779 144.449 144.606 145.815 145.163 147.245C139.949 146.649 136.893 145.785 135.074 144.859C134.042 144.334 133.435 143.803 133.053 143.313C132.673 142.825 132.473 142.325 132.326 141.789C132.3 141.695 132.294 141.564 132.492 141.319C132.708 141.05 133.097 140.75 133.647 140.45C134.737 139.855 136.167 139.413 137.157 139.193ZM144.132 141.83C145.703 143.604 146.744 145.496 147.361 147.468C147.476 147.478 147.592 147.488 147.709 147.498C157.055 148.306 168.923 147.035 179.462 144.096C175.386 138.363 174.361 128.807 175.712 122.783C172.883 124.681 169.534 126.747 165.508 129.004C159.746 132.235 153.659 133.839 148.734 134.721C146.269 135.163 144.086 135.425 142.378 135.617L141.725 135.69C141.145 135.754 140.639 135.811 140.204 135.866C139.599 135.942 139.2 136.007 138.971 136.069C138.312 136.248 138.062 136.588 137.947 136.9C137.92 136.972 137.899 137.047 137.884 137.122C140.058 138.07 142.161 139.602 144.132 141.83ZM238.878 151.36C224.14 159.012 202.349 154.635 194.066 151.124C192.19 168.167 189.693 195.371 191.497 218.271C192.514 231.195 194.865 245.474 196.195 253.557L196.195 253.558L196.197 253.57L196.198 253.576L196.199 253.578L196.2 253.586C196.428 254.974 196.626 256.177 196.782 257.159C196.839 257.515 196.699 257.874 196.417 258.098C195.97 258.454 195.229 259.376 194.579 260.448C194.278 260.944 194.018 261.439 193.83 261.88L218.851 261.592C219.247 254.29 219.824 243.77 220.353 234.396C219.339 230.313 218.343 225.908 217.424 221.369C215.672 212.707 214.198 203.54 213.413 195.18C212.631 186.84 212.525 179.228 213.552 173.713C213.653 173.17 214.175 172.811 214.718 172.912C215.261 173.013 215.619 173.535 215.518 174.078C214.544 179.313 214.626 186.701 215.405 194.993C216.181 203.264 217.642 212.359 219.385 220.972C221.127 229.585 223.148 237.699 225.038 244.006C225.984 247.161 226.893 249.851 227.714 251.919C228.554 254.034 229.255 255.373 229.749 255.941C230.102 256.347 230.07 256.959 229.678 257.327L229.677 257.328L229.665 257.34C229.652 257.352 229.631 257.373 229.603 257.402C229.59 257.415 229.575 257.431 229.559 257.448L229.526 257.481L229.498 257.512L229.483 257.528L229.448 257.566C229.421 257.596 229.391 257.629 229.36 257.664C229.155 257.898 228.878 258.24 228.601 258.666C228.196 259.29 227.816 260.055 227.633 260.896H252.013C251.887 257.831 251.228 253.759 250.492 249.271L250.455 249.041C249.654 244.155 248.783 238.841 248.501 234.051C248.439 232.999 248.368 231.55 248.281 229.761L248.281 229.755C247.576 215.305 245.794 178.753 238.878 151.36ZM96.2732 154.723L100.289 150.265C101.767 148.623 104.296 148.491 105.938 149.97L108.516 152.292C110.157 153.77 110.29 156.299 108.811 157.941L104.796 162.399L96.2732 154.723ZM317.323 72.5694L312.983 68.4271C311.384 66.9018 308.853 66.9609 307.327 68.5591L304.566 71.4526C303.041 73.0507 303.1 75.5827 304.698 77.108L309.038 81.2504L317.323 72.5694Z" fill="#002033"/>
<path fill-rule="evenodd" clip-rule="evenodd" d="M215.367 90.8443C218.418 90.8443 221.186 89.6361 223.22 87.6721C225.35 85.6156 226.675 82.7303 226.675 79.5357C226.675 76.4129 225.409 73.5857 223.363 71.5393L223.328 71.5043C222.014 70.099 219.803 68.632 217.118 67.5102C212.246 65.4744 207.661 65.3462 206.877 67.2238C206.491 68.146 207.095 69.3805 208.385 70.6393C206.096 72.439 204.518 75.1039 204.144 78.1415C202.903 78.6026 202.035 79.6621 202.035 80.8955C202.035 82.3698 203.275 83.5957 204.91 83.848C206.606 87.9544 210.649 90.8443 215.367 90.8443ZM205.215 81.8714L206.329 82.0432L206.759 83.0848C208.156 86.4689 211.487 88.8443 215.367 88.8443C217.695 88.8443 219.824 87.9893 221.456 86.5762C220.211 85.7124 219.068 84.7132 218.047 83.6C218.426 83.2721 218.764 82.851 219.025 82.3533C219.895 80.6936 219.574 78.8111 218.31 78.1486C217.261 77.599 215.892 78.0618 214.959 79.1832C214.089 77.5014 213.446 75.6829 213.072 73.7683C211.911 73.2087 210.864 72.5897 209.971 71.9504C207.897 73.4281 206.455 75.7345 206.129 78.3856L205.981 79.5929L204.841 80.0164C204.208 80.2514 204.035 80.6707 204.035 80.8955C204.035 81.1503 204.306 81.7311 205.215 81.8714Z" fill="#002033"/>
<path d="M166.116 192.896C168.325 192.896 170.116 191.105 170.116 188.896C170.116 186.686 168.325 184.896 166.116 184.896C163.907 184.896 162.116 186.686 162.116 188.896C162.116 191.105 163.907 192.896 166.116 192.896Z" fill="#002033"/>
<path fill-rule="evenodd" clip-rule="evenodd" d="M162.116 95.3955C162.116 96.7762 160.997 97.8955 159.616 97.8955C158.236 97.8955 157.116 96.7762 157.116 95.3955C157.116 94.0148 158.236 92.8955 159.616 92.8955C160.997 92.8955 162.116 94.0148 162.116 95.3955ZM161.116 95.3955C161.116 96.224 160.445 96.8955 159.616 96.8955C158.788 96.8955 158.116 96.224 158.116 95.3955C158.116 94.5671 158.788 93.8955 159.616 93.8955C160.445 93.8955 161.116 94.5671 161.116 95.3955Z" fill="#002033"/>
<path fill-rule="evenodd" clip-rule="evenodd" d="M96.1162 208.396C96.1162 209.776 94.9969 210.896 93.6162 210.896C92.2355 210.896 91.1162 209.776 91.1162 208.396C91.1162 207.015 92.2355 205.896 93.6162 205.896C94.9969 205.896 96.1162 207.015 96.1162 208.396ZM95.1162 208.396C95.1162 209.224 94.4447 209.896 93.6162 209.896C92.7878 209.896 92.1162 209.224 92.1162 208.396C92.1162 207.567 92.7878 206.896 93.6162 206.896C94.4447 206.896 95.1162 207.567 95.1162 208.396Z" fill="#002033"/>
<path fill-rule="evenodd" clip-rule="evenodd" d="M356.616 105.896C357.997 105.896 359.116 104.776 359.116 103.396C359.116 102.015 357.997 100.896 356.616 100.896C355.236 100.896 354.116 102.015 354.116 103.396C354.116 104.776 355.236 105.896 356.616 105.896ZM356.616 104.896C357.445 104.896 358.116 104.224 358.116 103.396C358.116 102.567 357.445 101.896 356.616 101.896C355.788 101.896 355.116 102.567 355.116 103.396C355.116 104.224 355.788 104.896 356.616 104.896Z" fill="#002033"/>
<path fill-rule="evenodd" clip-rule="evenodd" d="M271.116 164.396C271.116 165.776 269.997 166.896 268.616 166.896C267.236 166.896 266.116 165.776 266.116 164.396C266.116 163.015 267.236 161.896 268.616 161.896C269.997 161.896 271.116 163.015 271.116 164.396ZM270.116 164.396C270.116 165.224 269.445 165.896 268.616 165.896C267.788 165.896 267.116 165.224 267.116 164.396C267.116 163.567 267.788 162.896 268.616 162.896C269.445 162.896 270.116 163.567 270.116 164.396Z" fill="#002033"/>
<path d="M103.897 183.48L104.077 187.313C104.156 188.985 105.295 190.419 106.906 190.873C108.93 191.443 110.363 193.246 110.462 195.347L110.642 199.181C110.655 199.456 110.442 199.691 110.166 199.704C109.89 199.717 109.656 199.503 109.643 199.228L109.463 195.394C109.384 193.723 108.245 192.289 106.634 191.835C104.61 191.264 103.177 189.462 103.078 187.36L102.898 183.527C102.885 183.251 103.098 183.017 103.374 183.004C103.65 182.991 103.884 183.204 103.897 183.48Z" fill="#002033"/>
<path d="M197.583 21.5621L198.109 17.7606C198.147 17.4871 197.956 17.2347 197.682 17.1968C197.408 17.159 197.156 17.35 197.118 17.6236L196.592 21.425C196.304 23.5089 197.381 25.5435 199.267 26.476C200.767 27.2177 201.624 28.836 201.394 30.4935L200.868 34.295C200.83 34.5685 201.021 34.821 201.295 34.8588C201.569 34.8967 201.821 34.7056 201.859 34.4321L202.385 30.6306C202.673 28.5467 201.596 26.5122 199.71 25.5796C198.21 24.8379 197.353 23.2196 197.583 21.5621Z" fill="#002033"/>
<path d="M337.621 82.4706L341.248 83.7227C342.83 84.2686 344.583 83.7412 345.602 82.4133C346.882 80.7439 349.086 80.0807 351.075 80.7671L354.703 82.0193C354.964 82.1094 355.102 82.394 355.012 82.655C354.922 82.9161 354.637 83.0546 354.376 82.9645L350.749 81.7124C349.167 81.1665 347.413 81.6939 346.395 83.0218C345.115 84.6913 342.911 85.3544 340.922 84.668L337.294 83.4158C337.033 83.3257 336.895 83.0411 336.985 82.7801C337.075 82.519 337.359 82.3805 337.621 82.4706Z" fill="#002033"/>
<path d="M63.6445 162.358L60.2276 160.611C59.9818 160.485 59.6805 160.583 59.5548 160.829C59.4291 161.074 59.5265 161.376 59.7723 161.501L63.1892 163.249C65.0623 164.206 67.338 163.858 68.8389 162.384C70.0328 161.212 71.8429 160.935 73.3327 161.697L76.7496 163.444C76.9954 163.57 77.2967 163.472 77.4224 163.226C77.5481 162.981 77.4507 162.679 77.2049 162.554L73.788 160.806C71.915 159.849 69.6392 160.197 68.1383 161.671C66.9444 162.843 65.1343 163.12 63.6445 162.358Z" fill="#002033"/>
<path d="M300.207 114.568L303.095 112.041C304.354 110.939 304.767 109.155 304.12 107.612C303.307 105.672 303.826 103.429 305.409 102.044L308.298 99.5167C308.505 99.3349 308.821 99.356 309.003 99.5638C309.185 99.7716 309.164 100.088 308.956 100.269L306.068 102.796C304.808 103.898 304.395 105.682 305.042 107.225C305.856 109.165 305.337 111.408 303.753 112.793L300.865 115.32C300.657 115.502 300.341 115.481 300.16 115.273C299.978 115.066 299.999 114.75 300.207 114.568Z" fill="#002033"/>
<path d="M85.3238 182.323L86.7028 178.742C86.802 178.484 87.0913 178.356 87.349 178.455C87.6067 178.554 87.7352 178.844 87.636 179.101L86.257 182.683C85.5011 184.646 83.5737 185.905 81.4723 185.809C79.8007 185.732 78.2677 186.734 77.6665 188.295L76.2875 191.877C76.1883 192.134 75.8989 192.263 75.6412 192.164C75.3835 192.064 75.2551 191.775 75.3543 191.517L76.7333 187.936C77.4892 185.973 79.4165 184.714 81.518 184.81C83.1895 184.886 84.7225 183.885 85.3238 182.323Z" fill="#002033"/>
<path d="M326.852 96.6884L329.669 99.2955C330.896 100.432 331.259 102.227 330.569 103.751C329.701 105.668 330.157 107.925 331.701 109.354L334.517 111.961C334.72 112.148 335.036 112.136 335.224 111.934C335.412 111.731 335.399 111.415 335.197 111.227L332.381 108.62C331.153 107.483 330.79 105.688 331.48 104.164C332.348 102.247 331.892 99.9908 330.348 98.5617L327.532 95.9546C327.329 95.767 327.013 95.7792 326.825 95.9818C326.637 96.1844 326.65 96.5008 326.852 96.6884Z" fill="#002033"/>
<path d="M316.72 183.974L313.033 182.909C312.768 182.832 312.615 182.555 312.692 182.29C312.768 182.025 313.046 181.872 313.311 181.948L316.998 183.014C319.019 183.598 320.439 185.41 320.524 187.512C320.592 189.183 321.722 190.624 323.329 191.089L327.016 192.154C327.281 192.231 327.434 192.508 327.358 192.774C327.281 193.039 327.004 193.192 326.739 193.115L323.052 192.05C321.031 191.466 319.61 189.654 319.525 187.552C319.457 185.88 318.328 184.439 316.72 183.974Z" fill="#002033"/>
<path d="M292.575 191.609C291.943 192.816 292.694 194.286 294.043 194.48L294.149 194.496C296.2 194.791 297.29 197.078 296.229 198.858C295.533 200.024 296.247 201.523 297.592 201.717C299.643 202.013 300.733 204.3 299.671 206.079C298.975 207.246 299.69 208.745 301.034 208.939C303.085 209.234 304.175 211.521 303.114 213.3C302.418 214.467 303.132 215.966 304.477 216.16C306.528 216.456 307.618 218.742 306.556 220.522C305.86 221.688 306.575 223.188 307.919 223.381L308.025 223.397C310.057 223.69 311.189 225.903 310.237 227.722L309.54 229.052C309.412 229.297 309.11 229.391 308.865 229.263C308.62 229.135 308.526 228.833 308.654 228.588L309.351 227.258C309.983 226.051 309.232 224.581 307.883 224.387L307.777 224.371C305.726 224.076 304.636 221.789 305.697 220.009C306.393 218.843 305.679 217.344 304.334 217.15C302.283 216.854 301.193 214.567 302.255 212.788C302.951 211.621 302.236 210.122 300.892 209.928C298.841 209.633 297.751 207.346 298.812 205.567C299.508 204.4 298.794 202.901 297.449 202.707C295.398 202.411 294.308 200.125 295.37 198.345C296.066 197.179 295.351 195.679 294.007 195.486L293.9 195.47C291.869 195.177 290.737 192.964 291.689 191.145L292.386 189.815C292.514 189.57 292.816 189.476 293.061 189.604C293.306 189.732 293.4 190.034 293.272 190.279L292.575 191.609Z" fill="#002033"/>
<path d="M81.29 90.7324C81.7492 92.0154 83.3391 92.459 84.3962 91.5989L84.4793 91.5312C86.0866 90.2236 88.5069 90.9717 89.0958 92.9583C89.482 94.2607 91.0688 94.7512 92.1225 93.8939C93.7297 92.5862 96.1501 93.3343 96.739 95.3209C97.1251 96.6233 98.7119 97.1138 99.7657 96.2565C101.373 94.9488 103.793 95.697 104.382 97.6835C104.768 98.9859 106.355 99.4764 107.409 98.6191C109.016 97.3114 111.436 98.0596 112.025 100.046C112.411 101.349 113.998 101.839 115.052 100.982L115.135 100.914C116.727 99.6186 119.122 100.287 119.814 102.219L120.32 103.633C120.413 103.893 120.278 104.179 120.018 104.272C119.758 104.365 119.472 104.23 119.378 103.97L118.872 102.556C118.413 101.273 116.823 100.83 115.766 101.69L115.683 101.757C114.076 103.065 111.656 102.317 111.067 100.33C110.68 99.028 109.094 98.5375 108.04 99.3948C106.433 100.702 104.012 99.9543 103.423 97.9678C103.037 96.6653 101.451 96.1748 100.397 97.0322C98.7896 98.3399 96.3692 97.5917 95.7803 95.6051C95.3942 94.3027 93.8073 93.8122 92.7536 94.6696C91.1464 95.9772 88.726 95.2291 88.1371 93.2425C87.751 91.9401 86.1642 91.4496 85.1104 92.3069L85.0273 92.3746C83.435 93.6701 81.0402 93.002 80.3485 91.0693L79.8425 89.6555C79.7494 89.3956 79.8848 89.1094 80.1447 89.0163C80.4047 88.9232 80.6909 89.0586 80.784 89.3186L81.29 90.7324Z" fill="#002033"/>
</g>
<path d="M88.842 293.545V311H85.7056V296.17H78.0692V311H74.9329V293.545H88.842ZM92.4876 315.909V297.909H95.5217V300.074H95.7006C95.8597 299.756 96.0842 299.418 96.3739 299.06C96.6637 298.696 97.0558 298.386 97.5501 298.131C98.0444 297.869 98.6751 297.739 99.4421 297.739C100.453 297.739 101.365 297.997 102.178 298.514C102.996 299.026 103.644 299.784 104.121 300.79C104.604 301.79 104.846 303.017 104.846 304.472C104.846 305.909 104.61 307.131 104.138 308.136C103.667 309.142 103.025 309.909 102.212 310.438C101.4 310.966 100.479 311.23 99.4506 311.23C98.7006 311.23 98.0785 311.105 97.5842 310.855C97.0898 310.605 96.6921 310.304 96.391 309.952C96.0955 309.594 95.8654 309.256 95.7006 308.938H95.5728V315.909H92.4876ZM95.5131 304.455C95.5131 305.301 95.6325 306.043 95.8711 306.679C96.1154 307.315 96.4648 307.812 96.9194 308.17C97.3796 308.523 97.9364 308.699 98.5898 308.699C99.2717 308.699 99.8427 308.517 100.303 308.153C100.763 307.784 101.11 307.281 101.343 306.645C101.581 306.003 101.701 305.273 101.701 304.455C101.701 303.642 101.584 302.92 101.351 302.29C101.118 301.659 100.772 301.165 100.311 300.807C99.8512 300.449 99.2773 300.27 98.5898 300.27C97.9308 300.27 97.3711 300.443 96.9109 300.79C96.4506 301.136 96.1012 301.622 95.8626 302.247C95.6296 302.872 95.5131 303.608 95.5131 304.455ZM113.198 311.256C111.919 311.256 110.811 310.974 109.874 310.412C108.936 309.849 108.209 309.062 107.692 308.051C107.181 307.04 106.925 305.858 106.925 304.506C106.925 303.153 107.181 301.969 107.692 300.952C108.209 299.935 108.936 299.145 109.874 298.582C110.811 298.02 111.919 297.739 113.198 297.739C114.476 297.739 115.584 298.02 116.522 298.582C117.459 299.145 118.184 299.935 118.695 300.952C119.212 301.969 119.471 303.153 119.471 304.506C119.471 305.858 119.212 307.04 118.695 308.051C118.184 309.062 117.459 309.849 116.522 310.412C115.584 310.974 114.476 311.256 113.198 311.256ZM113.215 308.784C113.908 308.784 114.488 308.594 114.953 308.213C115.419 307.827 115.766 307.31 115.993 306.662C116.226 306.014 116.343 305.293 116.343 304.497C116.343 303.696 116.226 302.972 115.993 302.324C115.766 301.67 115.419 301.151 114.953 300.764C114.488 300.378 113.908 300.185 113.215 300.185C112.505 300.185 111.914 300.378 111.442 300.764C110.976 301.151 110.627 301.67 110.394 302.324C110.167 302.972 110.053 303.696 110.053 304.497C110.053 305.293 110.167 306.014 110.394 306.662C110.627 307.31 110.976 307.827 111.442 308.213C111.914 308.594 112.505 308.784 113.215 308.784ZM132.581 293.068L133.654 295.062C133.274 295.392 132.848 295.631 132.376 295.778C131.904 295.926 131.35 296.023 130.714 296.068C130.083 296.108 129.333 296.136 128.464 296.153C127.487 296.176 126.689 296.361 126.069 296.707C125.45 297.054 124.975 297.58 124.646 298.284C124.316 298.983 124.1 299.875 123.998 300.96H124.143C124.552 300.159 125.126 299.548 125.865 299.128C126.603 298.707 127.47 298.497 128.464 298.497C129.549 298.497 130.507 298.741 131.336 299.23C132.172 299.713 132.822 300.415 133.288 301.335C133.76 302.256 133.995 303.369 133.995 304.676C133.995 306.023 133.743 307.19 133.237 308.179C132.731 309.162 132.012 309.92 131.081 310.455C130.154 310.989 129.055 311.256 127.782 311.256C126.515 311.256 125.413 310.98 124.475 310.429C123.544 309.872 122.822 309.051 122.311 307.966C121.805 306.875 121.552 305.531 121.552 303.935V302.759C121.552 299.679 122.126 297.381 123.274 295.864C124.422 294.347 126.123 293.574 128.379 293.545C129.049 293.534 129.649 293.531 130.177 293.537C130.711 293.543 131.177 293.517 131.575 293.46C131.973 293.403 132.308 293.273 132.581 293.068ZM127.799 308.784C128.43 308.784 128.975 308.622 129.436 308.298C129.896 307.969 130.248 307.503 130.493 306.901C130.743 306.298 130.868 305.585 130.868 304.761C130.868 303.949 130.743 303.259 130.493 302.69C130.243 302.116 129.887 301.679 129.427 301.378C128.967 301.077 128.419 300.926 127.782 300.926C127.305 300.926 126.876 301.011 126.495 301.182C126.115 301.352 125.791 301.602 125.524 301.932C125.257 302.261 125.052 302.662 124.91 303.134C124.768 303.605 124.691 304.148 124.68 304.761C124.68 305.994 124.958 306.974 125.515 307.702C126.072 308.423 126.833 308.784 127.799 308.784ZM135.717 311L135.7 308.46H136.152C136.493 308.46 136.779 308.384 137.012 308.23C137.245 308.077 137.439 307.821 137.592 307.463C137.745 307.099 137.865 306.611 137.95 305.997C138.035 305.384 138.095 304.619 138.129 303.705L138.359 297.909H147.904V311H144.922V300.44H141.163L140.958 304.659C140.907 305.75 140.785 306.696 140.592 307.497C140.404 308.293 140.137 308.949 139.791 309.466C139.45 309.983 139.021 310.369 138.504 310.625C137.987 310.875 137.376 311 136.672 311H135.717ZM156.806 311.256C155.494 311.256 154.36 310.983 153.406 310.438C152.457 309.886 151.727 309.108 151.216 308.102C150.704 307.091 150.449 305.901 150.449 304.531C150.449 303.185 150.704 302.003 151.216 300.986C151.733 299.963 152.454 299.168 153.38 298.599C154.306 298.026 155.395 297.739 156.645 297.739C157.451 297.739 158.213 297.869 158.929 298.131C159.65 298.386 160.287 298.784 160.838 299.324C161.395 299.864 161.832 300.551 162.15 301.386C162.468 302.216 162.627 303.205 162.627 304.352V305.298H151.897V303.219H159.67C159.664 302.628 159.537 302.102 159.287 301.642C159.037 301.176 158.687 300.81 158.238 300.543C157.795 300.276 157.278 300.142 156.687 300.142C156.056 300.142 155.502 300.295 155.025 300.602C154.548 300.903 154.176 301.301 153.909 301.795C153.647 302.284 153.514 302.821 153.508 303.406V305.222C153.508 305.983 153.647 306.636 153.926 307.182C154.204 307.722 154.593 308.136 155.093 308.426C155.593 308.71 156.179 308.852 156.849 308.852C157.298 308.852 157.704 308.79 158.068 308.665C158.431 308.534 158.747 308.344 159.014 308.094C159.281 307.844 159.483 307.534 159.619 307.165L162.5 307.489C162.318 308.25 161.971 308.915 161.46 309.483C160.954 310.045 160.306 310.483 159.517 310.795C158.727 311.102 157.824 311.256 156.806 311.256ZM172.772 307.412L176.658 297.909H179.147L173.854 311H171.698L166.525 297.909H168.988L172.772 307.412ZM168.212 297.909V311H165.238V297.909H168.212ZM177.459 311V297.909H180.408V311H177.459ZM185.607 302.17H189.468C191.138 302.17 192.431 302.577 193.346 303.389C194.26 304.202 194.721 305.267 194.726 306.585C194.721 307.443 194.51 308.205 194.096 308.869C193.686 309.534 193.09 310.057 192.306 310.438C191.527 310.812 190.581 311 189.468 311H183.519V297.909H186.493V308.469H189.468C190.138 308.469 190.689 308.298 191.121 307.957C191.553 307.611 191.769 307.168 191.769 306.628C191.769 306.06 191.553 305.597 191.121 305.239C190.689 304.881 190.138 304.702 189.468 304.702H185.607V302.17ZM196.354 311V297.909H199.439V311H196.354ZM214.284 311.256C212.977 311.256 211.855 310.969 210.917 310.395C209.985 309.821 209.267 309.028 208.761 308.017C208.261 307 208.011 305.83 208.011 304.506C208.011 303.176 208.267 302.003 208.778 300.986C209.289 299.963 210.011 299.168 210.943 298.599C211.88 298.026 212.988 297.739 214.267 297.739C215.329 297.739 216.27 297.935 217.088 298.327C217.912 298.713 218.568 299.261 219.056 299.972C219.545 300.676 219.824 301.5 219.892 302.443H216.943C216.824 301.812 216.539 301.287 216.091 300.866C215.647 300.44 215.054 300.227 214.309 300.227C213.679 300.227 213.125 300.398 212.647 300.739C212.17 301.074 211.798 301.557 211.531 302.188C211.27 302.818 211.139 303.574 211.139 304.455C211.139 305.347 211.27 306.114 211.531 306.756C211.792 307.392 212.159 307.884 212.63 308.23C213.108 308.571 213.667 308.741 214.309 308.741C214.764 308.741 215.17 308.656 215.528 308.486C215.892 308.31 216.196 308.057 216.44 307.727C216.684 307.398 216.852 306.997 216.943 306.526H219.892C219.818 307.452 219.545 308.273 219.074 308.989C218.602 309.699 217.96 310.256 217.147 310.659C216.335 311.057 215.38 311.256 214.284 311.256ZM227.654 307.412H230.713C230.742 307.901 230.961 308.278 231.37 308.545C231.779 308.812 232.31 308.946 232.963 308.946C233.628 308.946 234.188 308.801 234.642 308.511C235.103 308.216 235.333 307.77 235.333 307.173C235.333 306.821 235.245 306.511 235.069 306.244C234.892 305.972 234.645 305.761 234.327 305.614C234.009 305.466 233.634 305.392 233.202 305.392H231.199V303.202H233.202C233.844 303.202 234.33 303.054 234.659 302.759C234.995 302.463 235.162 302.091 235.162 301.642C235.162 301.159 234.986 300.767 234.634 300.466C234.287 300.165 233.807 300.014 233.194 300.014C232.58 300.014 232.069 300.153 231.659 300.432C231.256 300.71 231.046 301.068 231.029 301.506H227.986C227.998 300.744 228.225 300.082 228.668 299.52C229.117 298.957 229.719 298.52 230.475 298.207C231.236 297.895 232.094 297.739 233.049 297.739C234.071 297.739 234.955 297.892 235.699 298.199C236.444 298.506 237.017 298.935 237.421 299.486C237.824 300.031 238.026 300.673 238.026 301.412C238.026 302.122 237.804 302.71 237.361 303.176C236.918 303.636 236.321 303.966 235.571 304.165V304.301C236.088 304.33 236.554 304.477 236.969 304.744C237.384 305.006 237.713 305.361 237.958 305.81C238.202 306.259 238.324 306.778 238.324 307.369C238.324 308.17 238.094 308.864 237.634 309.449C237.174 310.028 236.54 310.474 235.733 310.787C234.932 311.099 234.015 311.256 232.98 311.256C231.975 311.256 231.074 311.105 230.279 310.804C229.489 310.497 228.861 310.057 228.395 309.483C227.929 308.909 227.682 308.219 227.654 307.412ZM244.52 311.264C243.691 311.264 242.944 311.116 242.279 310.821C241.62 310.52 241.097 310.077 240.711 309.491C240.33 308.906 240.14 308.185 240.14 307.327C240.14 306.588 240.276 305.977 240.549 305.494C240.821 305.011 241.194 304.625 241.665 304.335C242.137 304.045 242.668 303.827 243.259 303.679C243.855 303.526 244.472 303.415 245.108 303.347C245.875 303.267 246.498 303.196 246.975 303.134C247.452 303.065 247.799 302.963 248.015 302.827C248.236 302.685 248.347 302.466 248.347 302.17V302.119C248.347 301.477 248.157 300.98 247.776 300.628C247.395 300.276 246.847 300.099 246.131 300.099C245.375 300.099 244.776 300.264 244.333 300.594C243.895 300.923 243.6 301.312 243.446 301.761L240.566 301.352C240.793 300.557 241.168 299.892 241.691 299.358C242.213 298.818 242.853 298.415 243.608 298.148C244.364 297.875 245.199 297.739 246.114 297.739C246.745 297.739 247.373 297.812 247.998 297.96C248.623 298.108 249.194 298.352 249.711 298.693C250.228 299.028 250.642 299.486 250.955 300.065C251.273 300.645 251.432 301.369 251.432 302.239V311H248.466V309.202H248.364C248.176 309.565 247.912 309.906 247.571 310.224C247.236 310.537 246.813 310.79 246.301 310.983C245.796 311.17 245.202 311.264 244.52 311.264ZM245.321 308.997C245.941 308.997 246.478 308.875 246.932 308.631C247.387 308.381 247.736 308.051 247.98 307.642C248.23 307.233 248.355 306.787 248.355 306.304V304.761C248.259 304.841 248.094 304.915 247.861 304.983C247.634 305.051 247.378 305.111 247.094 305.162C246.81 305.213 246.529 305.259 246.25 305.298C245.972 305.338 245.73 305.372 245.526 305.401C245.066 305.463 244.654 305.565 244.29 305.707C243.926 305.849 243.64 306.048 243.429 306.304C243.219 306.554 243.114 306.878 243.114 307.276C243.114 307.844 243.321 308.273 243.736 308.562C244.151 308.852 244.679 308.997 245.321 308.997ZM263.194 297.909V300.44H257.551V311H254.534V297.909H263.194ZM265.667 315.909V297.909H268.701V300.074H268.88C269.039 299.756 269.264 299.418 269.554 299.06C269.843 298.696 270.235 298.386 270.73 298.131C271.224 297.869 271.855 297.739 272.622 297.739C273.633 297.739 274.545 297.997 275.358 298.514C276.176 299.026 276.824 299.784 277.301 300.79C277.784 301.79 278.025 303.017 278.025 304.472C278.025 305.909 277.789 307.131 277.318 308.136C276.846 309.142 276.204 309.909 275.392 310.438C274.579 310.966 273.659 311.23 272.63 311.23C271.88 311.23 271.258 311.105 270.764 310.855C270.27 310.605 269.872 310.304 269.571 309.952C269.275 309.594 269.045 309.256 268.88 308.938H268.752V315.909H265.667ZM268.693 304.455C268.693 305.301 268.812 306.043 269.051 306.679C269.295 307.315 269.645 307.812 270.099 308.17C270.559 308.523 271.116 308.699 271.77 308.699C272.451 308.699 273.022 308.517 273.483 308.153C273.943 307.784 274.289 307.281 274.522 306.645C274.761 306.003 274.88 305.273 274.88 304.455C274.88 303.642 274.764 302.92 274.531 302.29C274.298 301.659 273.951 301.165 273.491 300.807C273.031 300.449 272.457 300.27 271.77 300.27C271.11 300.27 270.551 300.443 270.091 300.79C269.63 301.136 269.281 301.622 269.042 302.247C268.809 302.872 268.693 303.608 268.693 304.455ZM282.14 315.909C281.719 315.909 281.33 315.875 280.972 315.807C280.62 315.744 280.338 315.67 280.128 315.585L280.844 313.182C281.293 313.313 281.694 313.375 282.046 313.369C282.398 313.364 282.708 313.253 282.975 313.037C283.248 312.827 283.478 312.474 283.665 311.98L283.929 311.273L279.182 297.909H282.455L285.472 307.795H285.608L288.634 297.909H291.915L286.674 312.585C286.429 313.278 286.105 313.872 285.702 314.366C285.299 314.866 284.804 315.247 284.219 315.509C283.64 315.776 282.946 315.909 282.14 315.909ZM293.326 307.412H296.385C296.414 307.901 296.632 308.278 297.042 308.545C297.451 308.812 297.982 308.946 298.635 308.946C299.3 308.946 299.86 308.801 300.314 308.511C300.775 308.216 301.005 307.77 301.005 307.173C301.005 306.821 300.917 306.511 300.74 306.244C300.564 305.972 300.317 305.761 299.999 305.614C299.681 305.466 299.306 305.392 298.874 305.392H296.871V303.202H298.874C299.516 303.202 300.002 303.054 300.331 302.759C300.667 302.463 300.834 302.091 300.834 301.642C300.834 301.159 300.658 300.767 300.306 300.466C299.959 300.165 299.479 300.014 298.865 300.014C298.252 300.014 297.74 300.153 297.331 300.432C296.928 300.71 296.718 301.068 296.701 301.506H293.658C293.669 300.744 293.897 300.082 294.34 299.52C294.789 298.957 295.391 298.52 296.147 298.207C296.908 297.895 297.766 297.739 298.721 297.739C299.743 297.739 300.627 297.892 301.371 298.199C302.115 298.506 302.689 298.935 303.093 299.486C303.496 300.031 303.698 300.673 303.698 301.412C303.698 302.122 303.476 302.71 303.033 303.176C302.59 303.636 301.993 303.966 301.243 304.165V304.301C301.76 304.33 302.226 304.477 302.641 304.744C303.056 305.006 303.385 305.361 303.63 305.81C303.874 306.259 303.996 306.778 303.996 307.369C303.996 308.17 303.766 308.864 303.306 309.449C302.846 310.028 302.212 310.474 301.405 310.787C300.604 311.099 299.686 311.256 298.652 311.256C297.647 311.256 296.746 311.105 295.951 310.804C295.161 310.497 294.533 310.057 294.067 309.483C293.601 308.909 293.354 308.219 293.326 307.412ZM306.425 311V297.909H309.51V303.193H310.635L314.573 297.909H318.289L313.439 304.335L318.34 311H314.607L311.019 306.065H309.51V311H306.425ZM325.26 311.256C323.982 311.256 322.874 310.974 321.936 310.412C320.999 309.849 320.272 309.062 319.755 308.051C319.243 307.04 318.988 305.858 318.988 304.506C318.988 303.153 319.243 301.969 319.755 300.952C320.272 299.935 320.999 299.145 321.936 298.582C322.874 298.02 323.982 297.739 325.26 297.739C326.539 297.739 327.647 298.02 328.584 298.582C329.522 299.145 330.246 299.935 330.757 300.952C331.275 301.969 331.533 303.153 331.533 304.506C331.533 305.858 331.275 307.04 330.757 308.051C330.246 309.062 329.522 309.849 328.584 310.412C327.647 310.974 326.539 311.256 325.26 311.256ZM325.277 308.784C325.971 308.784 326.55 308.594 327.016 308.213C327.482 307.827 327.828 307.31 328.056 306.662C328.289 306.014 328.405 305.293 328.405 304.497C328.405 303.696 328.289 302.972 328.056 302.324C327.828 301.67 327.482 301.151 327.016 300.764C326.55 300.378 325.971 300.185 325.277 300.185C324.567 300.185 323.976 300.378 323.505 300.764C323.039 301.151 322.689 301.67 322.456 302.324C322.229 302.972 322.115 303.696 322.115 304.497C322.115 305.293 322.229 306.014 322.456 306.662C322.689 307.31 323.039 307.827 323.505 308.213C323.976 308.594 324.567 308.784 325.277 308.784ZM337.126 306.824L342.368 297.909H345.538V311H342.555V302.077L337.331 311H334.152V297.909H337.126V306.824ZM341.524 293.409H343.833C343.833 294.403 343.473 295.21 342.751 295.83C342.035 296.443 341.064 296.75 339.836 296.75C338.62 296.75 337.652 296.443 336.93 295.83C336.214 295.21 335.859 294.403 335.865 293.409H338.157C338.157 293.818 338.282 294.185 338.532 294.509C338.788 294.827 339.223 294.986 339.836 294.986C340.439 294.986 340.868 294.827 341.123 294.509C341.385 294.19 341.518 293.824 341.524 293.409Z" fill="#002033"/>
<path d="M55.5234 340L51.5234 334.659H50.0916V340H48.6825V328.364H50.0916V333.409H50.7053L55.3643 328.364H57.0462L52.3416 333.477L57.2053 340H55.5234ZM61.4126 340.205C60.8596 340.205 60.3577 340.1 59.907 339.892C59.4562 339.68 59.0982 339.375 58.8331 338.977C58.5679 338.576 58.4354 338.091 58.4354 337.523C58.4354 337.023 58.5339 336.617 58.7308 336.307C58.9278 335.992 59.1911 335.746 59.5206 335.568C59.8501 335.39 60.2138 335.258 60.6115 335.17C61.013 335.08 61.4164 335.008 61.8217 334.955C62.352 334.886 62.782 334.835 63.1115 334.801C63.4448 334.763 63.6873 334.701 63.8388 334.614C63.9941 334.527 64.0717 334.375 64.0717 334.159V334.114C64.0717 333.553 63.9183 333.117 63.6115 332.807C63.3085 332.496 62.8482 332.341 62.2308 332.341C61.5907 332.341 61.0888 332.481 60.7251 332.761C60.3615 333.042 60.1058 333.341 59.9581 333.659L58.6854 333.205C58.9126 332.674 59.2157 332.261 59.5945 331.966C59.977 331.667 60.3937 331.458 60.8445 331.341C61.299 331.22 61.746 331.159 62.1854 331.159C62.4657 331.159 62.7876 331.193 63.1513 331.261C63.5187 331.326 63.8729 331.46 64.2138 331.665C64.5585 331.869 64.8445 332.178 65.0717 332.591C65.299 333.004 65.4126 333.557 65.4126 334.25V340H64.0717V338.818H64.0036C63.9126 339.008 63.7611 339.21 63.549 339.426C63.3369 339.642 63.0547 339.826 62.7024 339.977C62.3501 340.129 61.9202 340.205 61.4126 340.205ZM61.6172 339C62.1475 339 62.5945 338.896 62.9581 338.688C63.3255 338.479 63.602 338.21 63.7876 337.881C63.977 337.551 64.0717 337.205 64.0717 336.841V335.614C64.0149 335.682 63.8899 335.744 63.6967 335.801C63.5073 335.854 63.2876 335.902 63.0376 335.943C62.7914 335.981 62.5509 336.015 62.3161 336.045C62.085 336.072 61.8975 336.095 61.7536 336.114C61.4051 336.159 61.0793 336.233 60.7763 336.335C60.477 336.434 60.2346 336.583 60.049 336.784C59.8672 336.981 59.7763 337.25 59.7763 337.591C59.7763 338.057 59.9486 338.409 60.2933 338.648C60.6418 338.883 61.0831 339 61.6172 339ZM67.8601 340V331.273H69.201V335.068H70.0874L73.2237 331.273H74.951L71.4283 335.477L74.9964 340H73.2692L70.4055 336.318H69.201V340H67.8601ZM77.7947 338.023L81.9993 331.273H83.5447V340H82.2038V333.25L78.022 340H76.4538V331.273H77.7947V338.023ZM89.6598 340.182C88.8189 340.182 88.0935 339.996 87.4837 339.625C86.8776 339.25 86.4098 338.727 86.0803 338.057C85.7545 337.383 85.5916 336.598 85.5916 335.705C85.5916 334.811 85.7545 334.023 86.0803 333.341C86.4098 332.655 86.8681 332.121 87.4553 331.739C88.0462 331.352 88.7356 331.159 89.5234 331.159C89.978 331.159 90.4268 331.235 90.87 331.386C91.3132 331.538 91.7166 331.784 92.0803 332.125C92.4439 332.462 92.7337 332.909 92.9496 333.466C93.1655 334.023 93.2734 334.708 93.2734 335.523V336.091H86.5462V334.932H91.9098C91.9098 334.439 91.8113 334 91.6143 333.614C91.4212 333.227 91.1446 332.922 90.7848 332.699C90.4287 332.475 90.0083 332.364 89.5234 332.364C88.9893 332.364 88.5272 332.496 88.1371 332.761C87.7507 333.023 87.4534 333.364 87.245 333.784C87.0367 334.205 86.9325 334.655 86.9325 335.136V335.909C86.9325 336.568 87.0462 337.127 87.2734 337.585C87.5045 338.04 87.8246 338.386 88.2337 338.625C88.6428 338.86 89.1181 338.977 89.6598 338.977C90.0121 338.977 90.3303 338.928 90.6143 338.83C90.9022 338.727 91.1503 338.576 91.3587 338.375C91.567 338.17 91.728 337.917 91.8416 337.614L93.1371 337.977C93.0007 338.417 92.7715 338.803 92.4496 339.136C92.1276 339.466 91.7299 339.723 91.2564 339.909C90.7829 340.091 90.2507 340.182 89.6598 340.182ZM100.313 334.386V335.636H95.2223V334.386H100.313ZM101.719 332.523V331.273H108.81V332.523H105.947V340H104.606V332.523H101.719ZM113.859 340.182C113.071 340.182 112.379 339.994 111.785 339.619C111.194 339.244 110.732 338.72 110.398 338.045C110.069 337.371 109.904 336.583 109.904 335.682C109.904 334.773 110.069 333.979 110.398 333.301C110.732 332.623 111.194 332.097 111.785 331.722C112.379 331.347 113.071 331.159 113.859 331.159C114.647 331.159 115.336 331.347 115.927 331.722C116.522 332.097 116.984 332.623 117.313 333.301C117.647 333.979 117.813 334.773 117.813 335.682C117.813 336.583 117.647 337.371 117.313 338.045C116.984 338.72 116.522 339.244 115.927 339.619C115.336 339.994 114.647 340.182 113.859 340.182ZM113.859 338.977C114.457 338.977 114.95 338.824 115.336 338.517C115.722 338.21 116.008 337.807 116.194 337.307C116.379 336.807 116.472 336.265 116.472 335.682C116.472 335.098 116.379 334.555 116.194 334.051C116.008 333.547 115.722 333.14 115.336 332.83C114.95 332.519 114.457 332.364 113.859 332.364C113.26 332.364 112.768 332.519 112.381 332.83C111.995 333.14 111.709 333.547 111.523 334.051C111.338 334.555 111.245 335.098 111.245 335.682C111.245 336.265 111.338 336.807 111.523 337.307C111.709 337.807 111.995 338.21 112.381 338.517C112.768 338.824 113.26 338.977 113.859 338.977ZM124.36 340V331.273H131.224V340H129.883V332.523H125.701V340H124.36ZM133.673 343.273V331.273H134.968V332.659H135.127C135.226 332.508 135.362 332.314 135.536 332.08C135.714 331.841 135.968 331.629 136.298 331.443C136.631 331.254 137.082 331.159 137.65 331.159C138.385 331.159 139.032 331.343 139.593 331.71C140.154 332.078 140.591 332.598 140.906 333.273C141.22 333.947 141.377 334.742 141.377 335.659C141.377 336.583 141.22 337.384 140.906 338.062C140.591 338.737 140.156 339.259 139.599 339.631C139.042 339.998 138.4 340.182 137.673 340.182C137.112 340.182 136.663 340.089 136.326 339.903C135.989 339.714 135.729 339.5 135.548 339.261C135.366 339.019 135.226 338.818 135.127 338.659H135.013V343.273H133.673ZM134.991 335.636C134.991 336.295 135.087 336.877 135.281 337.381C135.474 337.881 135.756 338.273 136.127 338.557C136.498 338.837 136.953 338.977 137.491 338.977C138.051 338.977 138.519 338.83 138.894 338.534C139.273 338.235 139.557 337.833 139.746 337.33C139.94 336.822 140.036 336.258 140.036 335.636C140.036 335.023 139.942 334.47 139.752 333.977C139.567 333.481 139.284 333.089 138.906 332.801C138.531 332.509 138.059 332.364 137.491 332.364C136.945 332.364 136.487 332.502 136.116 332.778C135.745 333.051 135.464 333.434 135.275 333.926C135.085 334.415 134.991 334.985 134.991 335.636ZM146.968 340.182C146.18 340.182 145.489 339.994 144.894 339.619C144.303 339.244 143.841 338.72 143.508 338.045C143.178 337.371 143.013 336.583 143.013 335.682C143.013 334.773 143.178 333.979 143.508 333.301C143.841 332.623 144.303 332.097 144.894 331.722C145.489 331.347 146.18 331.159 146.968 331.159C147.756 331.159 148.445 331.347 149.036 331.722C149.631 332.097 150.093 332.623 150.423 333.301C150.756 333.979 150.923 334.773 150.923 335.682C150.923 336.583 150.756 337.371 150.423 338.045C150.093 338.72 149.631 339.244 149.036 339.619C148.445 339.994 147.756 340.182 146.968 340.182ZM146.968 338.977C147.567 338.977 148.059 338.824 148.445 338.517C148.832 338.21 149.118 337.807 149.303 337.307C149.489 336.807 149.582 336.265 149.582 335.682C149.582 335.098 149.489 334.555 149.303 334.051C149.118 333.547 148.832 333.14 148.445 332.83C148.059 332.519 147.567 332.364 146.968 332.364C146.37 332.364 145.877 332.519 145.491 332.83C145.104 333.14 144.818 333.547 144.633 334.051C144.447 334.555 144.354 335.098 144.354 335.682C144.354 336.265 144.447 336.807 144.633 337.307C144.818 337.807 145.104 338.21 145.491 338.517C145.877 338.824 146.37 338.977 146.968 338.977ZM159.447 328L160.129 328.818C159.863 329.076 159.557 329.256 159.208 329.358C158.86 329.46 158.466 329.523 158.026 329.545C157.587 329.568 157.098 329.591 156.56 329.614C155.954 329.636 155.452 329.784 155.055 330.057C154.657 330.33 154.35 330.723 154.134 331.239C153.918 331.754 153.78 332.386 153.719 333.136H153.833C154.129 332.591 154.538 332.189 155.06 331.932C155.583 331.674 156.144 331.545 156.742 331.545C157.424 331.545 158.038 331.705 158.583 332.023C159.129 332.341 159.56 332.812 159.879 333.438C160.197 334.062 160.356 334.833 160.356 335.75C160.356 336.663 160.193 337.451 159.867 338.114C159.545 338.777 159.093 339.288 158.509 339.648C157.93 340.004 157.25 340.182 156.469 340.182C155.689 340.182 155.005 339.998 154.418 339.631C153.831 339.259 153.375 338.71 153.049 337.983C152.723 337.252 152.56 336.348 152.56 335.273V334.341C152.56 332.398 152.89 330.924 153.549 329.92C154.212 328.917 155.208 328.398 156.538 328.364C157.007 328.348 157.426 328.345 157.793 328.352C158.161 328.36 158.481 328.343 158.754 328.301C159.026 328.259 159.257 328.159 159.447 328ZM156.469 338.977C156.996 338.977 157.449 338.845 157.827 338.58C158.21 338.314 158.504 337.941 158.708 337.46C158.913 336.975 159.015 336.405 159.015 335.75C159.015 335.114 158.911 334.572 158.702 334.125C158.498 333.678 158.204 333.337 157.822 333.102C157.439 332.867 156.981 332.75 156.447 332.75C156.057 332.75 155.706 332.816 155.396 332.949C155.085 333.081 154.82 333.277 154.6 333.534C154.38 333.792 154.21 334.106 154.089 334.477C153.971 334.848 153.909 335.273 153.901 335.75C153.901 336.727 154.13 337.509 154.589 338.097C155.047 338.684 155.674 338.977 156.469 338.977ZM161.634 340V338.75H161.952C162.214 338.75 162.432 338.699 162.606 338.597C162.78 338.491 162.92 338.307 163.026 338.045C163.136 337.78 163.219 337.413 163.276 336.943C163.337 336.47 163.38 335.867 163.407 335.136L163.566 331.273H169.384V340H168.043V332.523H164.839L164.702 335.636C164.672 336.352 164.608 336.983 164.509 337.528C164.415 338.07 164.269 338.525 164.072 338.892C163.879 339.259 163.621 339.536 163.299 339.722C162.977 339.907 162.574 340 162.089 340H161.634ZM175.504 340.182C174.663 340.182 173.937 339.996 173.327 339.625C172.721 339.25 172.254 338.727 171.924 338.057C171.598 337.383 171.435 336.598 171.435 335.705C171.435 334.811 171.598 334.023 171.924 333.341C172.254 332.655 172.712 332.121 173.299 331.739C173.89 331.352 174.579 331.159 175.367 331.159C175.822 331.159 176.271 331.235 176.714 331.386C177.157 331.538 177.56 331.784 177.924 332.125C178.288 332.462 178.577 332.909 178.793 333.466C179.009 334.023 179.117 334.708 179.117 335.523V336.091H172.39V334.932H177.754C177.754 334.439 177.655 334 177.458 333.614C177.265 333.227 176.988 332.922 176.629 332.699C176.272 332.475 175.852 332.364 175.367 332.364C174.833 332.364 174.371 332.496 173.981 332.761C173.594 333.023 173.297 333.364 173.089 333.784C172.88 334.205 172.776 334.655 172.776 335.136V335.909C172.776 336.568 172.89 337.127 173.117 337.585C173.348 338.04 173.668 338.386 174.077 338.625C174.487 338.86 174.962 338.977 175.504 338.977C175.856 338.977 176.174 338.928 176.458 338.83C176.746 338.727 176.994 338.576 177.202 338.375C177.411 338.17 177.572 337.917 177.685 337.614L178.981 337.977C178.844 338.417 178.615 338.803 178.293 339.136C177.971 339.466 177.574 339.723 177.1 339.909C176.627 340.091 176.094 340.182 175.504 340.182ZM185.93 338.182L188.975 331.273H190.248L186.475 340H185.384L181.68 331.273H182.93L185.93 338.182ZM182.498 331.273V340H181.157V331.273H182.498ZM189.362 340V331.273H190.702V340H189.362ZM194.316 334.432H196.816C197.839 334.432 198.621 334.691 199.163 335.21C199.704 335.729 199.975 336.386 199.975 337.182C199.975 337.705 199.854 338.18 199.612 338.608C199.369 339.032 199.013 339.371 198.543 339.625C198.074 339.875 197.498 340 196.816 340H193.157V331.273H194.498V338.75H196.816C197.346 338.75 197.782 338.61 198.123 338.33C198.464 338.049 198.634 337.689 198.634 337.25C198.634 336.788 198.464 336.411 198.123 336.119C197.782 335.828 197.346 335.682 196.816 335.682H194.316V334.432ZM201.362 340V331.273H202.702V340H201.362ZM213.202 340.182C212.384 340.182 211.68 339.989 211.089 339.602C210.498 339.216 210.043 338.684 209.725 338.006C209.407 337.328 209.248 336.553 209.248 335.682C209.248 334.795 209.411 334.013 209.737 333.335C210.066 332.653 210.524 332.121 211.112 331.739C211.702 331.352 212.392 331.159 213.18 331.159C213.793 331.159 214.346 331.273 214.839 331.5C215.331 331.727 215.735 332.045 216.049 332.455C216.363 332.864 216.558 333.341 216.634 333.886H215.293C215.191 333.489 214.964 333.136 214.612 332.83C214.263 332.519 213.793 332.364 213.202 332.364C212.68 332.364 212.221 332.5 211.827 332.773C211.437 333.042 211.132 333.422 210.913 333.915C210.697 334.403 210.589 334.977 210.589 335.636C210.589 336.311 210.695 336.898 210.907 337.398C211.123 337.898 211.426 338.286 211.816 338.562C212.21 338.839 212.672 338.977 213.202 338.977C213.551 338.977 213.867 338.917 214.151 338.795C214.435 338.674 214.676 338.5 214.873 338.273C215.07 338.045 215.21 337.773 215.293 337.455H216.634C216.558 337.97 216.371 338.434 216.072 338.847C215.776 339.256 215.384 339.581 214.896 339.824C214.411 340.062 213.846 340.182 213.202 340.182ZM222.14 340.182C221.352 340.182 220.661 339.994 220.066 339.619C219.475 339.244 219.013 338.72 218.68 338.045C218.35 337.371 218.185 336.583 218.185 335.682C218.185 334.773 218.35 333.979 218.68 333.301C219.013 332.623 219.475 332.097 220.066 331.722C220.661 331.347 221.352 331.159 222.14 331.159C222.928 331.159 223.617 331.347 224.208 331.722C224.803 332.097 225.265 332.623 225.594 333.301C225.928 333.979 226.094 334.773 226.094 335.682C226.094 336.583 225.928 337.371 225.594 338.045C225.265 338.72 224.803 339.244 224.208 339.619C223.617 339.994 222.928 340.182 222.14 340.182ZM222.14 338.977C222.738 338.977 223.231 338.824 223.617 338.517C224.004 338.21 224.29 337.807 224.475 337.307C224.661 336.807 224.754 336.265 224.754 335.682C224.754 335.098 224.661 334.555 224.475 334.051C224.29 333.547 224.004 333.14 223.617 332.83C223.231 332.519 222.738 332.364 222.14 332.364C221.541 332.364 221.049 332.519 220.663 332.83C220.276 333.14 219.99 333.547 219.805 334.051C219.619 334.555 219.526 335.098 219.526 335.682C219.526 336.265 219.619 336.807 219.805 337.307C219.99 337.807 220.276 338.21 220.663 338.517C221.049 338.824 221.541 338.977 222.14 338.977ZM236.187 340.182C235.369 340.182 234.664 339.989 234.073 339.602C233.482 339.216 233.028 338.684 232.71 338.006C232.391 337.328 232.232 336.553 232.232 335.682C232.232 334.795 232.395 334.013 232.721 333.335C233.05 332.653 233.509 332.121 234.096 331.739C234.687 331.352 235.376 331.159 236.164 331.159C236.778 331.159 237.331 331.273 237.823 331.5C238.316 331.727 238.719 332.045 239.033 332.455C239.348 332.864 239.543 333.341 239.619 333.886H238.278C238.175 333.489 237.948 333.136 237.596 332.83C237.247 332.519 236.778 332.364 236.187 332.364C235.664 332.364 235.206 332.5 234.812 332.773C234.422 333.042 234.117 333.422 233.897 333.915C233.681 334.403 233.573 334.977 233.573 335.636C233.573 336.311 233.679 336.898 233.891 337.398C234.107 337.898 234.41 338.286 234.8 338.562C235.194 338.839 235.656 338.977 236.187 338.977C236.535 338.977 236.852 338.917 237.136 338.795C237.42 338.674 237.66 338.5 237.857 338.273C238.054 338.045 238.194 337.773 238.278 337.455H239.619C239.543 337.97 239.355 338.434 239.056 338.847C238.761 339.256 238.369 339.581 237.88 339.824C237.395 340.062 236.831 340.182 236.187 340.182ZM241.579 340V331.273H245.147C246.086 331.273 246.833 331.485 247.386 331.909C247.939 332.333 248.215 332.894 248.215 333.591C248.215 334.121 248.058 334.532 247.744 334.824C247.429 335.112 247.026 335.307 246.533 335.409C246.855 335.455 247.168 335.568 247.471 335.75C247.778 335.932 248.031 336.182 248.232 336.5C248.433 336.814 248.533 337.201 248.533 337.659C248.533 338.106 248.42 338.506 248.192 338.858C247.965 339.21 247.639 339.489 247.215 339.693C246.791 339.898 246.283 340 245.692 340H241.579ZM242.852 338.773H245.692C246.155 338.773 246.516 338.663 246.778 338.443C247.039 338.223 247.17 337.924 247.17 337.545C247.17 337.095 247.039 336.741 246.778 336.483C246.516 336.222 246.155 336.091 245.692 336.091H242.852V338.773ZM242.852 334.932H245.147C245.507 334.932 245.816 334.883 246.073 334.784C246.331 334.682 246.528 334.538 246.664 334.352C246.804 334.163 246.874 333.939 246.874 333.682C246.874 333.314 246.721 333.027 246.414 332.818C246.107 332.606 245.685 332.5 245.147 332.5H242.852V334.932ZM255.813 340V332.5H253.495C252.972 332.5 252.561 332.621 252.262 332.864C251.963 333.106 251.813 333.439 251.813 333.864C251.813 334.28 251.948 334.608 252.217 334.847C252.489 335.085 252.862 335.205 253.336 335.205H256.154V336.455H253.336C252.745 336.455 252.236 336.35 251.808 336.142C251.379 335.934 251.05 335.636 250.819 335.25C250.588 334.86 250.472 334.398 250.472 333.864C250.472 333.326 250.594 332.864 250.836 332.477C251.078 332.091 251.425 331.794 251.876 331.585C252.33 331.377 252.87 331.273 253.495 331.273H257.086V340H255.813ZM249.995 340L252.472 335.659H253.927L251.45 340H249.995ZM259.002 337.773H260.434C260.464 338.167 260.642 338.466 260.968 338.67C261.298 338.875 261.726 338.977 262.252 338.977C262.79 338.977 263.25 338.867 263.633 338.648C264.015 338.424 264.207 338.064 264.207 337.568C264.207 337.277 264.135 337.023 263.991 336.807C263.847 336.587 263.644 336.417 263.383 336.295C263.121 336.174 262.813 336.114 262.457 336.114H260.957V334.909H262.457C262.991 334.909 263.385 334.788 263.638 334.545C263.896 334.303 264.025 334 264.025 333.636C264.025 333.246 263.887 332.934 263.61 332.699C263.334 332.46 262.942 332.341 262.434 332.341C261.923 332.341 261.496 332.456 261.156 332.688C260.815 332.915 260.635 333.208 260.616 333.568H259.207C259.222 333.098 259.366 332.684 259.638 332.324C259.911 331.96 260.282 331.676 260.752 331.472C261.222 331.263 261.76 331.159 262.366 331.159C262.979 331.159 263.512 331.267 263.962 331.483C264.417 331.695 264.767 331.985 265.013 332.352C265.263 332.716 265.388 333.129 265.388 333.591C265.388 334.083 265.25 334.481 264.974 334.784C264.697 335.087 264.351 335.303 263.934 335.432V335.523C264.263 335.545 264.549 335.652 264.792 335.841C265.038 336.027 265.229 336.271 265.366 336.574C265.502 336.873 265.57 337.205 265.57 337.568C265.57 338.098 265.428 338.561 265.144 338.955C264.86 339.345 264.47 339.648 263.974 339.864C263.478 340.076 262.911 340.182 262.275 340.182C261.657 340.182 261.104 340.081 260.616 339.881C260.127 339.676 259.739 339.394 259.451 339.034C259.167 338.67 259.017 338.25 259.002 337.773ZM268.613 334.432H271.113C272.136 334.432 272.918 334.691 273.46 335.21C274.001 335.729 274.272 336.386 274.272 337.182C274.272 337.705 274.151 338.18 273.908 338.608C273.666 339.032 273.31 339.371 272.84 339.625C272.371 339.875 271.795 340 271.113 340H267.454V331.273H268.795V338.75H271.113C271.643 338.75 272.079 338.61 272.42 338.33C272.761 338.049 272.931 337.689 272.931 337.25C272.931 336.788 272.761 336.411 272.42 336.119C272.079 335.828 271.643 335.682 271.113 335.682H268.613V334.432ZM280.495 335.091V336.341H275.881V335.091H280.495ZM277.018 331.273V340H275.677V331.273H277.018ZM283.177 340.182C282.389 340.182 281.698 339.994 281.103 339.619C280.512 339.244 280.05 338.72 279.717 338.045C279.387 337.371 279.222 336.583 279.222 335.682C279.222 334.773 279.387 333.979 279.717 333.301C280.05 332.623 280.512 332.097 281.103 331.722C281.698 331.347 282.389 331.159 283.177 331.159C283.965 331.159 284.654 331.347 285.245 331.722C285.84 332.097 286.302 332.623 286.631 333.301C286.965 333.979 287.131 334.773 287.131 335.682C287.131 336.583 286.965 337.371 286.631 338.045C286.302 338.72 285.84 339.244 285.245 339.619C284.654 339.994 283.965 340.182 283.177 340.182ZM283.177 338.977C283.775 338.977 284.268 338.824 284.654 338.517C285.04 338.21 285.326 337.807 285.512 337.307C285.698 336.807 285.79 336.265 285.79 335.682C285.79 335.098 285.698 334.555 285.512 334.051C285.326 333.547 285.04 333.14 284.654 332.83C284.268 332.519 283.775 332.364 283.177 332.364C282.578 332.364 282.086 332.519 281.7 332.83C281.313 333.14 281.027 333.547 280.842 334.051C280.656 334.555 280.563 335.098 280.563 335.682C280.563 336.265 280.656 336.807 280.842 337.307C281.027 337.807 281.313 338.21 281.7 338.517C282.086 338.824 282.578 338.977 283.177 338.977ZM290.29 340.091C290.01 340.091 289.77 339.991 289.569 339.79C289.368 339.589 289.268 339.348 289.268 339.068C289.268 338.788 289.368 338.547 289.569 338.347C289.77 338.146 290.01 338.045 290.29 338.045C290.571 338.045 290.811 338.146 291.012 338.347C291.213 338.547 291.313 338.788 291.313 339.068C291.313 339.254 291.266 339.424 291.171 339.58C291.08 339.735 290.957 339.86 290.802 339.955C290.65 340.045 290.48 340.091 290.29 340.091ZM308.219 334.182C308.219 335.409 307.998 336.47 307.555 337.364C307.112 338.258 306.504 338.947 305.731 339.432C304.958 339.917 304.076 340.159 303.083 340.159C302.091 340.159 301.208 339.917 300.435 339.432C299.663 338.947 299.055 338.258 298.612 337.364C298.168 336.47 297.947 335.409 297.947 334.182C297.947 332.955 298.168 331.894 298.612 331C299.055 330.106 299.663 329.417 300.435 328.932C301.208 328.447 302.091 328.205 303.083 328.205C304.076 328.205 304.958 328.447 305.731 328.932C306.504 329.417 307.112 330.106 307.555 331C307.998 331.894 308.219 332.955 308.219 334.182ZM306.856 334.182C306.856 333.174 306.687 332.324 306.35 331.631C306.017 330.938 305.564 330.413 304.992 330.057C304.424 329.701 303.788 329.523 303.083 329.523C302.379 329.523 301.74 329.701 301.168 330.057C300.6 330.413 300.147 330.938 299.81 331.631C299.477 332.324 299.31 333.174 299.31 334.182C299.31 335.189 299.477 336.04 299.81 336.733C300.147 337.426 300.6 337.951 301.168 338.307C301.74 338.663 302.379 338.841 303.083 338.841C303.788 338.841 304.424 338.663 304.992 338.307C305.564 337.951 306.017 337.426 306.35 336.733C306.687 336.04 306.856 335.189 306.856 334.182ZM316.884 328L317.566 328.818C317.301 329.076 316.994 329.256 316.646 329.358C316.297 329.46 315.903 329.523 315.464 329.545C315.024 329.568 314.536 329.591 313.998 329.614C313.392 329.636 312.89 329.784 312.492 330.057C312.094 330.33 311.788 330.723 311.572 331.239C311.356 331.754 311.218 332.386 311.157 333.136H311.271C311.566 332.591 311.975 332.189 312.498 331.932C313.021 331.674 313.581 331.545 314.18 331.545C314.862 331.545 315.475 331.705 316.021 332.023C316.566 332.341 316.998 332.812 317.316 333.438C317.634 334.062 317.793 334.833 317.793 335.75C317.793 336.663 317.63 337.451 317.305 338.114C316.983 338.777 316.53 339.288 315.947 339.648C315.367 340.004 314.687 340.182 313.907 340.182C313.127 340.182 312.443 339.998 311.856 339.631C311.269 339.259 310.812 338.71 310.487 337.983C310.161 337.252 309.998 336.348 309.998 335.273V334.341C309.998 332.398 310.327 330.924 310.987 329.92C311.649 328.917 312.646 328.398 313.975 328.364C314.445 328.348 314.863 328.345 315.231 328.352C315.598 328.36 315.918 328.343 316.191 328.301C316.464 328.259 316.695 328.159 316.884 328ZM313.907 338.977C314.433 338.977 314.886 338.845 315.265 338.58C315.647 338.314 315.941 337.941 316.146 337.46C316.35 336.975 316.452 336.405 316.452 335.75C316.452 335.114 316.348 334.572 316.14 334.125C315.935 333.678 315.642 333.337 315.259 333.102C314.877 332.867 314.418 332.75 313.884 332.75C313.494 332.75 313.144 332.816 312.833 332.949C312.522 333.081 312.257 333.277 312.038 333.534C311.818 333.792 311.647 334.106 311.526 334.477C311.409 334.848 311.346 335.273 311.339 335.75C311.339 336.727 311.568 337.509 312.026 338.097C312.485 338.684 313.112 338.977 313.907 338.977ZM325.685 335.023V336.273H320.867V335.023H325.685ZM321.185 331.273V340H319.844V331.273H321.185ZM326.708 331.273V340H325.367V331.273H326.708ZM332.702 340.182C331.915 340.182 331.223 339.994 330.629 339.619C330.038 339.244 329.576 338.72 329.242 338.045C328.913 337.371 328.748 336.583 328.748 335.682C328.748 334.773 328.913 333.979 329.242 333.301C329.576 332.623 330.038 332.097 330.629 331.722C331.223 331.347 331.915 331.159 332.702 331.159C333.49 331.159 334.18 331.347 334.771 331.722C335.365 332.097 335.827 332.623 336.157 333.301C336.49 333.979 336.657 334.773 336.657 335.682C336.657 336.583 336.49 337.371 336.157 338.045C335.827 338.72 335.365 339.244 334.771 339.619C334.18 339.994 333.49 340.182 332.702 340.182ZM332.702 338.977C333.301 338.977 333.793 338.824 334.18 338.517C334.566 338.21 334.852 337.807 335.038 337.307C335.223 336.807 335.316 336.265 335.316 335.682C335.316 335.098 335.223 334.555 335.038 334.051C334.852 333.547 334.566 333.14 334.18 332.83C333.793 332.519 333.301 332.364 332.702 332.364C332.104 332.364 331.612 332.519 331.225 332.83C330.839 333.14 330.553 333.547 330.367 334.051C330.182 334.555 330.089 335.098 330.089 335.682C330.089 336.265 330.182 336.807 330.367 337.307C330.553 337.807 330.839 338.21 331.225 338.517C331.612 338.824 332.104 338.977 332.702 338.977ZM338.704 340V331.273H342.272C343.211 331.273 343.958 331.485 344.511 331.909C345.064 332.333 345.34 332.894 345.34 333.591C345.34 334.121 345.183 334.532 344.869 334.824C344.554 335.112 344.151 335.307 343.658 335.409C343.98 335.455 344.293 335.568 344.596 335.75C344.903 335.932 345.156 336.182 345.357 336.5C345.558 336.814 345.658 337.201 345.658 337.659C345.658 338.106 345.545 338.506 345.317 338.858C345.09 339.21 344.764 339.489 344.34 339.693C343.916 339.898 343.408 340 342.817 340H338.704ZM339.977 338.773H342.817C343.28 338.773 343.641 338.663 343.903 338.443C344.164 338.223 344.295 337.924 344.295 337.545C344.295 337.095 344.164 336.741 343.903 336.483C343.641 336.222 343.28 336.091 342.817 336.091H339.977V338.773ZM339.977 334.932H342.272C342.632 334.932 342.941 334.883 343.198 334.784C343.456 334.682 343.653 334.538 343.789 334.352C343.929 334.163 343.999 333.939 343.999 333.682C343.999 333.314 343.846 333.027 343.539 332.818C343.232 332.606 342.81 332.5 342.272 332.5H339.977V334.932ZM349.029 338.023L353.234 331.273H354.779V340H353.438V333.25L349.256 340H347.688V331.273H349.029V338.023ZM356.048 332.523V331.273H363.138V332.523H360.275V340H358.934V332.523H356.048ZM368.3 340.182C367.46 340.182 366.734 339.996 366.124 339.625C365.518 339.25 365.05 338.727 364.721 338.057C364.395 337.383 364.232 336.598 364.232 335.705C364.232 334.811 364.395 334.023 364.721 333.341C365.05 332.655 365.509 332.121 366.096 331.739C366.687 331.352 367.376 331.159 368.164 331.159C368.619 331.159 369.067 331.235 369.511 331.386C369.954 331.538 370.357 331.784 370.721 332.125C371.085 332.462 371.374 332.909 371.59 333.466C371.806 334.023 371.914 334.708 371.914 335.523V336.091H365.187V334.932H370.55C370.55 334.439 370.452 334 370.255 333.614C370.062 333.227 369.785 332.922 369.425 332.699C369.069 332.475 368.649 332.364 368.164 332.364C367.63 332.364 367.168 332.496 366.778 332.761C366.391 333.023 366.094 333.364 365.886 333.784C365.677 334.205 365.573 334.655 365.573 335.136V335.909C365.573 336.568 365.687 337.127 365.914 337.585C366.145 338.04 366.465 338.386 366.874 338.625C367.283 338.86 367.759 338.977 368.3 338.977C368.653 338.977 368.971 338.928 369.255 338.83C369.543 338.727 369.791 338.576 369.999 338.375C370.208 338.17 370.369 337.917 370.482 337.614L371.778 337.977C371.641 338.417 371.412 338.803 371.09 339.136C370.768 339.466 370.371 339.723 369.897 339.909C369.424 340.091 368.891 340.182 368.3 340.182ZM177.781 359.182C176.962 359.182 176.258 358.989 175.667 358.602C175.076 358.216 174.621 357.684 174.303 357.006C173.985 356.328 173.826 355.553 173.826 354.682C173.826 353.795 173.989 353.013 174.315 352.335C174.644 351.653 175.103 351.121 175.69 350.739C176.281 350.352 176.97 350.159 177.758 350.159C178.371 350.159 178.924 350.273 179.417 350.5C179.909 350.727 180.313 351.045 180.627 351.455C180.942 351.864 181.137 352.341 181.212 352.886H179.871C179.769 352.489 179.542 352.136 179.19 351.83C178.841 351.519 178.371 351.364 177.781 351.364C177.258 351.364 176.799 351.5 176.406 351.773C176.015 352.042 175.71 352.422 175.491 352.915C175.275 353.403 175.167 353.977 175.167 354.636C175.167 355.311 175.273 355.898 175.485 356.398C175.701 356.898 176.004 357.286 176.394 357.562C176.788 357.839 177.25 357.977 177.781 357.977C178.129 357.977 178.445 357.917 178.729 357.795C179.013 357.674 179.254 357.5 179.451 357.273C179.648 357.045 179.788 356.773 179.871 356.455H181.212C181.137 356.97 180.949 357.434 180.65 357.847C180.354 358.256 179.962 358.581 179.474 358.824C178.989 359.062 178.424 359.182 177.781 359.182ZM182.485 351.523V350.273H189.576V351.523H186.712V359H185.371V351.523H182.485ZM191.532 362.273V350.273H192.827V351.659H192.987C193.085 351.508 193.221 351.314 193.396 351.08C193.574 350.841 193.827 350.629 194.157 350.443C194.49 350.254 194.941 350.159 195.509 350.159C196.244 350.159 196.892 350.343 197.452 350.71C198.013 351.078 198.451 351.598 198.765 352.273C199.079 352.947 199.237 353.742 199.237 354.659C199.237 355.583 199.079 356.384 198.765 357.062C198.451 357.737 198.015 358.259 197.458 358.631C196.901 358.998 196.259 359.182 195.532 359.182C194.971 359.182 194.522 359.089 194.185 358.903C193.848 358.714 193.589 358.5 193.407 358.261C193.225 358.019 193.085 357.818 192.987 357.659H192.873V362.273H191.532ZM192.85 354.636C192.85 355.295 192.947 355.877 193.14 356.381C193.333 356.881 193.615 357.273 193.987 357.557C194.358 357.837 194.812 357.977 195.35 357.977C195.911 357.977 196.379 357.83 196.754 357.534C197.132 357.235 197.416 356.833 197.606 356.33C197.799 355.822 197.896 355.258 197.896 354.636C197.896 354.023 197.801 353.47 197.612 352.977C197.426 352.481 197.144 352.089 196.765 351.801C196.39 351.509 195.918 351.364 195.35 351.364C194.805 351.364 194.346 351.502 193.975 351.778C193.604 352.051 193.324 352.434 193.134 352.926C192.945 353.415 192.85 353.985 192.85 354.636ZM203.85 359.205C203.297 359.205 202.795 359.1 202.344 358.892C201.894 358.68 201.536 358.375 201.271 357.977C201.005 357.576 200.873 357.091 200.873 356.523C200.873 356.023 200.971 355.617 201.168 355.307C201.365 354.992 201.629 354.746 201.958 354.568C202.288 354.39 202.651 354.258 203.049 354.17C203.451 354.08 203.854 354.008 204.259 353.955C204.79 353.886 205.219 353.835 205.549 353.801C205.882 353.763 206.125 353.701 206.276 353.614C206.432 353.527 206.509 353.375 206.509 353.159V353.114C206.509 352.553 206.356 352.117 206.049 351.807C205.746 351.496 205.286 351.341 204.668 351.341C204.028 351.341 203.526 351.481 203.163 351.761C202.799 352.042 202.543 352.341 202.396 352.659L201.123 352.205C201.35 351.674 201.653 351.261 202.032 350.966C202.415 350.667 202.831 350.458 203.282 350.341C203.737 350.22 204.183 350.159 204.623 350.159C204.903 350.159 205.225 350.193 205.589 350.261C205.956 350.326 206.31 350.46 206.651 350.665C206.996 350.869 207.282 351.178 207.509 351.591C207.737 352.004 207.85 352.557 207.85 353.25V359H206.509V357.818H206.441C206.35 358.008 206.199 358.21 205.987 358.426C205.774 358.642 205.492 358.826 205.14 358.977C204.788 359.129 204.358 359.205 203.85 359.205ZM204.055 358C204.585 358 205.032 357.896 205.396 357.688C205.763 357.479 206.04 357.21 206.225 356.881C206.415 356.551 206.509 356.205 206.509 355.841V354.614C206.452 354.682 206.327 354.744 206.134 354.801C205.945 354.854 205.725 354.902 205.475 354.943C205.229 354.981 204.988 355.015 204.754 355.045C204.522 355.072 204.335 355.095 204.191 355.114C203.843 355.159 203.517 355.233 203.214 355.335C202.915 355.434 202.672 355.583 202.487 355.784C202.305 355.981 202.214 356.25 202.214 356.591C202.214 357.057 202.386 357.409 202.731 357.648C203.079 357.883 203.521 358 204.055 358ZM216.138 354.023V355.273H211.32V354.023H216.138ZM211.638 350.273V359H210.298V350.273H211.638ZM217.161 350.273V359H215.82V350.273H217.161ZM220.951 357.023L225.156 350.273H226.701V359H225.36V352.25L221.178 359H219.61V350.273H220.951V357.023ZM236.021 350.273V357.75H237.248V361.818H235.907V359H229.157V350.273H230.498V357.75H234.68V350.273H236.021ZM240.177 362.273C239.95 362.273 239.747 362.254 239.569 362.216C239.391 362.182 239.268 362.148 239.2 362.114L239.54 360.932C239.866 361.015 240.154 361.045 240.404 361.023C240.654 361 240.876 360.888 241.069 360.688C241.266 360.491 241.446 360.17 241.609 359.727L241.859 359.045L238.631 350.273H240.086L242.495 357.227H242.586L244.995 350.273H246.45L242.745 360.273C242.578 360.723 242.372 361.097 242.126 361.392C241.879 361.691 241.594 361.913 241.268 362.057C240.946 362.201 240.582 362.273 240.177 362.273Z" fill="#33434D" fill-opacity="0.5"/>
<defs>
<clipPath id="clip0_738_2182">
<rect width="420" height="264" fill="white"/>
</clipPath>
</defs>
</svg>
