<svg width="420" height="326" viewBox="0 0 420 326" fill="none" xmlns="http://www.w3.org/2000/svg">
<g clip-path="url(#clip0_738_2010)">
<path d="M197.078 4.34948L195.088 0.614328L193.589 1.4293L196.413 6.72944L205.241 1.47151L204.381 -6.10352e-05L197.078 4.34948Z" fill="#002033"/>
<path d="M310.866 163.245L312.331 167.215L320.156 163.894L320.809 165.469L311.35 169.483L309.27 163.849L310.866 163.245Z" fill="#002033"/>
<path d="M85.0422 218.029L88.7383 220.09L92.5203 212.478L94.0402 213.249L89.4684 222.451L84.2237 219.526L85.0422 218.029Z" fill="#002033"/>
<path fill-rule="evenodd" clip-rule="evenodd" d="M176.488 213.499C173.875 198.701 172.798 178.744 172.596 161.272C172.132 160.83 171.874 160.204 171.785 159.545C171.285 155.823 171.029 151.145 171.058 146.152C164.901 149.209 157.641 152.298 150.248 154.524C142.516 156.851 134.572 158.256 127.562 157.65C120.697 157.057 116.643 156.048 114.193 154.802C112.951 154.17 112.096 153.466 111.501 152.702C110.904 151.937 110.611 151.166 110.422 150.477C110.179 149.589 110.488 148.808 110.96 148.222C111.414 147.66 112.063 147.21 112.714 146.854C113.71 146.31 114.886 145.895 115.873 145.62C115.876 145.224 115.938 144.792 116.097 144.364C116.433 143.456 117.18 142.648 118.473 142.298C118.854 142.195 119.383 142.116 119.979 142.041C120.43 141.984 120.957 141.925 121.542 141.86C121.748 141.837 121.961 141.814 122.18 141.789C123.875 141.598 126.007 141.342 128.407 140.912C133.212 140.051 139.06 138.5 144.555 135.419C155.851 129.085 161.691 124.317 165.645 120.578C166.638 119.639 167.515 118.762 168.337 117.933C168.473 117.795 168.608 117.659 168.741 117.524L168.747 117.519C169.415 116.843 170.056 116.195 170.692 115.58C172.23 114.092 173.773 112.764 175.761 111.557C178.826 109.696 181.105 108.506 182.719 107.774C183.526 107.408 184.175 107.152 184.678 106.984C184.929 106.901 185.164 106.832 185.376 106.783C189.564 105.154 194.462 104.557 198.811 105.055C203.518 105.049 207.988 104.956 213.912 103.529C220.165 102.023 228.08 99.0185 239.578 92.9985C245.159 90.0765 249.651 86.0238 252.995 82.4672C254.666 80.6909 256.044 79.0449 257.129 77.7288C257.27 77.5587 257.406 77.3933 257.537 77.2334C257.911 76.7788 258.248 76.3687 258.542 76.0221C258.93 75.5638 259.285 75.1638 259.58 74.9008C260.579 74.0085 261.663 73.8237 262.608 74.0376C263.053 74.1383 263.449 74.3225 263.782 74.5362C264.551 73.8588 265.542 73.1001 266.541 72.5627C267.194 72.211 267.926 71.9132 268.645 71.8402C269.393 71.7642 270.216 71.9317 270.827 72.62C271.302 73.1549 271.787 73.8211 272.103 74.739C272.417 75.6544 272.541 76.7553 272.392 78.14C272.099 80.8729 270.732 84.8215 267.481 90.8969C264.157 97.1089 258.562 102.866 252.626 107.757C246.678 112.658 240.324 116.742 235.412 119.593C226.272 124.901 216.986 127.122 212.563 127.706C212.561 127.753 212.561 127.801 212.561 127.849C212.6 138.445 214.763 149.654 215.855 154.651C216.037 155.483 215.961 156.34 215.651 157.091C215.732 157.165 215.802 157.255 215.856 157.358C223.435 171.688 224.423 180.495 225.23 187.68L225.23 187.681L225.231 187.682L225.231 187.683C225.42 189.365 225.598 190.959 225.85 192.513C228.703 193.12 232.239 192.462 235.556 191.398C238.512 190.45 241.14 189.234 242.756 188.487L242.764 188.483C243.069 188.342 243.337 188.218 243.565 188.115C247.846 186.189 252.426 183.528 256.741 181.02L256.895 180.931C261.213 178.422 265.305 176.048 268.436 174.855C268.685 174.761 268.961 174.769 269.203 174.878C269.445 174.987 269.634 175.188 269.728 175.437L276.909 194.473C277.002 194.721 276.993 194.996 276.884 195.238C276.774 195.48 276.573 195.668 276.324 195.762C274.671 196.382 272.998 196.245 271.793 195.985C271.288 195.876 270.849 195.743 270.507 195.623C270.317 195.857 270.1 196.095 269.864 196.334C269.358 196.849 268.717 197.422 267.969 198.039C266.473 199.273 264.5 200.718 262.203 202.276C257.608 205.395 251.663 209 245.515 212.324C239.371 215.647 232.995 218.703 227.541 220.712C224.816 221.716 222.294 222.469 220.129 222.857C218 223.239 216.073 223.296 214.627 222.764C212.988 222.16 211.024 220.636 209.004 218.461C208.138 217.528 207.247 216.46 206.352 215.266C208.161 233.815 208.478 252.509 207.471 271.109C207.442 271.639 207.004 272.055 206.473 272.055H184.56C184.007 272.055 183.56 271.607 183.56 271.055C183.56 270.502 183.753 269.888 183.98 269.34C184.218 268.765 184.541 268.153 184.893 267.571C185.442 266.665 186.122 265.736 186.745 265.104C186.174 261.74 184.598 254.08 182.789 245.288L182.264 242.736C180.143 232.415 177.817 221.03 176.488 213.499ZM178.457 213.152C175.926 198.814 174.843 179.504 174.61 162.348C181.732 165.242 199.866 167.396 214.169 158.825C214.22 158.795 214.27 158.763 214.319 158.731C221.496 172.438 222.433 180.751 223.231 187.833C223.451 189.786 223.661 191.645 223.988 193.498C224.054 193.874 224.329 194.18 224.696 194.285C228.249 195.308 232.545 194.464 236.167 193.302C239.254 192.312 242.013 191.035 243.619 190.292C243.916 190.154 244.173 190.035 244.386 189.939C248.762 187.97 253.418 185.265 257.699 182.777L257.9 182.66C261.831 180.376 265.4 178.311 268.219 177.102L274.646 194.14C273.794 194.27 272.943 194.187 272.214 194.03C271.718 193.923 271.299 193.786 271.007 193.677C270.862 193.623 270.749 193.576 270.676 193.544L270.635 193.526C270.619 193.518 270.606 193.513 270.596 193.508L270.585 193.503C270.471 193.446 270.352 193.414 270.232 193.403C269.844 193.368 269.454 193.562 269.259 193.928C269.147 194.136 268.892 194.47 268.438 194.932C267.997 195.381 267.413 195.906 266.697 196.496C265.266 197.676 263.349 199.083 261.081 200.621C256.547 203.697 250.66 207.268 244.564 210.565C238.464 213.863 232.181 216.872 226.85 218.836C224.183 219.818 221.782 220.529 219.776 220.888C217.736 221.254 216.248 221.23 215.318 220.887C214.123 220.447 212.419 219.199 210.47 217.1C208.544 215.026 206.453 212.201 204.464 208.732C200.488 201.793 196.955 192.328 195.969 181.236C195.92 180.686 195.434 180.28 194.884 180.329C194.334 180.378 193.928 180.863 193.977 181.413C194.991 192.82 198.623 202.561 202.729 209.726C203.144 210.45 203.564 211.148 203.987 211.82C206.078 231.14 206.528 250.643 205.524 270.055H185.848C186.037 269.61 186.3 269.109 186.604 268.608C187.254 267.535 187.995 266.614 188.442 266.258C188.724 266.033 188.864 265.674 188.807 265.318C188.318 262.239 186.659 254.175 184.757 244.929L184.223 242.333C182.1 232.003 179.781 220.648 178.457 213.152ZM160.348 148.803C154.987 139.841 155.896 136.092 158.375 129.115C155.048 131.496 150.889 134.16 145.533 137.163C139.771 140.394 133.684 141.998 128.759 142.881C126.294 143.322 124.112 143.584 122.404 143.776C122.176 143.802 121.958 143.826 121.75 143.849L121.742 143.85C121.166 143.914 120.662 143.97 120.229 144.025C119.624 144.101 119.225 144.166 118.996 144.228C118.337 144.407 118.087 144.747 117.972 145.059C117.834 145.431 117.861 145.857 117.931 146.112L118.209 147.126L117.182 147.353C116.193 147.572 114.762 148.014 113.673 148.609C113.122 148.91 112.734 149.209 112.517 149.478C112.319 149.723 112.326 149.855 112.351 149.948C112.498 150.484 112.698 150.985 113.078 151.472C113.46 151.962 114.067 152.494 115.099 153.019C117.197 154.086 120.937 155.071 127.734 155.658C134.387 156.232 142.056 154.901 149.671 152.609C153.297 151.517 156.896 150.212 160.348 148.803ZM226.006 101.617C226.672 103.369 228.157 107.487 229.641 113.055C230.619 116.722 230.641 118.812 230.408 119.991C231.733 119.347 233.072 118.64 234.408 117.864C239.26 115.047 245.516 111.024 251.354 106.214C257.204 101.394 262.572 95.833 265.717 89.9534C268.936 83.9373 270.153 80.2661 270.404 77.9266C270.527 76.7751 270.413 75.9767 270.211 75.3891C270.01 74.804 269.7 74.3635 269.331 73.9475C269.267 73.8751 269.16 73.7981 268.847 73.8299C268.503 73.8648 268.04 74.0271 267.488 74.324C266.395 74.9122 265.243 75.8691 264.519 76.5788L263.769 77.3146L263.071 76.5285C262.895 76.3303 262.553 76.0757 262.166 75.9882C261.842 75.9148 261.421 75.938 260.912 76.3928C260.735 76.5507 260.462 76.8493 260.068 77.3146C259.785 77.6485 259.462 78.0411 259.093 78.4901L259.092 78.4911L259.09 78.4934C258.957 78.6553 258.818 78.8246 258.672 79.0012C257.579 80.3273 256.168 82.013 254.452 83.8374C251.025 87.4822 246.358 91.7064 240.506 94.7704C234.931 97.6894 230.168 99.9172 226.006 101.617Z" fill="#002033"/>
<path d="M141.92 8.39661C140.575 8.17927 139.849 6.69703 140.501 5.50074L141.22 4.18255C141.353 3.94014 141.263 3.63641 141.021 3.50415C140.779 3.37189 140.475 3.46119 140.343 3.70359L139.623 5.02179C138.64 6.82375 139.734 9.05644 141.761 9.38381L141.866 9.4009C143.208 9.61755 143.897 11.1287 143.181 12.2833C142.089 14.0444 143.14 16.3494 145.186 16.6798C146.527 16.8965 147.216 18.4077 146.5 19.5622C145.408 21.3233 146.459 23.6283 148.505 23.9588C149.846 24.1754 150.535 25.6866 149.819 26.8412C148.728 28.6022 149.779 30.9072 151.824 31.2377C153.165 31.4543 153.854 32.9655 153.139 34.1201C152.047 35.8811 153.098 38.1862 155.143 38.5166L155.249 38.5337C156.594 38.751 157.321 40.2333 156.668 41.4296L155.949 42.7478C155.817 42.9902 155.906 43.2939 156.148 43.4262C156.391 43.5584 156.694 43.4691 156.827 43.2267L157.546 41.9085C158.529 40.1066 157.435 37.8739 155.409 37.5465L155.303 37.5294C153.962 37.3128 153.273 35.8016 153.988 34.647C155.08 32.8859 154.029 30.5809 151.984 30.2505C150.643 30.0338 149.953 28.5226 150.669 27.3681C151.761 25.607 150.71 23.302 148.664 22.9716C147.323 22.7549 146.634 21.2437 147.35 20.0891C148.442 18.3281 147.391 16.0231 145.345 15.6926C144.004 15.476 143.315 13.9648 144.031 12.8102C145.123 11.0492 144.071 8.74415 142.026 8.4137L141.92 8.39661Z" fill="#002033"/>
<path d="M298.635 9.3C298.153 8.02542 299.076 6.65693 300.438 6.62636L301.94 6.59268C302.216 6.58648 302.435 6.35766 302.428 6.08159C302.422 5.80552 302.193 5.58673 301.917 5.59293L300.416 5.62661C298.364 5.67266 296.974 7.734 297.7 9.65389L297.738 9.75413C298.219 11.0247 297.252 12.3754 295.895 12.3305C293.824 12.262 292.35 14.3223 293.083 16.2602C293.564 17.5307 292.597 18.8815 291.239 18.8365C289.169 18.768 287.694 20.8283 288.428 22.7663C288.908 24.0368 287.942 25.3875 286.584 25.3426C284.513 25.2741 283.039 27.3344 283.772 29.2723C284.253 30.5428 283.287 31.8936 281.929 31.8487C279.858 31.7802 278.384 33.8404 279.117 35.7784L279.155 35.8786C279.637 37.1532 278.714 38.5217 277.352 38.5522L275.851 38.5859C275.575 38.5921 275.356 38.8209 275.362 39.097C275.368 39.3731 275.597 39.5919 275.873 39.5857L277.374 39.552C279.427 39.506 280.817 37.4446 280.09 35.5247L280.052 35.4245C279.572 34.1539 280.538 32.8032 281.896 32.8481C283.967 32.9166 285.441 30.8564 284.708 28.9184C284.227 27.6479 285.193 26.2972 286.551 26.3421C288.622 26.4106 290.096 24.3503 289.363 22.4124C288.882 21.1418 289.849 19.7911 291.206 19.836C293.277 19.9045 294.751 17.8442 294.018 15.9063C293.537 14.6358 294.504 13.285 295.862 13.3299C297.932 13.3984 299.407 11.3382 298.673 9.40024L298.635 9.3Z" fill="#002033"/>
<path d="M232.611 16.1928L231.417 20.3316C231.024 21.6978 229.838 22.6865 228.423 22.8283C226.602 23.0107 225.075 24.2839 224.567 26.0429L223.374 30.1818C223.298 30.4471 223.451 30.7242 223.716 30.8007C223.982 30.8772 224.259 30.7241 224.335 30.4588L225.528 26.3199C225.922 24.9538 227.108 23.965 228.523 23.8233C230.344 23.6408 231.871 22.3677 232.378 20.6086L233.571 16.4697C233.648 16.2044 233.495 15.9273 233.229 15.8508C232.964 15.7743 232.687 15.9274 232.611 16.1928Z" fill="#002033"/>
<path fill-rule="evenodd" clip-rule="evenodd" d="M103.473 26.3254C104.854 26.3254 105.973 25.2061 105.973 23.8254C105.973 22.4447 104.854 21.3254 103.473 21.3254C102.092 21.3254 100.973 22.4447 100.973 23.8254C100.973 25.2061 102.092 26.3254 103.473 26.3254ZM103.473 25.3254C104.301 25.3254 104.973 24.6538 104.973 23.8254C104.973 22.9969 104.301 22.3254 103.473 22.3254C102.644 22.3254 101.973 22.9969 101.973 23.8254C101.973 24.6538 102.644 25.3254 103.473 25.3254Z" fill="#002033"/>
<path fill-rule="evenodd" clip-rule="evenodd" d="M249.973 150.825C249.973 152.206 248.854 153.325 247.473 153.325C246.092 153.325 244.973 152.206 244.973 150.825C244.973 149.445 246.092 148.325 247.473 148.325C248.854 148.325 249.973 149.445 249.973 150.825ZM248.973 150.825C248.973 151.654 248.301 152.325 247.473 152.325C246.644 152.325 245.973 151.654 245.973 150.825C245.973 149.997 246.644 149.325 247.473 149.325C248.301 149.325 248.973 149.997 248.973 150.825Z" fill="#002033"/>
<path fill-rule="evenodd" clip-rule="evenodd" d="M136.973 103.825C136.973 105.206 135.854 106.325 134.473 106.325C133.092 106.325 131.973 105.206 131.973 103.825C131.973 102.445 133.092 101.325 134.473 101.325C135.854 101.325 136.973 102.445 136.973 103.825ZM135.973 103.825C135.973 104.654 135.301 105.325 134.473 105.325C133.644 105.325 132.973 104.654 132.973 103.825C132.973 102.997 133.644 102.325 134.473 102.325C135.301 102.325 135.973 102.997 135.973 103.825Z" fill="#002033"/>
<path fill-rule="evenodd" clip-rule="evenodd" d="M335.973 210.825C335.973 212.206 334.854 213.325 333.473 213.325C332.092 213.325 330.973 212.206 330.973 210.825C330.973 209.445 332.092 208.325 333.473 208.325C334.854 208.325 335.973 209.445 335.973 210.825ZM334.973 210.825C334.973 211.654 334.301 212.325 333.473 212.325C332.644 212.325 331.973 211.654 331.973 210.825C331.973 209.997 332.644 209.325 333.473 209.325C334.301 209.325 334.973 209.997 334.973 210.825Z" fill="#002033"/>
<path fill-rule="evenodd" clip-rule="evenodd" d="M329.973 34.8254C329.973 36.2061 328.854 37.3254 327.473 37.3254C326.092 37.3254 324.973 36.2061 324.973 34.8254C324.973 33.4447 326.092 32.3254 327.473 32.3254C328.854 32.3254 329.973 33.4447 329.973 34.8254ZM328.973 34.8254C328.973 35.6538 328.301 36.3254 327.473 36.3254C326.644 36.3254 325.973 35.6538 325.973 34.8254C325.973 33.9969 326.644 33.3254 327.473 33.3254C328.301 33.3254 328.973 33.9969 328.973 34.8254Z" fill="#002033"/>
<path fill-rule="evenodd" clip-rule="evenodd" d="M71.9729 145.825C71.9729 147.206 70.8536 148.325 69.4729 148.325C68.0922 148.325 66.9729 147.206 66.9729 145.825C66.9729 144.445 68.0922 143.325 69.4729 143.325C70.8536 143.325 71.9729 144.445 71.9729 145.825ZM70.9729 145.825C70.9729 146.654 70.3013 147.325 69.4729 147.325C68.6445 147.325 67.9729 146.654 67.9729 145.825C67.9729 144.997 68.6445 144.325 69.4729 144.325C70.3013 144.325 70.9729 144.997 70.9729 145.825Z" fill="#002033"/>
<path d="M296.876 222.918L300.885 224.493C302.209 225.013 303.082 226.286 303.091 227.708C303.102 229.539 304.227 231.178 305.931 231.847L309.94 233.422C310.197 233.523 310.487 233.397 310.588 233.14C310.689 232.882 310.563 232.592 310.306 232.491L306.297 230.916C304.973 230.397 304.1 229.123 304.091 227.702C304.08 225.871 302.955 224.232 301.251 223.562L297.242 221.988C296.985 221.887 296.695 222.013 296.594 222.27C296.493 222.527 296.619 222.817 296.876 222.918Z" fill="#002033"/>
<path d="M124.444 194.756L122.404 198.007C121.514 199.424 121.631 201.251 122.695 202.543C124.031 204.168 124.179 206.465 123.06 208.247L121.02 211.498C120.873 211.732 120.565 211.802 120.331 211.655C120.097 211.509 120.026 211.2 120.173 210.966L122.213 207.716C123.103 206.298 122.986 204.471 121.923 203.179C120.586 201.554 120.439 199.257 121.557 197.475L123.597 194.225C123.744 193.991 124.052 193.92 124.286 194.067C124.52 194.214 124.591 194.522 124.444 194.756Z" fill="#002033"/>
<path d="M328.087 77.6933L325.262 80.2916C324.031 81.4244 323.662 83.2182 324.348 84.7447C325.209 86.6638 324.746 88.919 323.198 90.3433L320.374 92.9416C320.17 93.1285 319.854 93.1153 319.667 92.9121C319.48 92.7089 319.493 92.3926 319.697 92.2056L322.521 89.6073C323.752 88.4745 324.121 86.6807 323.435 85.1542C322.574 83.2351 323.037 80.9799 324.585 79.5556L327.41 76.9573C327.613 76.7704 327.929 76.7836 328.116 76.9868C328.303 77.19 328.29 77.5063 328.087 77.6933Z" fill="#002033"/>
<path d="M55.1979 167.893L58.7223 169.411C60.2589 170.074 62.0469 169.678 63.1611 168.43C64.5618 166.86 66.8098 166.363 68.7417 167.196L72.2661 168.714C72.5197 168.824 72.6367 169.118 72.5274 169.372C72.4181 169.625 72.124 169.742 71.8704 169.633L68.346 168.114C66.8093 167.452 65.0213 167.847 63.9072 169.096C62.5064 170.665 60.2585 171.162 58.3265 170.33L54.8021 168.811C54.5485 168.702 54.4315 168.408 54.5408 168.154C54.6501 167.9 54.9443 167.783 55.1979 167.893Z" fill="#002033"/>
<path d="M64.2877 77.8529C64.4075 79.2104 65.8335 80.0416 67.0738 79.4769L67.1713 79.4324C69.057 78.5737 71.2095 79.9097 71.2768 81.9806C71.321 83.3384 72.7322 84.2142 73.9685 83.6513C75.8542 82.7926 78.0066 84.1285 78.074 86.1995C78.1182 87.5572 79.5294 88.4331 80.7657 87.8701C82.6514 87.0114 84.8038 88.3473 84.8712 90.4183C84.9154 91.776 86.3265 92.6519 87.5628 92.0889C89.4485 91.2302 91.601 92.5662 91.6684 94.6371C91.7125 95.9948 93.1237 96.8707 94.36 96.3077L94.4576 96.2633C96.3257 95.4126 98.4737 96.6646 98.6542 98.7094L98.7862 100.205C98.8104 100.48 98.6071 100.723 98.3321 100.747C98.057 100.771 97.8143 100.568 97.79 100.293L97.658 98.7973C97.5382 97.4398 96.1122 96.6086 94.872 97.1734L94.7744 97.2178C92.8887 98.0765 90.7363 96.7405 90.6689 94.6696C90.6247 93.3119 89.2136 92.436 87.9773 92.999C86.0916 93.8577 83.9391 92.5217 83.8717 90.4508C83.8276 89.0931 82.4164 88.2172 81.1801 88.7802C79.2944 89.6389 77.1419 88.3029 77.0745 86.232C77.0304 84.8743 75.6192 83.9984 74.3829 84.5613C72.4972 85.42 70.3447 84.0841 70.2774 82.0132C70.2332 80.6554 68.822 79.7796 67.5857 80.3425L67.4882 80.3869C65.62 81.2376 63.472 79.9856 63.2916 77.9408L63.1596 76.445C63.1353 76.17 63.3386 75.9273 63.6137 75.903C63.8888 75.8787 64.1314 76.0821 64.1557 76.3571L64.2877 77.8529Z" fill="#002033"/>
<path d="M360.156 119.715C360.743 118.485 362.37 118.206 363.334 119.169L364.396 120.231C364.591 120.426 364.908 120.426 365.103 120.231C365.298 120.035 365.298 119.719 365.103 119.523L364.041 118.462C362.589 117.011 360.138 117.431 359.253 119.283L359.207 119.38C358.621 120.606 356.977 120.841 356.071 119.829C354.689 118.285 352.181 118.644 351.288 120.514C350.702 121.74 349.058 121.975 348.152 120.963C346.77 119.419 344.262 119.778 343.369 121.648C342.783 122.873 341.139 123.109 340.233 122.097C338.85 120.553 336.343 120.912 335.449 122.781C334.864 124.007 333.219 124.243 332.313 123.23C330.931 121.687 328.423 122.046 327.53 123.915L327.484 124.012C326.896 125.242 325.269 125.521 324.305 124.557L323.243 123.496C323.048 123.301 322.731 123.301 322.536 123.496C322.341 123.691 322.341 124.008 322.536 124.203L323.599 125.265C325.051 126.716 327.501 126.295 328.386 124.443L328.432 124.346C329.018 123.121 330.662 122.885 331.568 123.897C332.95 125.441 335.458 125.082 336.352 123.213C336.937 121.987 338.581 121.752 339.488 122.764C340.87 124.307 343.377 123.948 344.271 122.079C344.857 120.853 346.501 120.618 347.407 121.63C348.789 123.174 351.297 122.815 352.19 120.945C352.776 119.719 354.42 119.484 355.326 120.496C356.708 122.04 359.216 121.681 360.109 119.811L360.156 119.715Z" fill="#002033"/>
<path fill-rule="evenodd" clip-rule="evenodd" d="M214.973 73.8254C214.973 77.9676 211.839 81.3254 207.973 81.3254C207.137 81.3254 206.336 81.1686 205.593 80.8809C206.195 82.4109 206.525 84.0774 206.525 85.8211C206.525 89.9583 204.665 93.661 201.735 96.1382C199.383 98.1268 196.342 99.3256 193.021 99.3256C185.936 99.3256 180.125 93.8693 179.561 86.9294C178.648 86.7572 177.973 86.1536 177.973 85.4353C177.973 84.6945 178.691 84.0755 179.648 83.9263C180.512 77.7751 185.519 72.9536 191.758 72.3749C192.173 72.3364 192.595 72.3166 193.021 72.3166C193.209 72.3166 193.396 72.3205 193.582 72.3281C194.466 72.3642 195.327 72.4852 196.159 72.6832C197.956 73.111 199.614 73.8979 201.053 74.964C201 74.5927 200.973 74.2125 200.973 73.8254C200.973 69.6833 204.107 66.3254 207.973 66.3254C211.839 66.3254 214.973 69.6833 214.973 73.8254ZM199.82 95.1024C198.197 94.1284 196.698 92.9703 195.35 91.6571C195.65 91.3336 195.919 90.9565 196.141 90.533C197.179 88.5511 196.797 86.303 195.287 85.5119C194.073 84.8757 192.499 85.3753 191.389 86.6259C189.431 83.3239 188.233 79.5187 188.034 75.4507C184.641 77.0855 182.172 80.3365 181.629 84.2044L181.45 85.4785L181.554 86.7675C182.035 92.6775 186.986 97.3256 193.021 97.3256C195.564 97.3256 197.915 96.5001 199.82 95.1024Z" fill="#002033"/>
</g>
<path d="M105.834 302.545V320H102.698V305.17H95.0614V320H91.9251V302.545H105.834ZM112.454 315.824L117.696 306.909H120.866V320H117.883V311.077L112.659 320H109.48V306.909H112.454V315.824ZM129.745 320.256C128.438 320.256 127.316 319.969 126.378 319.395C125.446 318.821 124.728 318.028 124.222 317.017C123.722 316 123.472 314.83 123.472 313.506C123.472 312.176 123.728 311.003 124.239 309.986C124.75 308.963 125.472 308.168 126.404 307.599C127.341 307.026 128.449 306.739 129.728 306.739C130.79 306.739 131.73 306.935 132.549 307.327C133.373 307.713 134.029 308.261 134.517 308.972C135.006 309.676 135.284 310.5 135.353 311.443H132.404C132.284 310.812 132 310.287 131.551 309.866C131.108 309.44 130.515 309.227 129.77 309.227C129.14 309.227 128.586 309.398 128.108 309.739C127.631 310.074 127.259 310.557 126.992 311.188C126.73 311.818 126.6 312.574 126.6 313.455C126.6 314.347 126.73 315.114 126.992 315.756C127.253 316.392 127.62 316.884 128.091 317.23C128.569 317.571 129.128 317.741 129.77 317.741C130.225 317.741 130.631 317.656 130.989 317.486C131.353 317.31 131.657 317.057 131.901 316.727C132.145 316.398 132.313 315.997 132.404 315.526H135.353C135.279 316.452 135.006 317.273 134.534 317.989C134.063 318.699 133.421 319.256 132.608 319.659C131.796 320.057 130.841 320.256 129.745 320.256ZM139.974 311.17H143.835C145.505 311.17 146.798 311.577 147.713 312.389C148.627 313.202 149.088 314.267 149.093 315.585C149.088 316.443 148.877 317.205 148.463 317.869C148.054 318.534 147.457 319.057 146.673 319.438C145.895 319.812 144.949 320 143.835 320H137.886V306.909H140.86V317.469H143.835C144.505 317.469 145.056 317.298 145.488 316.957C145.92 316.611 146.136 316.168 146.136 315.628C146.136 315.06 145.92 314.597 145.488 314.239C145.056 313.881 144.505 313.702 143.835 313.702H139.974V311.17ZM159.272 316.412L163.158 306.909H165.647L160.354 320H158.198L153.025 306.909H155.488L159.272 316.412ZM154.712 306.909V320H151.738V306.909H154.712ZM163.959 320V306.909H166.908V320H163.959ZM175.729 320.256C174.451 320.256 173.343 319.974 172.405 319.412C171.468 318.849 170.74 318.062 170.223 317.051C169.712 316.04 169.456 314.858 169.456 313.506C169.456 312.153 169.712 310.969 170.223 309.952C170.74 308.935 171.468 308.145 172.405 307.582C173.343 307.02 174.451 306.739 175.729 306.739C177.007 306.739 178.115 307.02 179.053 307.582C179.99 308.145 180.715 308.935 181.226 309.952C181.743 310.969 182.002 312.153 182.002 313.506C182.002 314.858 181.743 316.04 181.226 317.051C180.715 318.062 179.99 318.849 179.053 319.412C178.115 319.974 177.007 320.256 175.729 320.256ZM175.746 317.784C176.439 317.784 177.019 317.594 177.485 317.213C177.951 316.827 178.297 316.31 178.525 315.662C178.757 315.014 178.874 314.293 178.874 313.497C178.874 312.696 178.757 311.972 178.525 311.324C178.297 310.67 177.951 310.151 177.485 309.764C177.019 309.378 176.439 309.185 175.746 309.185C175.036 309.185 174.445 309.378 173.973 309.764C173.507 310.151 173.158 310.67 172.925 311.324C172.698 311.972 172.584 312.696 172.584 313.497C172.584 314.293 172.698 315.014 172.925 315.662C173.158 316.31 173.507 316.827 173.973 317.213C174.445 317.594 175.036 317.784 175.746 317.784ZM196.284 320.256C195.005 320.256 193.897 319.974 192.96 319.412C192.022 318.849 191.295 318.062 190.778 317.051C190.267 316.04 190.011 314.858 190.011 313.506C190.011 312.153 190.267 310.969 190.778 309.952C191.295 308.935 192.022 308.145 192.96 307.582C193.897 307.02 195.005 306.739 196.284 306.739C197.562 306.739 198.67 307.02 199.608 307.582C200.545 308.145 201.27 308.935 201.781 309.952C202.298 310.969 202.556 312.153 202.556 313.506C202.556 314.858 202.298 316.04 201.781 317.051C201.27 318.062 200.545 318.849 199.608 319.412C198.67 319.974 197.562 320.256 196.284 320.256ZM196.301 317.784C196.994 317.784 197.574 317.594 198.039 317.213C198.505 316.827 198.852 316.31 199.079 315.662C199.312 315.014 199.429 314.293 199.429 313.497C199.429 312.696 199.312 311.972 199.079 311.324C198.852 310.67 198.505 310.151 198.039 309.764C197.574 309.378 196.994 309.185 196.301 309.185C195.591 309.185 195 309.378 194.528 309.764C194.062 310.151 193.713 310.67 193.48 311.324C193.252 311.972 193.139 312.696 193.139 313.497C193.139 314.293 193.252 315.014 193.48 315.662C193.713 316.31 194.062 316.827 194.528 317.213C195 317.594 195.591 317.784 196.301 317.784ZM203.733 309.44V306.909H215.187V309.44H210.951V320H207.968V309.44H203.733ZM217.644 320V306.909H228.698V320H225.723V309.44H220.593V320H217.644ZM231.87 324.909V306.909H234.904V309.074H235.083C235.243 308.756 235.467 308.418 235.757 308.06C236.047 307.696 236.439 307.386 236.933 307.131C237.427 306.869 238.058 306.739 238.825 306.739C239.836 306.739 240.748 306.997 241.561 307.514C242.379 308.026 243.027 308.784 243.504 309.79C243.987 310.79 244.228 312.017 244.228 313.472C244.228 314.909 243.993 316.131 243.521 317.136C243.049 318.142 242.407 318.909 241.595 319.438C240.782 319.966 239.862 320.23 238.833 320.23C238.083 320.23 237.461 320.105 236.967 319.855C236.473 319.605 236.075 319.304 235.774 318.952C235.478 318.594 235.248 318.256 235.083 317.938H234.956V324.909H231.87ZM234.896 313.455C234.896 314.301 235.015 315.043 235.254 315.679C235.498 316.315 235.848 316.812 236.302 317.17C236.762 317.523 237.319 317.699 237.973 317.699C238.654 317.699 239.225 317.517 239.686 317.153C240.146 316.784 240.493 316.281 240.725 315.645C240.964 315.003 241.083 314.273 241.083 313.455C241.083 312.642 240.967 311.92 240.734 311.29C240.501 310.659 240.154 310.165 239.694 309.807C239.234 309.449 238.66 309.27 237.973 309.27C237.314 309.27 236.754 309.443 236.294 309.79C235.833 310.136 235.484 310.622 235.245 311.247C235.012 311.872 234.896 312.608 234.896 313.455ZM250.637 320.264C249.808 320.264 249.061 320.116 248.396 319.821C247.737 319.52 247.214 319.077 246.828 318.491C246.447 317.906 246.257 317.185 246.257 316.327C246.257 315.588 246.393 314.977 246.666 314.494C246.939 314.011 247.311 313.625 247.782 313.335C248.254 313.045 248.785 312.827 249.376 312.679C249.973 312.526 250.589 312.415 251.225 312.347C251.993 312.267 252.615 312.196 253.092 312.134C253.569 312.065 253.916 311.963 254.132 311.827C254.353 311.685 254.464 311.466 254.464 311.17V311.119C254.464 310.477 254.274 309.98 253.893 309.628C253.512 309.276 252.964 309.099 252.248 309.099C251.493 309.099 250.893 309.264 250.45 309.594C250.012 309.923 249.717 310.312 249.564 310.761L246.683 310.352C246.91 309.557 247.285 308.892 247.808 308.358C248.331 307.818 248.97 307.415 249.725 307.148C250.481 306.875 251.316 306.739 252.231 306.739C252.862 306.739 253.49 306.812 254.115 306.96C254.74 307.108 255.311 307.352 255.828 307.693C256.345 308.028 256.76 308.486 257.072 309.065C257.39 309.645 257.549 310.369 257.549 311.239V320H254.583V318.202H254.481C254.294 318.565 254.029 318.906 253.689 319.224C253.353 319.537 252.93 319.79 252.419 319.983C251.913 320.17 251.319 320.264 250.637 320.264ZM251.439 317.997C252.058 317.997 252.595 317.875 253.049 317.631C253.504 317.381 253.853 317.051 254.098 316.642C254.348 316.233 254.473 315.787 254.473 315.304V313.761C254.376 313.841 254.211 313.915 253.978 313.983C253.751 314.051 253.495 314.111 253.211 314.162C252.927 314.213 252.646 314.259 252.368 314.298C252.089 314.338 251.848 314.372 251.643 314.401C251.183 314.463 250.771 314.565 250.407 314.707C250.044 314.849 249.757 315.048 249.547 315.304C249.336 315.554 249.231 315.878 249.231 316.276C249.231 316.844 249.439 317.273 249.853 317.562C250.268 317.852 250.797 317.997 251.439 317.997ZM260.652 320V306.909H266.149C267.7 306.909 268.924 307.219 269.822 307.838C270.725 308.457 271.177 309.321 271.177 310.429C271.177 311.162 270.922 311.761 270.41 312.227C269.904 312.687 269.214 312.997 268.339 313.156C269.027 313.213 269.629 313.386 270.146 313.676C270.669 313.966 271.078 314.347 271.373 314.818C271.669 315.29 271.816 315.832 271.816 316.446C271.816 317.168 271.626 317.795 271.245 318.33C270.87 318.858 270.322 319.27 269.6 319.565C268.885 319.855 268.015 320 266.993 320H260.652ZM263.541 317.571H266.993C267.561 317.571 268.007 317.437 268.331 317.17C268.654 316.898 268.816 316.528 268.816 316.062C268.816 315.523 268.654 315.099 268.331 314.793C268.007 314.48 267.561 314.324 266.993 314.324H263.541V317.571ZM263.541 312.33H266.208C266.629 312.33 266.99 312.27 267.291 312.151C267.592 312.026 267.822 311.852 267.981 311.631C268.14 311.403 268.22 311.134 268.22 310.821C268.22 310.372 268.035 310.02 267.666 309.764C267.302 309.509 266.797 309.381 266.149 309.381H263.541V312.33ZM273.459 320L273.442 317.46H273.894C274.235 317.46 274.522 317.384 274.755 317.23C274.988 317.077 275.181 316.821 275.334 316.463C275.488 316.099 275.607 315.611 275.692 314.997C275.777 314.384 275.837 313.619 275.871 312.705L276.101 306.909H285.647V320H282.664V309.44H278.905L278.701 313.659C278.65 314.75 278.527 315.696 278.334 316.497C278.147 317.293 277.88 317.949 277.533 318.466C277.192 318.983 276.763 319.369 276.246 319.625C275.729 319.875 275.118 320 274.414 320H273.459ZM294.549 320.256C293.236 320.256 292.103 319.983 291.148 319.438C290.199 318.886 289.469 318.108 288.958 317.102C288.446 316.091 288.191 314.901 288.191 313.531C288.191 312.185 288.446 311.003 288.958 309.986C289.475 308.963 290.196 308.168 291.123 307.599C292.049 307.026 293.137 306.739 294.387 306.739C295.194 306.739 295.955 306.869 296.671 307.131C297.392 307.386 298.029 307.784 298.58 308.324C299.137 308.864 299.574 309.551 299.892 310.386C300.211 311.216 300.37 312.205 300.37 313.352V314.298H289.64V312.219H297.412C297.407 311.628 297.279 311.102 297.029 310.642C296.779 310.176 296.429 309.81 295.98 309.543C295.537 309.276 295.02 309.142 294.429 309.142C293.799 309.142 293.245 309.295 292.767 309.602C292.29 309.903 291.918 310.301 291.651 310.795C291.39 311.284 291.256 311.821 291.25 312.406V314.222C291.25 314.983 291.39 315.636 291.668 316.182C291.946 316.722 292.336 317.136 292.836 317.426C293.336 317.71 293.921 317.852 294.591 317.852C295.04 317.852 295.446 317.79 295.81 317.665C296.174 317.534 296.489 317.344 296.756 317.094C297.023 316.844 297.225 316.534 297.361 316.165L300.242 316.489C300.06 317.25 299.713 317.915 299.202 318.483C298.696 319.045 298.049 319.483 297.259 319.795C296.469 320.102 295.566 320.256 294.549 320.256ZM311.971 312.176V314.707H305V312.176H311.971ZM305.954 306.909V320H302.98V306.909H305.954ZM313.991 306.909V320H311.025V306.909H313.991ZM322.823 320.256C321.544 320.256 320.436 319.974 319.499 319.412C318.561 318.849 317.834 318.062 317.317 317.051C316.806 316.04 316.55 314.858 316.55 313.506C316.55 312.153 316.806 310.969 317.317 309.952C317.834 308.935 318.561 308.145 319.499 307.582C320.436 307.02 321.544 306.739 322.823 306.739C324.101 306.739 325.209 307.02 326.147 307.582C327.084 308.145 327.809 308.935 328.32 309.952C328.837 310.969 329.096 312.153 329.096 313.506C329.096 314.858 328.837 316.04 328.32 317.051C327.809 318.062 327.084 318.849 326.147 319.412C325.209 319.974 324.101 320.256 322.823 320.256ZM322.84 317.784C323.533 317.784 324.113 317.594 324.578 317.213C325.044 316.827 325.391 316.31 325.618 315.662C325.851 315.014 325.968 314.293 325.968 313.497C325.968 312.696 325.851 311.972 325.618 311.324C325.391 310.67 325.044 310.151 324.578 309.764C324.113 309.378 323.533 309.185 322.84 309.185C322.13 309.185 321.539 309.378 321.067 309.764C320.601 310.151 320.252 310.67 320.019 311.324C319.792 311.972 319.678 312.696 319.678 313.497C319.678 314.293 319.792 315.014 320.019 315.662C320.252 316.31 320.601 316.827 321.067 317.213C321.539 317.594 322.13 317.784 322.84 317.784Z" fill="#002033"/>
<defs>
<clipPath id="clip0_738_2010">
<rect width="420" height="273" fill="white"/>
</clipPath>
</defs>
</svg>
